/* XPM */
static char *_f8f6817758d4442bd7239f4ed4c95862YOaWvXLo2bzRdQ1[] = {
/* columns rows colors chars-per-pixel */
"64 64 238 2 ",
"  c #000000",
".  c #000000",
"X  c #0A0300",
"o  c #09090D",
"O  c #160907",
"+  c #000012",
"@  c #00031D",
"#  c #02121E",
"$  c #181819",
"%  c #1A1401",
"&  c #27190A",
"*  c #26220D",
"=  c #000522",
"-  c #051627",
";  c #00173D",
":  c #00043D",
">  c #062639",
",  c #262424",
"<  c #393839",
"1  c #313632",
"2  c #524B34",
"3  c #000849",
"4  c #071A55",
"5  c #06134A",
"6  c #092845",
"7  c #08225A",
"8  c #162656",
"9  c #0D3659",
"0  c #1B2C4F",
"q  c #031A66",
"w  c #001B74",
"e  c #082568",
"r  c #083B66",
"t  c #143A6B",
"y  c #0A2877",
"u  c #122D7B",
"i  c #102675",
"p  c #143677",
"a  c #0C316E",
"s  c #2F3662",
"d  c #373F61",
"f  c #323648",
"g  c #3D4958",
"h  c #355559",
"j  c #114775",
"k  c #25465F",
"l  c #484746",
"z  c #575149",
"x  c #495957",
"c  c #5B5A5A",
"v  c #595658",
"b  c #504A4F",
"n  c #635D5D",
"m  c #6A5B47",
"M  c #475767",
"N  c #455B77",
"B  c #577275",
"V  c #716867",
"C  c #776D57",
"Z  c #182F8A",
"A  c #1A368A",
"S  c #15358A",
"D  c #18379A",
"F  c #08378B",
"G  c #1A3DA5",
"H  c #1E3AB6",
"J  c #1E3AB7",
"K  c #203CBA",
"L  c #034A8D",
"P  c #1B5488",
"I  c #1A5B97",
"U  c #0D4E95",
"Y  c #214F9B",
"T  c #1B649F",
"R  c #31639A",
"E  c #1F43AD",
"W  c #0B5AA8",
"Q  c #1B49B8",
"!  c #2143BC",
"~  c #224ABD",
"^  c #2044B1",
"/  c #235FA7",
"(  c #1B64A7",
")  c #226CB2",
"_  c #2373B9",
"`  c #2069A6",
"'  c #487089",
"]  c #203CC9",
"[  c #1C51CD",
"{  c #2345C2",
"}  c #234DC3",
"|  c #254CCA",
" . c #2646C9",
".. c #2450C6",
"X. c #2552CA",
"o. c #295DCF",
"O. c #2756CB",
"+. c #284AD6",
"@. c #2653D2",
"#. c #2954DB",
"$. c #2A59DA",
"%. c #1D7DD2",
"&. c #0074D3",
"*. c #2862CC",
"=. c #2478C5",
"-. c #2B68D6",
";. c #2D77DB",
":. c #3073DE",
">. c #2B5DE4",
",. c #2B5DE9",
"<. c #2B54E2",
"1. c #2949E4",
"2. c #007BF3",
"3. c #0073F1",
"4. c #0075ED",
"5. c #2C62E9",
"6. c #2F75E4",
"7. c #3177E8",
"8. c #2F65F7",
"9. c #336CFF",
"0. c #3364FA",
"q. c #3878F8",
"w. c #3060E4",
"e. c #5B8082",
"r. c #668D92",
"t. c #779499",
"y. c #5185B0",
"u. c #7EAFB7",
"i. c #2D84D6",
"p. c #318ADE",
"a. c #328CD3",
"s. c #0587EE",
"d. c #0284F2",
"f. c #0889F3",
"g. c #1A8AF4",
"h. c #138BF2",
"j. c #0093FE",
"k. c #1897FA",
"l. c #2C8BEB",
"z. c #328BED",
"x. c #3384E7",
"c. c #3396EE",
"v. c #258BF4",
"b. c #3785F8",
"n. c #2D94F5",
"m. c #2896F7",
"M. c #3396F3",
"N. c #3499F5",
"B. c #359BF9",
"V. c #3B9DFC",
"C. c #3998F4",
"Z. c #01A5FF",
"A. c #0AAFFF",
"S. c #29A7FF",
"D. c #35A2FB",
"F. c #3BA5FD",
"G. c #35AAFF",
"H. c #3AACFF",
"J. c #37A5F4",
"K. c #3DB3FF",
"L. c #3EBDFF",
"P. c #37B2FF",
"I. c #35A0EC",
"U. c #468EC4",
"Y. c #609CC2",
"T. c #4A9BF6",
"R. c #49A6F7",
"E. c #5AAAF7",
"W. c #44BCFF",
"Q. c #44B5FF",
"!. c #57B0F7",
"~. c #67B8F7",
"^. c #6FB2F8",
"/. c #38C9FF",
"(. c #44C3FF",
"). c #47CAFF",
"_. c #4FD5FF",
"`. c #73C5FA",
"'. c #7AC8F8",
"]. c #75D5FF",
"[. c #67D1FF",
"{. c #8D8B8C",
"}. c #928C8B",
"|. c #9A9797",
" X c #998F91",
".X c #A6A19D",
"XX c #9F9CA0",
"oX c #93AEAE",
"OX c #AAA7A9",
"+X c #B0B2B1",
"@X c #C7B6A8",
"#X c #DBC9BA",
"$X c #8CBFC7",
"%X c #BBBEC3",
"&X c #A4B5C4",
"*X c #84BCF8",
"=X c #8CB6E2",
"-X c #95D3DC",
";X c #BBC4C9",
":X c #88C7F9",
">X c #8ED4FB",
",X c #82D2FF",
"<X c #96DBFB",
"1X c #90C1F6",
"2X c #A5D2FC",
"3X c #ABD1F9",
"4X c #9CE9FD",
"5X c #9BF2FF",
"6X c #ABEDFC",
"7X c #A5E8FD",
"8X c #B2EDF8",
"9X c #A3F3FF",
"0X c #ABF3FF",
"qX c #ACF8FF",
"wX c #B4F4FE",
"eX c #B9F5FE",
"rX c #B5FAFF",
"tX c #BDFCFF",
"yX c #D9D6D7",
"uX c #D4CFCF",
"iX c #E3DBDA",
"pX c #E7E5D8",
"aX c #C3F6FF",
"sX c #CCF5FD",
"dX c #C3FEFF",
"fX c #CCFEFF",
"gX c #CCF0F4",
"hX c #D4FDFE",
"jX c #DBFEFF",
"kX c #D1F6FD",
"lX c #D0E9F5",
"zX c #EEE9EA",
"xX c #E3FEFF",
"cX c #ECFEFF",
"vX c #E8F1FB",
"bX c #F4FEFF",
"nX c #FFFFFF",
"mX c #EFEBF0",
/* pixels */
"                                                                                                                                ",
"                                                                                                                                ",
"                                                                                                                                ",
"                                                                                                                                ",
"                                                                                                                                ",
"                                                                                                                                ",
"                                                                                                                                ",
"                                                                                                                                ",
"                                                                                                                                ",
"                                          . . . . . . . . . . . . . . . . . . . . . .                                           ",
"                                      O b iXyXyXo . . 1 kX8X8X-X-X8X8XhXx . . . p.;.H 8 *                                       ",
"                                      . x nXnXnXv , , B sXwXwXhXjXwXwXhX' - # 6 Q.V.9.q .                                       ",
"                                . . . tXdX9XcXnXnXnXnXOX. . . nXnX. . . F A.m.V.N.N.F.:.] + . . 2                               ",
"                              N r h B dXdX0XsXxXcXbXnXyXv n n |.|.V c h Y.].R.m.N.N.F.z.7.e : 3 s                               ",
"                        . . . L /.dXnXwXwXwX0X0X5XwXnXnXnXnXnX. . nXnXdXfXhXR.2.h.v.N.D.H.5.+.9.D . . .                         ",
"                        ( T I i.D.!.`.rXtXtXwXwXwXeXkXhXbXoXc |.|.c {.cXfX0X<X,X<X~.g.n.B.z.6.@.E i u S                         ",
"                b . . . (.(.K.D.M.d.v.wXdXeXeXwXwXwX9XqXxXk . nXnX. $ nXxX9XdXfXxX4Xd.N.N.G.D.} | ,.8.9.. . . 1                 ",
"                  . uXyX+ a L.H.F.B.N.R.R.c.<XjXdXdXcX$Xo {.yXnXnXyXXXo +XnXtX9XwX6X8X~.2.N.N.F.b.8.w . %XyX. l                 ",
"                  . nXnXO 0 I.p.p.M.N.v.g.d.`.eX7X7XgXt.. OXnXnXnXnXuX. }.zXsXeXeXaXjX,Xn.V.N.c.i.| 8 % nXnX. <                 ",
"                  . -XjXnX X. . . l.(.N.M.N.M.M.L.B.. 1 hXrXwXnXnXnXnXnXl . mXnXnXxX5XwXaX[.m.. . . V nXnXmX. <                 ",
"                  . -XhXbX;Xz z z R _ N.B.N.B.m.=.I ; ' jXrX0XjXcXnXnXnX|.l |.+XnXbXaXdXfXU.W v z z +XbXbXlX. <                 ",
"                l . wXbX5XxXnXnXnXO . K.K.M.H.W.. . k.].jXtXwX9XwXnXnXnXnXnX. . nXnXnXbXxX. . nXnXnXcX5XxXtX. ,                 ",
"                      B rXfXkXnXnXy.L 9 I W.( 9 P ` m.R.~.4XdXwXwXsXxXnXnXnXOX{.c }.nXOXh {..XhXkXjXfXrXe.M                     ",
"                    . . dXtX5XcXnX].j.. - _.6 . c.).C.n.3.'.hXeXwX5XaXnXnXnXnXnX. $ nXn . zXnX0X9X9XrXfX. .                     ",
"                    O . tXfXjX:XT.F.l.~ u - I I.M.N.N.N.N.R.R.6XhXdXdXaXaXeXnXnXyXOX1  XyXgXeXwXeXdXdXhX$ .                     ",
"                    O . dXtXeX!.2.B.C.9.Z . I W.B.M.N.N.N.v.d.>XwX7X6X0X0X9XcXnXnX%X. |.nXdX5XwXwX7X0XeX- .                     ",
"                    O . cX4Xh.N.N.G.B.>.Z . i >.z.D.N.N.N.N.N.N.N.f.~.jXfXfXrXwXjXu.. r.jXdXfXxX7Xg.D.K.= X                     ",
"                    O . 7X`.f.n.B.z.6.>.Z . i <.z.D.N.N.N.N.N.n.n.h.R.<X>X>X6XrXhXu.. r.jX<X>X<X'.k.v.v.+ X                     ",
"                    . . S.G.M.B.B.X.H >.A . i >.N.H.N.N.N.N.N.N.N.N.n.g.f.d.6XxXcXoX. t.nXR.2.g.m.P.b.1.. .                     ",
"                        r ( F.B.D.o.! >.A . u >.-.6.B.B.N.N.N.N.N.N.N.N.n.n.~.`.,Xy.. ' >XR.v.D.z.7.Y 4                         ",
"                        . ; K.D.F.o.{ >.A . u >.H } D.D.N.N.N.N.N.N.N.N.N.N.h.d.Z.W . L Z.n.C.H.x.+.3 .                         ",
"                        . 4 ).7...X.} >.A . u >.} ....:.G.D.D.N.N.N.N.N.N.N.N.N.K.) . P K.D.N.*.o.0.4 .                         ",
"                        $ t J.*.H } X.>.A . u >...} H o.B.M.c.N.N.N.N.N.N.N.N.N.K.) . P K.N.z.{ ! @.a $                         ",
"                            . u >.....>.A . S 9.X.} ......} } M.H.F.D.N.N.N.M.N.).=.. I (.-.! >.D .                             ",
"                            . i 5.....>.A . 4 G ~ X...} { { ~ ;.z.x.z.B.N.N.B.c.i.j . P V.O.! ,.A .                             ",
"                            . y 9.X...9.D . . . Q 9...} ......{ { J *.P.D.D.(.V.. . . i 0.X...9.D .                             ",
"                              M 7 | X.4 e W t..X0 5 @.@.......} } { O.;.6.7.t 9 I I T a 4 ~ #.7 d                               ",
"                                . } $.. > A.cXnX% . #.$.} ..........} ! | +.. . Q.L.).r . ^ >.. 2                               ",
"                                . @ 5 D *.G.R.E.pX#X. 3 8.@.} ....} X.8.4 . / p.d.^.bX=X&.8 = . 1                               ",
"                                $ . . #.7.C.d.d.nXnX% - X.} X.} ..X.} @.5 . l.W.m.1XnX2XZ.- . $                                 ",
"                                  . . 5.w.! x.K.f.E.nX@X. w 9.X.} 9.D . P L.2.n.nXvXd.H.(.. .                                   ",
"                                    l S G { -.z.d.R.sX;Xz d D } X.G p 6 _ P.^.1XlX2Xj.%._ g                                     ",
"                                      . . 9.@.H C.G.3.:XnXC . [ 8.. # ).j.2.nXnXs.j._.7 .                                       ",
"                                          4 D >.-.6.h.E.1X&X|.s 4 P ) j.*X3X3X1XH.%.j                                           ",
"                                          . e 9.J } F.k.4.sXnX& . Q.P.2.lXnXR.2.(.( .                                           ",
"                                            b + ! 5.X.6.S.E.^.a.=.d.^.vX2XR.q.[ = g                                             ",
"                                              . Y @.H *.F.h.d.G.H.d.*XnX*X3.[ D . m                                             ",
"                                                . . ,.w.! x.K.N.N.D.F.Q.b.,.. .                                                 ",
"                                                  1 D G { -.z.N.N.x.l.g.Q Z 1 2                                                 ",
"                                                    . . 9.@.K B.H.!  .0.= .                                                     ",
"                                                        e D #.:.6.$.G q                                                         ",
"                                                        . q 0.{ ! 8.S .                                                         ",
"                                                            + } $.+ f                                                           ",
"                                                            X E } X                                                             ",
"                                                              . .                                                               ",
"                                                                l                                                               ",
"                                                                                                                                ",
"                                                                                                                                ",
"                                                                                                                                ",
"                                                                                                                                ",
"                                                                                                                                ",
"                                                                                                                                ",
"                                                                                                                                ",
"                                                                                                                                "
};
