/* XPM */
static char *result[] = {
/* columns rows colors chars-per-pixel */
"64 64 226 2 ",
"   c #010100",
".  c #010D01",
"X  c #0B010C",
"o  c #040507",
"O  c #180903",
"+  c #001E00",
"@  c #071306",
"#  c #161702",
"$  c #070019",
"%  c #1A021B",
"&  c #180615",
"*  c #111814",
"=  c #220E08",
"-  c #231C02",
";  c #271418",
":  c #321615",
">  c #3D0000",
",  c #002400",
"<  c #002C00",
"1  c #0E2703",
"2  c #182906",
"3  c #003300",
"4  c #003D00",
"5  c #0A3900",
"6  c #1C2415",
"7  c #143F02",
"8  c #2A2400",
"9  c #342A00",
"0  c #3C3701",
"q  c #243416",
"w  c #0B0023",
"e  c #190224",
"r  c #270528",
"t  c #2D162A",
"y  c #36043A",
"u  c #3A1A36",
"i  c #24003B",
"p  c #252D23",
"a  c #650000",
"s  c #483B00",
"d  c #5B3C00",
"f  c #482C12",
"g  c #7D3200",
"h  c #452A22",
"j  c #004400",
"k  c #004B00",
"l  c #005400",
"z  c #005B00",
"x  c #155A00",
"c  c #2A4A14",
"v  c #006400",
"b  c #006C00",
"n  c #007200",
"m  c #007B00",
"M  c #007108",
"N  c #057411",
"B  c #257B02",
"V  c #326D18",
"C  c #1F5629",
"Z  c #2D562B",
"A  c #385032",
"S  c #30702F",
"D  c #4F4400",
"F  c #584800",
"G  c #4B5400",
"H  c #585400",
"J  c #624A00",
"K  c #615200",
"L  c #695500",
"P  c #685C00",
"I  c #725E00",
"U  c #785D00",
"Y  c #5D7800",
"T  c #537200",
"R  c #686400",
"E  c #766400",
"W  c #796602",
"Q  c #797A00",
"!  c #697B00",
"~  c #45493D",
"^  c #634623",
"/  c #4C7035",
"(  c #471B42",
")  c #501A50",
"_  c #4C2048",
"`  c #651B60",
"'  c #6F2B6A",
"]  c #670F47",
"[  c #484748",
"{  c #555657",
"}  c #5E655C",
"|  c #476045",
" . c #635E65",
".. c #606666",
"X. c #A2000F",
"o. c #B83700",
"O. c #CB0006",
"+. c #FE0000",
"@. c #F20000",
"#. c #E50000",
"$. c #D42900",
"%. c #834E00",
"&. c #A34F00",
"*. c #846E00",
"=. c #8B6600",
"-. c #867100",
";. c #8B7400",
":. c #8C7900",
">. c #927C00",
",. c #9C7A00",
"<. c #A17500",
"1. c #D24400",
"2. c #D77100",
"3. c #843C7E",
"4. c #008400",
"5. c #008B00",
"6. c #008312",
"7. c #2F8514",
"8. c #32A50D",
"9. c #1A8420",
"0. c #328228",
"q. c #3EA33C",
"w. c #4F8B0A",
"e. c #7A8700",
"r. c #729A00",
"t. c #4A8D27",
"y. c #538729",
"u. c #4E9D2A",
"i. c #518933",
"p. c #55942F",
"a. c #659A3B",
"s. c #709A21",
"d. c #5CA235",
"f. c #50AC26",
"g. c #539652",
"h. c #6C9D43",
"j. c #6D9747",
"k. c #739C4A",
"l. c #639C55",
"z. c #5BA648",
"x. c #6CA244",
"c. c #75A24B",
"v. c #79A34E",
"b. c #71A948",
"n. c #78B44C",
"m. c #7DA852",
"M. c #68B255",
"N. c #648763",
"B. c #9B8300",
"V. c #998900",
"C. c #808200",
"Z. c #A48B00",
"A. c #AA8800",
"S. c #AD9300",
"D. c #A79800",
"F. c #B29400",
"G. c #BB9B00",
"H. c #B69800",
"J. c #BC8D00",
"K. c #9EB200",
"L. c #A9A200",
"P. c #BCA300",
"I. c #B3A400",
"U. c #B9BB00",
"Y. c #8CB439",
"T. c #C39E00",
"R. c #C99900",
"E. c #CE8600",
"W. c #C4A300",
"Q. c #CAA500",
"!. c #CEAA00",
"~. c #C5AB00",
"^. c #D4AD00",
"/. c #D9AF00",
"(. c #CEBD00",
"). c #CBB300",
"_. c #DBB200",
"`. c #DCBB00",
"'. c #D5B700",
"]. c #E4AE00",
"[. c #E2B500",
"{. c #E4BB00",
"}. c #ECBD00",
"|. c #F3BF00",
" X c #FDBB00",
".X c #BEC000",
"XX c #C6C900",
"oX c #D4C400",
"OX c #ECC200",
"+X c #E6C800",
"@X c #F5C100",
"#X c #FCC500",
"$X c #F5CC00",
"%X c #FECB00",
"&X c #EAD500",
"*X c #FFD300",
"=X c #FFDA00",
"-X c #FFE400",
";X c #FEEC00",
":X c #F6E700",
">X c #FEF300",
",X c #FAF700",
"<X c #EEF800",
"1X c #E2D420",
"2X c #84AA56",
"3X c #86B455",
"4X c #92BD5D",
"5X c #94B361",
"6X c #8CC957",
"7X c #8CC270",
"8X c #B3D178",
"9X c #884481",
"0X c #90938F",
"qX c #94BD8E",
"wX c #AA80A6",
"eX c #BDBBBB",
"rX c #90C98F",
"tX c #BACDB8",
"yX c #D2DEA9",
"uX c #D0F1B4",
"iX c #CDD0CA",
"pX c #DBE6D7",
"aX c #FFFFFE",
"sX c #F7FFF4",
"dX c #EFFBEC",
"  c #B1B1B1",
/* pixels */
"fXfXfXfXfXfXfXfXfXfXfXfXfXfXfXfXfXfXfXfXfXfXfXfXfXfXfXfXfXfXfXfXfXfXfXfXfXfXfXfXfXfXfXfXfXfXfXfXfXfXfXfXfXfXfXfXfXfXfXfXfXfXfXfX",
"fXfXfXfXfXfXfXfXfXfXfXfXfXfXfXfXfXfXfXfXfXfXfXfXfXfXfXfXfXfXfXfXfXfXfXfXfXfXfXfXfXfXfXfXfXfXfXfXfXfXfXfXfXfXfXfXfXfXfXfXfXfXfXfX",
"fXfXfXfXfXfXfXfXfXfXfXfXfXfXfXfXfXfXfXfXfXfXfXfXfXfXfXfXfXfXfXfXfXfXfXfXfXfXfXfXfXfXfXfXfXfXfXfXfXfXfXfXfXfXfXfXfXfXfXfXfXfXfXfX",
"fXfXfXfXfXfXfXfXfXfXfXfXfXfXfXfXfXfXfXfXfXfXfXfXfXfXfXfXfXfXfXfXfXfXfXfXfXfXfXfXfXfXfXfXfXfXfXfXfXfXfXfXfXfXfXfXfXfXfXfXfXfXfXfX",
"fXfXfXfXfXfXfXfXfXfXfXfXfXfXfXfXfXfXfXfXfXfXfXfXfXfXfXfXfXfXfXfXfXfXfXfXfXfXfXfXfXfXfXfXfXfXfXfXfXfXfXfXfXfXfXfXfXfXfXfXfXfXfXfX",
"fXfXfXfXfXfXfXfXfXfXfXfXfXfXfXfXfXfXfXfXfXfXfXfXfXfXfXfXfXfXfXfXfXfXfXfXfXfXfXfXfXfXfXfXfXfXfXfXfXfXfXfXfXfXfXfXfXfXfXfXfXfXfXfX",
"fXfXfXfXfXfXfXfXfXfXfXfXfXfXfXfXfXfXfXfXfXfXfXfXfXfXfXfXfX            r fXfXfXfXfXfXfXfXfXfXfXfXfXfXfXfXfXfXfXfXfXfXfXfXfXfXfXfX",
"fXfXfXfXfXfXfXfXfXfXfXfXfXfXfXfXfXfXfXfXfXfXfXfXfXfX$ w F ).F.:.;.G.U.K e $ fXfXfXfXfXfXfXfXfXfXfXfXfXfXfXfXfXfXfXfXfXfXfXfXfXfX",
"fXfXfXfXfXfXfXfXfXfXfXfXfXfXfXfXfXfXfXfXfXfXfXfXfX- H E F.&X=X#X[.}.,X!.L W f fXfXfXfXfXfXfXfXfXfXfXfXfXfXfXfXfXfXfXfXfXfXfXfXfX",
"fXfXfXfXfXfXfXfXfXfXfXfXfXfXfXfXfXfXfXfXfXfXfXfX$ D _.=X[.Z.@X%X[.S.[.%X*X,X,.o fXfXfXfXfXfXfXfXfXfXfXfXfXfXfXfXfXfXfXfXfXfXfXfX",
"fXfXfXfXfXfXfXfXfXfXfXfXfXfXfXfXfXfXfXfXfXfXfX  ;.F.W F G.=X|.#X#X|.Z.!.=X$X%XZ.  fXfXfXfXfXfXfXfXfXfXfXfXfXfXfXfXfXfXfXfXfXfXfX",
"fXfXfXfXfXfXfXfXfXfXfXfXfXfXfXfXfXfXfXfXfXfXfX  P F.B.F.Q.^.#X#X@X#X/.!.^.@X%X+XH : fXfXfXfXfXfXfXfXfXfXfXfXfXfXfXfXfXfXfXfXfXfX",
"fXfXfXfXfXfXfXfXfXfXfXfXfXfXfXfXfXfXfXfXfXfX( # D :.H.$X_.F.{.|.@X|.*X_.V.#X#X%X$X0 o fXfXfXfXfXfXfXfXfXfXfXfXfXfXfXfXfXfXfXfXfX",
"fXfXfXfXfXfXfXfXfXfXfXfXfXfXfXfXfXfXfXfXfXfX8 ^.B.L I :._.*XZ.!.#X@X%X^.Z.#X#X%X*Xs w fXfXfXfXfXfXfXfXfXfXfXfXfXfXfXfXfXfXfXfXfX",
"fXfXfXfXfXfXfXfXfXfXfXfXfXfXfXfXfXfXfXfXfXfX8 ~.G.Z.Z._._.T./.}.#X@X#X|._.W.[.%X#X~.R fXfXfXfXfXfXfXfXfXfXfXfXfXfXfXfXfXfXfXfXfX",
"fXfXfXfXfXfXfXfXfXfXfXfXfXfXfXfXfXfXfXfXfXfX# Q.G.Z.Z.{.^.W.%X%X|.@X|.#X%XZ.Q.#X#X;XD.fXfXfXfXfXfXfXfXfXfXfXfXfXfXfXfXfXfXfXfXfX",
"fXfXfXfXfXfXfXfXfXfXfXfXfXfXfXfXfXfXfXfXfXe - ~.>.L I B./.*X@X@X|.@X|.#X|.S.!.%X#X}.W fXfXfXfXfXfXfXfXfXfXfXfXfXfXfXfXfXfXfXfXfX",
"fXfXfXfXfXfXfXfXfXfXfXfXfXfXfXfXfXfXfXfX&   O Z.!.W.S.OX^.S.F._.#X|.%X%X|.S.^.@XS.&XZ.fXfXfXfXfXfXfXfXfXfXfXfXfXfXfXfXfXfXfXfXfX",
"fXfXfXfXfXfXfXfXfXfXfXfXfXfXfXfXfXfXfXfX  D E 9 F ;.F.{._.T.W.[.#X#X^.}.#XS.^.#XT.:XH.fXfXfXfXfXfXfXfXfXfXfXfXfXfXfXfXfXfXfXfXfX",
"fXfXfXfXfXfXfXfXfXfXfXfXfXfXfXfXfXfXfXfX  Z.XX    - E :._.=X%X#X@X#XF.Q.@XS.Q.#X%X=XB.fXfXfXfXfXfXfXfXfXfXfXfXfXfXfXfXfXfXfXfXfX",
"fXfXfXfXfXfXfXfXfXfXfXfXfXfXfXfXfXfXfXfXfXe 9 %XOXD   s Q.-X%X#X@X|.%X_.Z.G.D.W.=XJ e fXfXfXfXfXfXfXfXfXfXfXfXfXfXfXfXfXfXfXfXfX",
"fXfXfXfXfXfXfXfXfXfXfXfXfXfXfXfXfXfXfXfXfXw s >X&XE 8 :.Z.V.V.oX=X%X#X}.^.Z.Q.+XL.2 fXfXfXfXfXfXfXfXfXfXfXfXfXfXfXfXfXfXfXfXfXfX",
"fXfXfXfXfXfXfXfXfXfXfXfXfXfXfXfXfXfXfXfXfXfXf !.oXG.;.~.V.L g 2. X'.+X*X*XW.'.(.&.O fXfXfXfXfXfXfXfXfXfXfXfXfXfXfXfXfXfXfXfXfXfX",
"fXfXfXfXfXfXfXfXfXfXfXfXfXfXfXfXfXfXfXfXfXfXfX  D.$XA.Z._.#X+.+.O.T oX*X%X*XI.%.+.a fXfXfXfXfXfXfXfXfXfXfXfXfXfXfXfXfXfXfXfXfXfX",
"fXfXfXfXfXfXfXfXfXfXfXfXfXfXfXfXfXfXfXfXfXo %   O A.;X).{.%XE.@.+.#.+.$.Y Q 1.X.> ] fXfXfXfXfXfXfXfXfXfXfXfXfXfXfXfXfXfXfXfXfXfX",
"fXfXfXfXfXfXfXfXfXfXfXfXfXfXfXfXfXfXfXfX2 2 1 q @ H P.W R.-XK.2.+.+.+.1.e.C.$.X.< fXfXfXfXfXfXfXfXfXfXfXfXfXfXfXfXfXfXfXfXfXfXfX",
"fXfXfXfXfXfXfXfXfXfXfXfXfXfXfXfXfXfX%   b.n.b.b.6XZ     U ;XA.`.+XL.oX=X%X:X-.* n.c fXfXfXfXfXfXfXfXfXfXfXfXfXfXfXfXfXfXfXfXfXfX",
"fXfXfXfXfXfXfXfXfXfXfXfXfXfXfXfXfX& A v.x.x.x.m.5X0.j Q.d # ~.-X-XOXP.D.G.,X<.. b.c fXfXfXfXfXfXfXfXfXfXfXfXfXfXfXfXfXfXfXfXfXfX",
"fXfXfXfXfXfXfXfXfXfXfXfXfXfXfXfXfXX k 8.k.v.a.B B M v r.R d J =.J.=X{.`._.*.F / n.q fXfXfXfXfXfXfXfXfXfXfXfXfXfXfXfXfXfXfXfXfXfX",
"fXfXfXfXfXfXfXfXfXfXfXfXfXfXfXfXfX: 3 v a.c.t.z z v v k w.^.    s (.+XoX[.  p 6Xh.q fXfXfXfXfXfXfXfXfXfXfXfXfXfXfXfXfXfXfXfXfXfX",
"fXfXfXfXfXfXfXfXfXfXfXfXfXfXfXfX  I._.V.v z M a.h.h.h.v z v l v 4         k.n.i.  fXfXfXfXfXfXfXfXfXfXfXfXfXfXfXfXfXfXfXfXfXfXfX",
"fXfXfXfXfXfXfXfXfXfXfXfXfXfXfX& R &X;X*Xb l v m.2Xk.v.y.7.9.d.4.v A Z Z C 5.f.j.  fXfXfXfXfXfXfXfXfXfXfXfXfXfXfXfXfXfXfXfXfXfXfX",
"fXfXfXfXfXfXfXfXfXfXfXfXfXfX: H }.#X`.!.l z m c.c.h.h.m.2X2Xv.n M n.3X6Xn.l v / @ fXfXfXfXfXfXfXfXfXfXfXfXfXfXfXfXfXfXfXfXfXfXfX",
"fXfXfXfXfXfXfXfXfXfXfXfXfXO D.;X%X_.0 O   4 5.k.v.h.k.k.c.a.v v v v p.2Xb.l @ = ;.8 % fXfXfXo o fXfXfXfXfXfXfXfXfXfXfXfXfXfXfXfX",
"fXfXfXfXfXfXfXfXfXfXfXfXfX@ I.XXx yX[   fXt 3 m m b b 4.v 5 3 3 3 3 z j @ . G oXW :.F & & & v.iX{ X fXfXfXfXfXfXfXfXfXfXfXfXfXfX",
"fXfXfXfXfXfXfXfXfXfXfXfXfXu J G N dXN.+ fX%   k v v v k j j k k k k ,   fXy ^ L.>.OXP.7 c x u.rX0X{ _ fXfXfXfXfXfXfXfXfXfXfXfXfX",
"fXfXfXfXfXfXfXfXfXfXfXfXfXfX$ 2 m.sXM.z       , z b v < k m v v m n @ r fXfXfX# I.-X1Xz.6Xu.j j 7XiX6 fXfXfXfXfXfXfXfXfXfXfXfXfX",
"fXfXfXfXfXfXfXfXfXfXfXfXfXt 0XqXb 6.n z y.1 # a.k , < < 3 3 j 4 ,   fXfXfXfXfXfXo T 8XpX4.v n b m z o fXfXfXfXfXfXfXfXfXfXfXfXfX",
"fXfXfXfXfXfXfXfXfXfXfXfXfX@ tXiX,   j m uX[ # 4X/ V V k k k , j ,   fXfXfXfXfXfXi @ N.aX4 + < 3 0.l.o fXfXfXfXfXfXfXfXfXfXfXfXfX",
"fXfXfXfXfXfXfXfXfXfXfXfXfXfX0X0X  fX, v aX .. p.n.5X3Xm v v 3 v v   fXfXfXfXfXfXfX% A aXX   fXr 0XeX* fXfXfXfXfXfXfXfXfXfXfXfXfX",
"fXfXfXfXfXfXfXfXfXfXfXfXfXfX% t fXfXfX  aX..  z u.2Xc.5XB k l t.d.l     fXfXfXfXfXfX..aXo fXfXfXu o   fXfXfXfXfXfXfXfXfXfXfXfXfX",
"fXfXfXfXfXfXfXfXfXfXfXfXfXfXfXfXfXfXfXfX} W :.Y b n m N B t.t.N w.U.P *.Z.$ fXfXfXfXfX{ fXfXfXfXfXfXfXfXfXfXfXfXfXfXfXfXfXfXfXfX",
"fXfXfXfXfXfXfXfXfXfXfXfXfXfXfXfXfXfXfXfX  H $X].e.v z v t.2Xm.B ! %X[.$X%X0 fXfXfXfXfX  fXfXfXfXfXfXfXfXfXfXfXfXfXfXfXfXfXfXfXfX",
"fXfXfXfXfXfXfXfXfXfXfXfXfXfXfXfXfXfXfXfX  9 Z.%X;Xr.j x.3Xb.M.I.R.Z.*X_.V.:X,.fXfXfXfXfXfXfXfXfXfXfXfXfXfXfXfXfXfXfXfXfXfXfXfXfX",
"fXfXfXfXfXfXfXfXfXfXfXfXfXfXfXfXfXfXfXfX  *.+XT.G.!.).0 2 + < H Q.}.^.^.[.%X}.,.$ fXfXfXfXfXfXfXfXfXfXfXfXfXfXfXfXfXfXfXfXfXfXfX",
"fXfXfXfXfXfXfXfXfXfXfXfXfXfXfXfXfXfXfXfX  >.=XW.G.}.%X.   r X = -.%XB.F.*X#X#XT.# t fXfXfXfXfXfXfXfXfXfXfXfXfXfXfXfXfXfXfXfXfXfX",
"fXfXfXfXfXfXfXfXfXfXfXfXfXfXfXfXfXfXfXfX  P {.%X=X}.H.  y fXfXfX9 G.R A.*X*XF.K B.8 fXfXfXfXfXfXfXfXfXfXfXfXfXfXfXfXfXfXfXfXfXfX",
"fXfXfXfXfXfXfXfXfXfXfXfXfXfXfXfXfXfXfXfX  :.-X#X%X=X=Xo fXfXfXfXfX. F G.%X*XF.-.%XD fXfXfXfXfXfXfXfXfXfXfXfXfXfXfXfXfXfXfXfXfXfX",
"fXfXfXfXfXfXfXfXfXfXfXfXfXfXfXfXfXfXfXfX  V.;X[.A.T.}.  fXfXfXfXfXfX# *.-X^.>.-.-XJ fXfXfXfXfXfXfXfXfXfXfXfXfXfXfXfXfXfXfXfXfXfX",
"fXfXfXfXfXfXfXfXfXfXfXfXfXfXfXfXfXfXfXfX  ,.-XA.:.E H & fXfXfXfXfXfXfX8 S.T.Z.-.V.9 fXfXfXfXfXfXfXfXfXfXfXfXfXfXfXfXfXfXfXfXfXfX",
"fXfXfXfXfXfXfXfXfXfXfXfXfXfXfXfXfXfXfXfX  >.&XK &X:.  fXfXfXfXfXfXfXfXfX  %X*X;.  ) fXfXfXfXfXfXfXfXfXfXfXfXfXfXfXfXfXfXfXfXfXfX",
"fXfXfXfXfXfXfXfXfXfXfXfXfXfXfXfXfXfXfX% P _.$X;.G h fXfXfXfXfXfXfXfXfXfX  !._.:.  fXfXfXfXfXfXfXfXfXfXfXfXfXfXfXfXfXfXfXfXfXfXfX",
"fXfXfXfXfXfXfXfXfXfXfXfXfXfXfXfXfXfXw   ^.*X^.F o fXfXfXfXfXfXfXfXfXfXfX  W.`.Z.  fXfXfXfXfXfXfXfXfXfXfXfXfXfXfXfXfXfXfXfXfXfXfX",
"fXfXfXfXfXfXfXfXfXfXfXfXfXfXfXfXfXfXe   %X}.E   fXfXfXfXfXfXfXfXfXfXfXfX  *X-XP.  ) fXfXfXfXfXfXfXfXfXfXfXfXfXfXfXfXfXfXfXfXfXfX",
"fXfXfXfXfXfXfXfXfXfXfXfXfXfXfXfXfXfX=.oX-XJ X fXfXfXfXfXfXfXfXfXfXfXfXfXo 3XY.s.k.6   fXfXfXfXfXfXfXfXfXfXfXfXfXfXfXfXfXfXfXfXfX",
"fXfXfXfXfXfXfXfXfXfXfXfXfXfXfXfXfX$ ;.<X.XH p fXfXfXfXfXfXfXfXfXfXfXfXfXfXC g.7X8.S { | ( fXfXfXfXfXfXfXfXfXfXfXfXfXfXfXfXfXfXfX",
"fXfXfXfXfXfXfXfXfXfXfXfXfXfXfXfX` u Z z.l.n.p.. ( fXfXfXfXfXfXfXfXfXfXfXfX   .pXl qXaXsXo & fXfXfXfXfXfXfXfXfXfXfXfXfXfXfXfXfXfX",
"fXfXfXfXfXfXfXfXfXfXfXfXfXfXfXfX  iXq.z dXg.S pX[ fXfXfXfXfXfXfXfXfXfXfXfXfXfXfX' ' 9X3.' fXfXfXfXfXfXfXfXfXfXfXfXfXfXfXfXfXfXfX",
"fXfXfXfXfXfXfXfXfXfXfXfXfXfXfXfXfXwXfXfXfXfXfXfXfXfXfXfXfXfXfXfXfXfXfXfXfXfXfXfXfXfXfXfXfXfXfXfXfXfXfXfXfXfXfXfXfXfXfXfXfXfXfXfX",
"fXfXfXfXfXfXfXfXfXfXfXfXfXfXfXfXfXfXfXfXfXfXfXfXfXfXfXfXfXfXfXfXfXfXfXfXfXfXfXfXfXfXfXfXfXfXfXfXfXfXfXfXfXfXfXfXfXfXfXfXfXfXfXfX",
"fXfXfXfXfXfXfXfXfXfXfXfXfXfXfXfXfXfXfXfXfXfXfXfXfXfXfXfXfXfXfXfXfXfXfXfXfXfXfXfXfXfXfXfXfXfXfXfXfXfXfXfXfXfXfXfXfXfXfXfXfXfXfXfX",
"fXfXfXfXfXfXfXfXfXfXfXfXfXfXfXfXfXfXfXfXfXfXfXfXfXfXfXfXfXfXfXfXfXfXfXfXfXfXfXfXfXfXfXfXfXfXfXfXfXfXfXfXfXfXfXfXfXfXfXfXfXfXfXfX",
"fXfXfXfXfXfXfXfXfXfXfXfXfXfXfXfXfXfXfXfXfXfXfXfXfXfXfXfXfXfXfXfXfXfXfXfXfXfXfXfXfXfXfXfXfXfXfXfXfXfXfXfXfXfXfXfXfXfXfXfXfXfXfXfX",
"fXfXfXfXfXfXfXfXfXfXfXfXfXfXfXfXfXfXfXfXfXfXfXfXfXfXfXfXfXfXfXfXfXfXfXfXfXfXfXfXfXfXfXfXfXfXfXfXfXfXfXfXfXfXfXfXfXfXfXfXfXfXfXfX"
};
