/* XPM */
static const char *Enemy[] = {
/* columns rows colors chars-per-pixel */
"64 64 232 2 ",
"   c #050303",
".  c #0A0503",
"X  c #0A0905",
"o  c #070408",
"O  c #130A06",
"+  c #160D09",
"@  c #15140B",
"#  c #141414",
"$  c #1A1C1C",
"%  c #1F1C14",
"&  c #0E1112",
"*  c #27150A",
"=  c #341A0C",
"-  c #251E18",
";  c #301C11",
":  c #1A2710",
">  c #2D2219",
",  c #282019",
"<  c #34241A",
"1  c #39261B",
"2  c #392918",
"3  c #293A1B",
"4  c #3C361D",
"5  c #362C0E",
"6  c #221F20",
"7  c #2D2E2D",
"8  c #252527",
"9  c #3E2A21",
"0  c #383020",
"q  c #353534",
"w  c #3A3939",
"e  c #2F3030",
"r  c #421F0E",
"t  c #422C1C",
"y  c #482614",
"u  c #57361B",
"i  c #4E2A15",
"p  c #693C1C",
"a  c #723719",
"s  c #492D22",
"d  c #452D22",
"f  c #543A2A",
"g  c #583626",
"h  c #413E3C",
"j  c #443328",
"k  c #643B2C",
"l  c #673C25",
"z  c #2D4217",
"x  c #3C571B",
"c  c #364615",
"v  c #3E5227",
"b  c #464617",
"n  c #5D4A1C",
"m  c #58581D",
"M  c #744E1B",
"N  c #4A631B",
"B  c #475626",
"V  c #5B5125",
"C  c #6B4228",
"Z  c #7C4626",
"A  c #71562D",
"S  c #50722A",
"D  c #746B2D",
"F  c #474947",
"G  c #52524E",
"H  c #665448",
"J  c #695B53",
"K  c #5D605F",
"L  c #716257",
"P  c #5F6161",
"I  c #696B6A",
"U  c #6E7172",
"Y  c #747877",
"T  c #777977",
"R  c #716B67",
"E  c #8B3D19",
"W  c #85481D",
"Q  c #B64619",
"!  c #B74A1C",
"~  c #A1561D",
"^  c #B8561C",
"/  c #AD4A1A",
"(  c #884B25",
")  c #934F25",
"_  c #875725",
"`  c #9B542A",
"'  c #985527",
"]  c #8C5C39",
"[  c #935931",
"{  c #A65928",
"}  c #BD5421",
"|  c #9F6729",
" . c #956832",
".. c #A96528",
"X. c #B76A2B",
"o. c #AE6831",
"O. c #BB7530",
"+. c #C7521B",
"@. c #D5591E",
"#. c #C14D1B",
"$. c #E55E1E",
"%. c #CE5B20",
"&. c #E25F20",
"*. c #C76D2D",
"=. c #DC6220",
"-. c #CA742A",
";. c #D57927",
":. c #C77833",
">. c #D57C34",
",. c #D66E3D",
"<. c #E86726",
"1. c #E47222",
"2. c #866445",
"3. c #937944",
"4. c #A86F4C",
"5. c #847E79",
"6. c #C97649",
"7. c #D77545",
"8. c #E37942",
"9. c #5C8428",
"0. c #648B27",
"q. c #628734",
"w. c #77952A",
"e. c #7FB735",
"r. c #77A931",
"t. c #7B8179",
"y. c #989A2C",
"u. c #8D8B32",
"i. c #B39526",
"p. c #84A926",
"a. c #98AB2A",
"s. c #87B337",
"d. c #94B030",
"f. c #BCA824",
"g. c #B1B534",
"h. c #CE8C30",
"j. c #DC8234",
"k. c #D88835",
"l. c #D79833",
"z. c #D28821",
"x. c #E68C35",
"c. c #E98B35",
"v. c #E48936",
"b. c #EA9435",
"n. c #EB9935",
"m. c #E89938",
"M. c #D5AA2F",
"N. c #EDA335",
"B. c #EAA738",
"V. c #F0AB38",
"C. c #ECB439",
"Z. c #F3B439",
"A. c #F4BB3A",
"S. c #F3B837",
"D. c #9DCC2B",
"F. c #97D82E",
"G. c #89CF33",
"H. c #8ED333",
"J. c #96D636",
"K. c #92C831",
"L. c #A6D72B",
"P. c #B1DE28",
"I. c #A7CC2F",
"U. c #A6E22D",
"Y. c #B6EC2C",
"T. c #B7EA32",
"R. c #CFD52F",
"E. c #F7C43A",
"W. c #F8C43A",
"Q. c #F8C437",
"!. c #C3EE29",
"~. c #C4F327",
"^. c #C3F32A",
"/. c #C4EC33",
"(. c #83807D",
"). c #9AA752",
"_. c #C9875E",
"`. c #ED915D",
"'. c #F18A51",
"]. c #D1A849",
"[. c #ECAC48",
"{. c #F3BA41",
"}. c #E9B555",
"|. c #D18C61",
" X c #D49165",
".X c #EA9F6D",
"XX c #F29863",
"oX c #EFA06F",
"OX c #F1A370",
"+X c #F2A26E",
"@X c #9ACD49",
"#X c #AEDB4D",
"$X c #B2D553",
"%X c #CDDB5E",
"&X c #D7C549",
"*X c #F3C955",
"=X c #F6D355",
"-X c #C9EA4B",
";X c #D9CF76",
":X c #DBD773",
">X c #F6D16C",
",X c #EFD570",
"<X c #D8E468",
"1X c #FAE56E",
"2X c #EBEE7D",
"3X c #F9E572",
"4X c #EFF27A",
"5X c #7F8480",
"6X c #8A8C8C",
"7X c #868786",
"8X c #8E9292",
"9X c #959998",
"0X c #8C908F",
"qX c #9EA1A1",
"wX c #A9ADAE",
"eX c #A3A7A7",
"rX c #ACB0B0",
"tX c #B1B6B5",
"yX c #B5BABA",
"uX c #B8BDBC",
"iX c #B2B9B6",
"pX c #F9F286",
"aX c #F8EE84",
"sX c #BDC2C2",
"dX c #C1C6C5",
"fX c #C6CBCB",
"gX c #C8CECE",
"hX c #CFD5D5",
"jX c #D0D6D6",
"kX c #D3D9D9",
"lX c #D2D8D7",
"zX c #C9D0CF",
/* pixels */
"hXhXhXhXhXhXhXhXhXhXhXhXhXhXhXhXhXhXhXhXhXhXhXhXhXhXhXhXhXhXhXhXhXhXhXhXhXhXhXhXhXhXhXhXhXhXhXhXhXhXhXhXhXhXhXhXhXhXhXhXhXhXhXhX",
"hXhXhXhXhXhXhXhXhXhXhXhXhXhXhXhXhXhXhXhXhXhXhXhXhXhXhXhXhXhXhXhXhXhXhXhXhXhXhXhXhXhXhXhXhXhXhXhXhXhXhXhXhXhXhXhXhXhXhXhXhXhXhXhX",
"hXhXhXhXhXhXhXhXhXhXhXhXhXhXhXhXhXhXhXhXhXhXhXhXhXhXhXhXhXhXhXhXhXhXhXhXhXhXhXhXhXhXhXhXhXhXhXhXhXhXhXhXhXhXhXhXhXhXhXhXhXhXhXhX",
"hXhXhXhXhXhXhXhXhXhXhXhXhXhXhXhXhXhXhXhXhXhXhXhXhXhXhXhXhXhXhXhXhXhXhXhXhXhXhXhXhXhXhXhXhXhXhXhXhXhXhXhXhXhXhXhXhXhXhXhXhXhXhXhX",
"hXhXhXhXhXhXhXhXhXhXhXhXhXhXhXhXhXhXhXhXhXhXhXhXhXhXhXhXhXhXhXhXhXhXhXhXhXhXhXhXhXhXhXhXhXhXhXhXhXhXhXhXhXhXhXhXhXhXhXhXhXhXhXhX",
"hXhXhXhXhXhXhXhXhXhXhXhXhXhXhXhXhXhXhXhXhXhXhXhXhXhXhXhXhXhXhXhXhXhXhXhXhXhXhXhXhXhXhXhXhXhXhXhXhXhXhXhXhXhXhXhXhXhXhXhXhXhXhXhX",
"hXhXhXhXhXhXhXhXhXhXhXhXhXhXhXhXhXhXhXhXhXhXhXhXhXhXhXhXhXhXhXhXhXhXhXhXhXhXhXhXhXhXhXhXhXhXhXhXhXhXhXhXhXhXhXhXhXhXhXhXhXhXhXhX",
"hXhXhXhXhXhXhXhXhXhXhXhXhXhXhXhXhXhXhXhXhXhXhXhXhXhXhXhXhXhXhXhXhXhXhXhXhXhXhXhXhXhXhXhXhXhXhXhXhXhXhXhXhXhXhXhXhXhXhXhXhXhXhXhX",
"hXhXhXhXhXhXhXhXhXhXhXhXhXhXhXhXhXhXhXhXhXhXhXhXhXhXhXhXhXhXhXhXhXhXhXhXhXhXhXhXhXhXhXhXhXhXhXhXhXhXhXhXhXhXhXhXhXhXhXhXhXhXhXhX",
"hXhXhXhXhXhXhXhXhXhXhXhXhXhXhXhXhXhXhXhXhXhXhXhXhXhXhXhXhXhXhXhXhXhXhXhXhXhXhXhXhXhXhXhXhXhXhXhXhXhXhXhXhXhXhXhXhXhXhXhXhXhXhXhX",
"hXhXhXhXhXhXhXhXhXhXhXhXhXhXhXhXhXhXhXhXhXhXhXhXhXhXhXhXhXhXhXhXhXhXhXhXhXhXhXhXhXhXhXhXhXhXhXhXhXhXhXhXhXhXhXhXhXhXhXhXhXhXhXhX",
"hXhXhXhXhXhXhXhXhXhXhXhXhXhXhXhXhXhXhXhXhXhXhXhXhXhXhXhXhXhXhXhXhXhXhXhXhXhXhXhXhXhXhXhXhXhXhXhXhXhXhXhXhXhXhXhXhXhXhXhXhXhXhXhX",
"hXhXhXhXhXhXhXhXhXhXhXhXhXhXhXhXhXhXhXhXhXjXlXlXjXhXhXhXhXhXhXhXhXhXhXhXhXhXhXhXhXhXhXhXhXhXhXhXhXhXhXhXhXhXhXhXhXhXhXhXhXhXhXhX",
"hXhXhXhXhXhXhXhXhXhXhXhXhXhXhXhXhXhXhXjXhX7XI I eXjXhXhXjXjXjXjXjXhXhXhXhXhXhXhXhXhXhXhXhXhXhXhXhXhXhXhXhXhXhXhXhXhXhXhXhXhXhXhX",
"hXhXhXhXhXhXhXhXhXhXhXhXhXhXhXhXhXhXhXhXsXh O O R gXhXhXfXfXfXfXgXhXhXhXhXhXhXhXhXhXhXhXhXhXhXhXhXhXhXhXhXhXhXhXhXhXhXhXhXhXhXhX",
"hXhXhXhXhXhXhXhXhXhXhXhXhXhXhXhXhXjXlX7Xq 4._._.H w yXwXq 7 7 7 I jXjXhXhXhXhXhXhXhXhXhXhXhXhXhXhXhXhXhXhXhXhXhXhXhXhXhXhXhXhXhX",
"hXhXhXhXhXhXhXhXhXhXhXhXhXhXjXjXjXfXeXL r 6.`.`.[ y 7X5.r y t t H 9XsXjXhXhXhXhXhXhXhXhXhXhXhXhXhXhXhXhXhXhXhXhXhXhXhXhXhXhXhXhX",
"hXhXhXhXhXhXhXhXhXhXhXhXhXjXjXjXlXrX$ a <.#.! ! @.@.; y =.'.OXOX4.@ 6XkXhXhXjXjXjXlXjXjXhXhXhXhXhXhXhXhXhXhXhXhXhXhXhXhXhXhXhXhX",
"hXhXhXhXhXhXhXhXhXhXhXhXhXjXjXjXlXwX# 2 _ i.f.f.-.+.E ~ M.R.&X3.2.2.L U fXeXP P P K 8XjXhXhXhXhXhXhXhXhXhXhXhXhXhXhXhXhXhXhXhXhX",
"hXhXhXhXhXhXhXhXhXhXhXhXhXjXgXdXdXqX# : x D.^.^.i./ =.z.!.^.Y.N D .Xf # rX(.+ + + + J dXhXhXhXhXhXhXhXhXhXhXhXhXhXhXhXhXhXhXhXhX",
"hXhXhXhXhXhXhXhXhXhXhXhXjXkX0X8 8 6 o N L.F.F.F.s.w.w.r.F.F.F.L.p.B % o 8 l +.6.|.|.2.7 eXkXhXhXhXhXhXhXhXhXhXhXhXhXhXhXhXhXhXhX",
"hXhXhXhXhXhXhXhXhXhXhXjXfX9XL = 5 z z w.R.I.g.g.d.s.@X@X#XJ.H.Y.p.: c b c M &.8.`.XX4.f 5.eXhXhXhXhXhXhXhXhXhXhXhXhXhXhXhXhXhXhX",
"hXhXhXhXhXhXhXhXhXhXhXjXiX$ y / a.G.G.g.x.c.c.x.B.E.3XpXpX$XH.H.0.X w.^.^.f.! ! #.<.'..Xs e fXjXhXhXhXhXhXhXhXhXhXhXhXhXhXhXhXhX",
"hXhXhXhXhXhXhXhXhXhXhXjXtX# b y.e.s.g.l.c.c.b.V.A.E.=X*X}.].M.%X$X9.s.U.^.a.n ^ @.+.8.OXt 7 fXjXhXhXhXhXhXhXhXhXhXhXhXhXhXhXhXhX",
"hXhXhXhXhXhXhXhXhXhXhXjXtX# x H.r.u.k.c.c.c.n.E.W.W.W.Z.b.c.m.3X<XJ.H.H.Y.p.z ..1.^ >.XXt 7 fXjXhXhXhXhXhXhXhXhXhXhXhXhXhXhXhXhX",
"hXhXhXhXhXhXhXhXhXhXhXlXiX# x H.u.o.v.c.c.c.n.E.W.W.W.E.A.A.A.m.}.2X#XG.F.w.3 a.R.R.M.<.r e fXlXhXhXhXhXhXhXhXhXhXhXhXhXhXhXhXhX",
"hXhXhXhXhXhXhXhXhXhXhXeXt.v S a.O.*.c.c.c.n.B.E.W.E.W.W.W.W.E.N.[.>X%X#XH.e.0.I.~.~.f.~ = - 7XrXjXhXhXhXhXhXhXhXhXhXhXhXhXhXhXhX",
"hXhXhXhXhXhXhXhXhXhXhXF : e.a.{ >.c.c.c.c.Z.W.W.W.W.W.W.W.W.W.W.Z.x.>X2XJ.L.^.~.~.~.r.3 @ . . I jXhXhXhXhXhXhXhXhXhXhXhXhXhXhXhX",
"hXhXhXhXhXhXhXhXhXjXhXF @ r.u.{ >.j.[ O.c.Z.W.W.W.W.W.W.W.W.W.E.A.V.[.}.<X-XL.Y.~.~.r.3 W { 4.L G yXlXhXhXhXhXhXhXhXhXhXhXhXhXhX",
"hXhXhXhXhXhXhXhXhXfXtXG 3 q.u.X.j.>.( o.c.Z.W.W.W.W.W.W.W.A.C.Q.W.E.N.m.3X<XJ.Y.!.P.w.b } <.XX] > 9XsXhXhXhXhXhXhXhXhXhXhXhXhXhX",
"hXhXhXhXhXhXhXhXlX8X$ q.s.| O.v.c.x.j.v.c.Z.W.E.W.W.W.W.W.h.X.C.W.E.W.A.m.}.2X-XP.B M =.#.! } 6. Xj F gXhXhXhXhXhXhXhXhXhXhXhXhX",
"hXhXhXhXhXhXhXhXlX7XX 0.K...*.c.c.c.c.c.c.Z.W.E.W.W.W.W.W.l.h.A.W.W.W.E.N.*XpX-XL.0.D ~ ^ +.Q 7.oX1 q gXhXhXhXhXhXhXhXhXhXhXhXhX",
"hXhXhXhXhXhXhXhXlX7XX 0.K...*.c.c.c.c.c.c.Z.W.W.W.W.W.W.E.E.E.W.W.W.W.W.Q.=XaX#XJ.Y.p.c ^ $.Q 7..X1 q gXjXhXhXhXhXhXhXhXhXhXhXhX",
"hXhXhXhXhXhXhXhXlX7Xo S r...*.c.c.c.c.c.c.S.W.W.W.W.W.W.W.W.E.E.E.W.W.W.W.{.[.:X<XU.D.d.;.$.Q 7..X1 w gXjXhXhXhXhXhXhXhXhXhXhXhX",
"hXhXhXhXhXhXhXhXlX9X7 S q...*.c.c.c.c.c.c.V.A.W.W.W.W.W.W.W.E.E.E.E.W.W.W.V.x.>X2XJ.U.!.z.+.Q ,.`.< q fXjXhXhXhXhXhXhXhXhXhXhXhX",
"hXhXhXhXhXhXhXhXhXhXdXF @ ` *.c.c.c.c.c.c.c.n.E.W.W.W.W.W.W.W.E.E.W.W.W.W.V.x.>X2XJ.U.!.m i / @.<.= q fXhXhXhXhXhXhXhXhXhXhXhXhX",
"hXhXhXhXhXhXhXhXhXhXjX6XJ u ) -.v.c.x.:.o.j.n.E.E.W.W.W.W.W.W.E.C.l.C.W.E.A.B.,X4XT.D.y.V s a E W * w fXjXhXhXhXhXhXhXhXhXhXhXhX",
"hXhXhXhXhXhXhXhXhXhXhXlXyX, i { >.x.c.o.C :.n.A.E.E.W.W.W.W.W.W.B...l.W.E.Q.E.3X4X/.y.g k g > - - X q dXhXhXhXhXhXhXhXhXhXhXhXhX",
"hXhXhXhXhXhXhXhXhXhXhXjXgXwXR ; ) *.c.j.:.v.c.b.V.Q.W.E.W.W.W.W.A.B.A.W.W.W.E.3X:Xm 4 1 ( ` ) g - X # q 6XlXhXhXhXhXhXhXhXhXhXhX",
"hXhXhXhXhXhXhXhXhXhXhXhXjXkX8Xq C ) o.:.j.x.c.c.N.A.E.E.W.W.W.W.W.W.W.W.W.W.E.1X;X2 , 1 Z ) ) l 1 ; *   Y lXhXhXhXhXhXhXhXhXhXhX",
"hXhXhXhXhXhXhXhXhXhXhXhXhXhXhXdXh . X u X.j.c.c.x.b.A.E.W.W.W.W.W.W.W.W.W.W.E.3X;X0 9 k 1 > > s k ` Z . Y lXhXhXhXhXhXhXhXhXhXhX",
"hXhXhXhXhXhXhXhXhXhXhXhXhXhXjXhX6XU U H u p ( *.>.c.N.V.E.W.W.W.W.W.W.W.W.W.E.1X;X0 < s l l s g k { ( . Y lXhXhXhXhXhXhXhXhXhXhX",
"hXhXhXhXhXhXhXhXhXhXhXhXhXhXhXhXlXlXkXT # & < ` O.j.v.b.A.W.W.W.W.W.W.W.W.W.E.3X;X0 - < ( ` k k l ` Z . Y lXhXhXhXhXhXhXhXhXhXhX",
"hXhXhXhXhXhXhXhXhXhXhXhXhXhXhXhXhXhXjXsXwXwX6X; * = ` -.n.Z.W.W.W.W.W.W.W.W.E.1X;X0 u ) Z k 1 l ` u >   Y lXhXhXhXhXhXhXhXhXhXhX",
"hXhXhXhXhXhXhXhXhXhXhXhXhXhXhXhXhXhXhXjXlXkXtXF w h C ( ..l.Z.Z.S.W.W.W.W.W.W.1X;X0 u ` l g s p ( C t   Y lXhXhXhXhXhXhXhXhXhXhX",
"hXhXhXhXhXhXhXhXhXhXhXhXhXhXhXhXhXhXhXhXhXjXhXhXhXsX7 . X _ b.c.N.W.W.W.W.W.W.1X;X0 d k 1 t { l < O.o.X Y lXhXhXhXhXhXhXhXhXhXhX",
"hXhXhXhXhXhXhXhXhXhXhXhXhXhXhXhXhXhXhXhXhXhXhXhXjXzX6XT T H p p ' N.N.V.E.W.E.3X;Xf s 9 > t { p > :.X.X Y lXhXhXhXhXhXhXhXhXhXhX",
"hXhXhXhXhXhXhXhXhXhXhXhXhXhXhXhXhXhXhXhXhXhXhXhXhXjXkXkXkXI # # g >.>.k.Z.E.E.1X:XA f , , t ` l < :.X.X Y lXhXhXhXhXhXhXhXhXhXhX",
"hXhXhXhXhXhXhXhXhXhXhXhXhXhXhXhXhXhXhXhXhXhXhXhXhXhXjXjXhXsXtXiX7X* * y k.n.n.{.=X,X).g < - < s k >.X.. Y lXhXhXhXhXhXhXhXhXhXhX",
"hXhXhXhXhXhXhXhXhXhXhXhXhXhXhXhXhXhXhXhXhXhXhXhXhXhXhXhXhXjXjXkXeXF F F [ { ..l.{.>X]. .A A M _  .| ] F 8XlXhXhXhXhXhXhXhXhXhXhX",
"hXhXhXhXhXhXhXhXhXhXhXhXhXhXhXhXhXhXhXhXhXhXhXhXhXhXhXhXhXhXhXjXhXhXhXyX- o O | c.x.B.E.E.E.E.E.C.2 w fXhXhXhXhXhXhXhXhXhXhXhXhX",
"hXhXhXhXhXhXhXhXhXhXhXhXhXhXhXhXhXhXhXhXhXhXhXhXhXhXhXhXhXhXhXhXhXhXhXfX8X7X7XA u u u n n n n n V T 9XhXhXhXhXhXhXhXhXhXhXhXhXhX",
"hXhXhXhXhXhXhXhXhXhXhXhXhXhXhXhXhXhXhXhXhXhXhXhXhXhXhXhXhXhXhXhXhXhXhXhXlXlXjXK $ $ $ $ $ $ $ $ 8 rXkXhXhXhXhXhXhXhXhXhXhXhXhXhX",
"hXhXhXhXhXhXhXhXhXhXhXhXhXhXhXhXhXhXhXhXhXhXhXhXhXhXhXhXhXhXhXhXhXhXhXhXhXhXhXsXuXuXuXuXuXuXuXuXuXzXhXhXhXhXhXhXhXhXhXhXhXhXhXhX",
"hXhXhXhXhXhXhXhXhXhXhXhXhXhXhXhXhXhXhXhXhXhXhXhXhXhXhXhXhXhXhXhXhXhXhXhXhXhXhXhXjXjXjXjXjXjXjXjXjXhXhXhXhXhXhXhXhXhXhXhXhXhXhXhX",
"hXhXhXhXhXhXhXhXhXhXhXhXhXhXhXhXhXhXhXhXhXhXhXhXhXhXhXhXhXhXhXhXhXhXhXhXhXhXhXhXhXhXhXhXhXhXhXhXhXhXhXhXhXhXhXhXhXhXhXhXhXhXhXhX",
"hXhXhXhXhXhXhXhXhXhXhXhXhXhXhXhXhXhXhXhXhXhXhXhXhXhXhXhXhXhXhXhXhXhXhXhXhXhXhXhXhXhXhXhXhXhXhXhXhXhXhXhXhXhXhXhXhXhXhXhXhXhXhXhX",
"hXhXhXhXhXhXhXhXhXhXhXhXhXhXhXhXhXhXhXhXhXhXhXhXhXhXhXhXhXhXhXhXhXhXhXhXhXhXhXhXhXhXhXhXhXhXhXhXhXhXhXhXhXhXhXhXhXhXhXhXhXhXhXhX",
"hXhXhXhXhXhXhXhXhXhXhXhXhXhXhXhXhXhXhXhXhXhXhXhXhXhXhXhXhXhXhXhXhXhXhXhXhXhXhXhXhXhXhXhXhXhXhXhXhXhXhXhXhXhXhXhXhXhXhXhXhXhXhXhX",
"hXhXhXhXhXhXhXhXhXhXhXhXhXhXhXhXhXhXhXhXhXhXhXhXhXhXhXhXhXhXhXhXhXhXhXhXhXhXhXhXhXhXhXhXhXhXhXhXhXhXhXhXhXhXhXhXhXhXhXhXhXhXhXhX",
"hXhXhXhXhXhXhXhXhXhXhXhXhXhXhXhXhXhXhXhXhXhXhXhXhXhXhXhXhXhXhXhXhXhXhXhXhXhXhXhXhXhXhXhXhXhXhXhXhXhXhXhXhXhXhXhXhXhXhXhXhXhXhXhX",
"hXhXhXhXhXhXhXhXhXhXhXhXhXhXhXhXhXhXhXhXhXhXhXhXhXhXhXhXhXhXhXhXhXhXhXhXhXhXhXhXhXhXhXhXhXhXhXhXhXhXhXhXhXhXhXhXhXhXhXhXhXhXhXhX",
"hXhXhXhXhXhXhXhXhXhXhXhXhXhXhXhXhXhXhXhXhXhXhXhXhXhXhXhXhXhXhXhXhXhXhXhXhXhXhXhXhXhXhXhXhXhXhXhXhXhXhXhXhXhXhXhXhXhXhXhXhXhXhXhX",
"hXhXhXhXhXhXhXhXhXhXhXhXhXhXhXhXhXhXhXhXhXhXhXhXhXhXhXhXhXhXhXhXhXhXhXhXhXhXhXhXhXhXhXhXhXhXhXhXhXhXhXhXhXhXhXhXhXhXhXhXhXhXhXhX"
};
