/* XPM */
static char *ea6e2339b3b24ac7da58e493f0ab1a0fjY3wVaHFHpN7maRZ[] = {
/* columns rows colors chars-per-pixel */
"64 64 211 2 ",
"  c #B1B1B1",
".  c #D70000",
"X  c #DB0100",
"o  c #DE0A00",
"O  c #DE1500",
"+  c #E00000",
"@  c #E31500",
"#  c #E31C00",
"$  c #DF2200",
"%  c #E42400",
"&  c #EB2B00",
"*  c #E72800",
"=  c #EC3C00",
"-  c #E83500",
";  c #9B4500",
":  c #954B00",
">  c #975302",
",  c #9D5301",
"<  c #9C5A09",
"1  c #AA4300",
"2  c #B74D00",
"3  c #A15300",
"4  c #A45F0D",
"5  c #AA5B05",
"6  c #BB5200",
"7  c #BE5D00",
"8  c #B45B00",
"9  c #9C6017",
"0  c #A8600C",
"q  c #BA6200",
"w  c #B76A08",
"e  c #BF7004",
"r  c #A46112",
"t  c #A7681C",
"y  c #BA6E13",
"u  c #B6721D",
"i  c #A46B26",
"p  c #A76B26",
"a  c #AF7127",
"s  c #B97628",
"d  c #A76F31",
"f  c #AC7535",
"g  c #B97C36",
"h  c #C15E00",
"j  c #ED4400",
"k  c #F24C00",
"l  c #EF5600",
"z  c #F25B00",
"x  c #F15300",
"c  c #C36200",
"v  c #CC6700",
"b  c #C66A00",
"n  c #CC6A01",
"m  c #CF6C08",
"M  c #D26D02",
"N  c #D86A00",
"B  c #CD7101",
"V  c #CB7607",
"C  c #D47301",
"Z  c #DB7500",
"A  c #DC7A01",
"S  c #D4730B",
"D  c #DB7C0B",
"F  c #D77C00",
"G  c #C67819",
"H  c #D67C15",
"J  c #C26B1C",
"K  c #F46700",
"L  c #E37C01",
"P  c #EA7D00",
"I  c #F67301",
"U  c #F77F00",
"Y  c #C37826",
"T  c #CB7C23",
"R  c #C77E28",
"E  c #C07F3B",
"W  c #B87F41",
"Q  c #BA823D",
"!  c #DE8502",
"~  c #DB860D",
"^  c #D98416",
"/  c #E58201",
"(  c #EB8400",
")  c #EC8A00",
"_  c #E48809",
"`  c #F58400",
"'  c #F98400",
"]  c #F38B00",
"[  c #FB8D00",
"{  c #EF9107",
"}  c #F39500",
"|  c #FC9400",
" . c #FE9B01",
".. c #FD9B0A",
"X. c #F79A06",
"o. c #F18F14",
"O. c #ED9317",
"+. c #F99916",
"@. c #E48313",
"#. c #FEA400",
"$. c #FFAB00",
"%. c #FEA40B",
"&. c #FFAE08",
"*. c #FFB300",
"=. c #FFB901",
"-. c #FFB50F",
";. c #FEA115",
":. c #FEAF13",
">. c #FFB716",
",. c #FFBC1B",
"<. c #FFBA16",
"1. c #CC812A",
"2. c #D58626",
"3. c #C5863F",
"4. c #C8873A",
"5. c #DC8A30",
"6. c #E48F24",
"7. c #E38C2D",
"8. c #EC9628",
"9. c #EA9D3C",
"0. c #F69D2C",
"q. c #FFAC20",
"w. c #FDAD2C",
"e. c #FBA12F",
"r. c #FFB32A",
"t. c #FFBB2C",
"y. c #FFBB24",
"u. c #FFAF37",
"i. c #FFBC33",
"p. c #FFB43A",
"a. c #FFBA39",
"s. c #FFC100",
"d. c #FFCD02",
"f. c #FFC61A",
"g. c #FFC721",
"h. c #FFC53E",
"j. c #FFC231",
"k. c #B68246",
"l. c #B3834E",
"z. c #BC8340",
"x. c #B58551",
"c. c #B88E5E",
"v. c #BE8B55",
"b. c #BC9258",
"n. c #BC9163",
"m. c #BE996E",
"M. c #BC966A",
"N. c #C38944",
"B. c #D08F4A",
"V. c #D69545",
"C. c #C08F58",
"Z. c #C2925A",
"A. c #D29659",
"S. c #D7A056",
"D. c #FFB441",
"F. c #E3A253",
"G. c #FFBA52",
"H. c #C59561",
"J. c #C39B6C",
"K. c #C99963",
"L. c #C29D74",
"P. c #DCAA6B",
"I. c #D9A66C",
"U. c #C4A176",
"Y. c #C4A37C",
"T. c #CDA679",
"R. c #C8A87F",
"E. c #DEB27E",
"W. c #E4AD62",
"Q. c #E1AE70",
"!. c #E8B879",
"~. c #F0B770",
"^. c #FFC44B",
"/. c #FFC649",
"(. c #FFCC54",
"). c #FFC559",
"_. c #FFCA65",
"`. c #FFCB6C",
"'. c #FDC466",
"]. c #FFCC76",
"[. c #FEC879",
"{. c #FFD275",
"}. c #FFD47F",
"|. c #C8AA88",
" X c #D1AF89",
".X c #CDB08D",
"XX c #C8AE92",
"oX c #CCB192",
"OX c #D3B795",
"+X c #D8B792",
"@X c #DAB994",
"#X c #D9B58E",
"$X c #E7BE80",
"%X c #D4BEA8",
"&X c #D3BBA1",
"*X c #E8C084",
"=X c #FFCF86",
"-X c #F9C887",
";X c #FFD483",
":X c #FFD48D",
">X c #FFD98C",
",X c #FFD994",
"<X c #FFDB9C",
"1X c #FCD395",
"2X c #FFE09B",
"3X c #FFDEA2",
"4X c #FDDFA8",
"5X c #FFE1A5",
"6X c #FFE3AC",
"7X c #FFE8AC",
"8X c #FFE5B2",
/* pixels */
"                                                                                                                                ",
"                                                                                                                                ",
"                                                                                                                                ",
"                                                                                                                                ",
"                                                                                                                                ",
"                                                                                                                                ",
"                                                                                                                                ",
"                                                                                                                                ",
"                                                                                                                                ",
"                                                                                                                                ",
"                                                                                                                                ",
"                                                                                                                                ",
"                                                                                                                                ",
"                                                                                                                                ",
"                                                                                                                                ",
"                                                                    &X                                                          ",
"                                                  @XJ.k.p r , , 3 4 a W T.                                                      ",
"                                              n.g B.!.*X*X$X*XW._ Z S S J a c.                                                  ",
"                                            Z.3.1.F.:X<X2X2X5X].;.[ ' P N c y C..X                                              ",
"                                        OXp s ~.=X<X<X:X[.).G.u...| | | | | O.T r U.                                            ",
"                                       Xg B.!.<X5X5X3X3X;X^.a.r.%. . . .| | ..O.2.s b.                                          ",
"                                    .Xz.4.[.7X8X6X6X5X8X>X/.y.>.*.$.$.#. .| | ..e.H u U.                                        ",
"                                    i 3.:X:X<X6X6X6X6X6X;X/.<.*.*.*.*.*.#. .) ( ] 0.V.t Y.                                      ",
"                                  L.3.W.5X3X5X6X6X8X6X:X_./.,.*.*.*.*.*.*.#./ Z / +.8.R n.                                      ",
"                                m.Q -X<X3X6X6X6X8X6X,X(.i.i.>.*.*.*.*.*.*.*.) C C / { 9.3.x.                                    ",
"                                H.4.1X6X<X6X6X6X8X,X).g.&...#.=.*.*.*.*.*.*.X.A c b ! O.V s                                     ",
"                                I.W.4X6X<X6X8X5X>X(.f.d.| j I =.=.=.*.*.*.*.$.) b q B _ F T +X                                  ",
"                              L.!.:X<X,X,X5X5X;X^.:. .$.K X - [ [  .$.*.*.*.*.} n 7 c B D 5.K.                                  ",
"                              l.Q.=X[.`.].:X}.^.,.I O $ @ X o # O j | $.*.*.*.} b 7 c 7 M ~ g XX                                ",
"                              d P.].p.r.t.h.j.>.*.I * X . X . X % l ' #.*.*.*.} n 7 c 7 M A 5 |.                                ",
"                              i P.`.%.#.*.=.=.*.$.$.#.= . X . # | #.' | $.*.$.} n h c c N C 3 M.                                ",
"                              < P.{.%.#.t./.h.,.*.s.s.j X + X @  .=.[ |  .$.$.} M h 7 c M n ; c.                                ",
"                              > S._. .q.].,X>X^.f.$.U & @ = & % z ' | | | #.#.) n h 7 7 v v ; n.                                ",
"                              9 V.D. .p.,X6X5X{.g.' % # x | [ k X - | | |  .) C c 7 7 7 v n , m.                                ",
"                              d P._. .w.:X6X5X`.f.| z K | *.*.[ j l | | | ) A b c 7 7 7 n C 0 |.                                ",
"                              l.E.'...;.G.].`.a.-.$.$.*.=.*.=.$.| [ [ | ] A n c 7 7 h h C ~ g XX                                ",
"                              L.A.8.|  .%.w.q.%.#.$.$.$.*.$.$. .| | | | / n c h h h h h C 2.K.                                  ",
"                                N.B }  .| | | |  .#.#.#.#.#. . . .| [ P M c h h h 7 c M n G #X                                  ",
"                                C.w X. .] ` ( ] ] | | | | | | ] ] ] L n 7 h h h h 7 v A b u                                     ",
"                                L.g 9.+.] L N Z L ] [ | | | ] L C n v c 7 h h h 7 h v L G l.                                    ",
"                                  Y.E ^ o.M 6 6 c C L ( ( L Z M c 7 7 7 h h 7 7 h M S q N.%X                                    ",
"                                    f G 6.m 2 1 2 q b B n c c c c 7 h h h h 7 c v D ^ 4 U.                                      ",
"                                      Q q C M 6 8 8 7 c c h h h 7 7 7 7 7 7 h S 7.B w J.                                        ",
"                                      R.a e n m n b h h 7 7 7 h h c c c v C S H 1.s b.                                          ",
"                                        OXp 5 H D Z v c h c h c v M n v Z ) 6.Y r J.                                            ",
"                                            H.s q h M A / ( ) ) ] _ @.D n c y v.|.                                              ",
"                                              L.W s T ^ ! ! ! ! ! ~ 2.1.Y a x.%X                                                ",
"                                                  +Xv.f 4 , : : , < p k.T.                                                      ",
"                                                        oX|.                                                                    ",
"                                                                                                                                ",
"                                                                                                                                ",
"                                                                                                                                ",
"                                                                                                                                ",
"                                                                                                                                ",
"                                                                                                                                ",
"                                                                                                                                ",
"                                                                                                                                ",
"                                                                                                                                ",
"                                                                                                                                ",
"                                                                                                                                ",
"                                                                                                                                ",
"                                                                                                                                ",
"                                                                                                                                ",
"                                                                                                                                "
};
