/* XPM */
static char *result[] = {
/* columns rows colors chars-per-pixel */
"128 128 13 1 ",
"  c #460609",
". c #6B0E14",
"X c #335024",
"o c #516C34",
"O c #A6452A",
"+ c #7FA853",
"@ c #80A955",
"# c #84AD59",
"$ c #D58742",
"% c #EBB95B",
"& c #A0C471",
"* c #E5D77A",
"= c #E5D8A0",
/* pixels */
"++++++++++++++++++++++++++++++++++++++++++++++++++++++++++++++++++++++++++++++++++++++++++++++++++++++++++++++++++++++++++++++++",
"++++++++++++++++++++++++++++++++++++++++++++++++++++++++++++++++++++++++++++++++++++++++++++++++++++++++++++++++++++++++++++++++",
"++++++++++++++++++++++++++++++++++++++++++++++++++++++++++++++++++++++++++++++++++++++++++++++++++++++++++++++++++++++++++++++++",
"++++++++++++++++++++++++++++++++++++++++++++++++++++++++++++++++++++++++++++++++++++++++++++++++++++++++++++++++++++++++++++++++",
"++++++++++++++++++++++++++++++++++++++++++++++++++++++++++++++++++++++++++++++++++++++++++++++++++++++++++++++++++++++++++++++++",
"++++++++++++++++++++++++++++++++++++++++++++++++++++++++++++++++++.+++++++++++++++++++++++++++++++++++++++++++++++++++++++++++++",
"+++++++++++++++++++++++++++++++++++++++++++++&&&++++++++++++++++++.++++++++++++++++++++++.++++++++++++++++++++++++++++++++++++++",
"+++++++++++++++++++++++++++++++++++++++++++++&&&++++++++++++++++++++++++++++++++++++++++..++++++++++++++++++++++++++++++++++++++",
"+++++++++++++++++++++++++++++++++++++++++++++&&&&+++&&++++++++++++++++++++++++++++++++++.+++++++++++++++++++++++++++++++++++++++",
"++++++++++++++++++++++++++++..+++++++++++++++&&&&+&&&&+++++++++++++++++++++++++++++++++..+++++++++++++++++++++++++XXX+++++++++++",
"++++++++++++++++++++++++++++..+++++++++++++++&&&&&&&&&++++++++++++++++++++++++++++++++..++++++++++++++++++++++++++XXX+++++++++++",
"++++++++++++++++++++++++++++...++++++.+++++++&&&&&&&&+++++++....    .+++++++++++++++++..+++++++++++++++++++++++++XXXX+++++++++++",
"++++++++++++++++++++++++++++++..++++++.+++++++&&&&&++++++.           ...+++++++++++++..+++++++++++++++++++++++++XXXXX+++++++++++",
"++++++++++++++++++++++++++++++..++++++.@++++++&&&&+++++     .........   ..++++++++++...++++..+++++++++++++++++++XXXXX+++++++++++",
"++++++++++++++++++++++++++++++...+++++..+++++++++++++     ...........$.    . ++++++. .++++..+++++++++++++++oo++XXXXXX+++++++++++",
"++++++++++++++++++++++++++++++...++++++.+++++++++++.   ..............$.....   +++++  .+++..++++++++++++++++oooXXXXXX++++++++++++",
"+++++++++++++++++++++++++++++++...+++++  +++++++++    ...............$.....    +++  ..++..+++++++++++++++++oooXXXXXXXX++++++++++",
"+++++++++++++++++++++++++++++++....++++  ++++++++.   ...............$$......   .    .....++++++++++++++++++ooooXXXXXXX++++++++++",
"++++++++++++++++++++++++++++++++...++++.  ++++++  . ...............O$$O......      .....++++++++++++++++++++ooooXXXXXX++++++++++",
"++++++++++++++++++++++++++++++++....++++  #++++ . ................OO$$OOOO....    ............++++++++++++++ooooooXXX+++++++++++",
"++++++++++++++++++++++++++++++++.....+++  ++++   ................OOO$OOOOOO...   ................+++++++++++++ooooo+++++++++++++",
"+++++++++++++++++++++++++++++++++.....++.  +++  ..........OOOOOOOOOO$OOOOOO.... ...................+++++++++++++++++++++++++++++",
"++++++++++++++++++oo+++++++++++++......+.  ++  .........OOOOOOOOOOOO$OOOOOOO.........................+++++++++++++++++++++++++++",
"++++&&&&++++++&&++ooo+++++++++++++.....++. .+  ........OOO$$$$$OOOO$$OOOOOOO.....OOOOOO................+++++++++++++++++++++++++",
"++++&&&&&++++&&&&+ooo+++++++++++++ .....+.    .......OOO$$$$$$OOOOO$$OOOOOOO....OOOOOOOOO...............++++++++++++++++++++++++",
"++++&&&&&&+++&&&&+oooo++++++++++++   ...+..   .......OO$$$$$$OOOOOO$$OOOOOOOO..OOOOOOOOOOOOOO............+++++++++++++++++++++++",
"+++++&&&&&&o+&&&&+ooooo+++++++++++   ....+.   ......OO$$$$$$$OOOOO$$$OOOOOOOOOOOOOOOOOOOOOOOOOOO..........++++++++++++++++++++++",
"+++++&&&&&&&o&&&&+ooooo+++ooo++++++   .....  ......OOOOOOOOO$OOOOO$$$OOOOOOOOOOOOO$$$$$OOOOOOOOOO..........+++++++++++++++++++++",
"++++++&&&&&&&&&&&+ooooo+ooooo+++++++   ..... ......OOOOOOOOOOOOOO$$$$$$OOOOOOOOOO$$$$$$$OOOOOOOOOO.........+++++++++++++++++++++",
"++++++&&&&&&&&&&&oooooooooooo++++++    ............OOOOOOOOOOO$$$$$$$$$$$$OOOOOOO$$$$$$$$OOOOOOOOOO.........++++++++++++++++++++",
"+++++&&&&&&&&&&&&oooooooooooo+++    ..............OOOOOOOOOO$$$$$$$$$$$$$$$OOOOO$$$$$$$$$$OOOOOOOOOO........++++++++++++++++++++",
"+++++&&&&&&&&&&&&ooooooooooo+   ...............$..OOOOOOOOO$$$$$$$$$$$$$$$$$OOO$$$$$$$$$$$$$OOOOOOOOO........+++++++++++++++++++",
"+++++&&&&&&&&&&&&ooooooooo++  .................$..OOOOOOOO$$$$$$$$$$$$$$$$$$$O$$$$$$$$$$$$$$$OOOOOOOOO.......+++++++++++++++++++",
"+++++++&&&&&&&&&oooooooo++  ....................$.OOOOOOO$$$$$$$$$$$OO$$%%%%%%$$$$$$$$$$$$$$$$OOOOOOOO........++++++++++++++++++",
"++++++++&&&&&&&&oo+oo++++  ..........OOOOOOOOOOO$OOOOOOO$$$$$$$$$$OOO%%%%%%%%%%%%$$$$$$$$$$$$$$OOOOOOO........++++++++++++++++++",
"+++++++++&&&&+++++++++++. ........OOOOOOOOOOOOOO$OOOOOOO$$$$$$$$$OOO%%%%%%%%%%%%%%%$$$$$$$$$$$=$OOOOOOO.......++++++++++++++++++",
"++++++++++&&&++++++++++..........OOOOOO$$$$$$OOOO$OOOOOO$$$$$$OOOOO%%%%%$$$$$$$OOO%%%%%%$$$$$==$$OOOOOO........+++++++++++..++++",
"++++++++++++++++++++++..........OOOOOO$$$$$$$$$$O$O$$OO$$$$$OOOOOOO%$$$$$$$$$$$$$OOO%%%%%$$$==$$$OOOOOO........++++++++++..+++++",
"++++++++++++++++++++++.........OOOOOO$$$$$$$$$$OO$$$$OO$$$$%%%%%$$$$$$$$$$$$$$$$$$OOO%%%%%$=$$$$$OOOOOO........+++++++....+.++++",
"+++++++++++++++++++++......OOOOO$OOO$$$$$$$$$$$OOO$O$O$$$$%%%%%%$$$$$$==%%%%%$$$$$$OO%%%%==$$$$$$$OOOOO........+++++.....+..++++",
"+++++++++++++++++++++.....OOOOO$$OOO$$$$$$$$$$$OOO$$$$$$%%%%%%$$$$$$$====*%%%%%$$$$$OO%%==%%$$$$$$OOOOO........+++++.+.+...+++++",
"++++++++++++++++++++......OOOO$$$OOO$=$$$$$$$$OOOO$$$$$$=%%%%$$$$$$======**%%%%$$$$$OO%==%%%%$$$$$OOOOO........+++++++++++++++++",
"++++++++++++++++++++......OOOOOOOOOO$$=$$$$$$$OOOOO$$$$$=%%%%$$$$$*=======*%%%%%$$$$O=======%$$$$$OOOOO........+++++++..++++++++",
"+++++++++++++++++++.......OOOOOOO$$$$$$=$$$$$OOOOO$$$$$%=%%%$OO$$==========%%%%%$$$$O======%%$$$$$OOOOO. ......+++++++++++++++++",
"+++++++++++++++++++.......OOOOOO$$$$$$$$==$$$OOOOO$$$$%%%=%%$OO$*==========*%%%%$$$$O====%%%%%$$$$OOOO. .......+++++++++++++++++",
"+++++++++++++++++++........OOOO$$$$$$$$$$==$OOOOO$$$$$%%%=%%OOO=*==========*%%%%$$$OOO=O%%%%%%$$$OOOOO. ......++++++++++++++++++",
"++++++++++++++++++.........OOOO$$$$$$$$$OO==OOOOO$$$$%%%%==%OOO============*%%%%$$$$$OOOOO%%%%$$$OOOOO  ......++++++++++++++++++",
"++++++++++++++++++.........OOOO$$$$$$$OOOOO==OOOO$$$$%%%%%=OOO%%=========**%%%$$$$$$$$$OOOO%%%$$$OOOO.  ......++++++++++++++++++",
"++++++++++++++++++........OOOOO$$$$$$OOOOO$$=$OOO$$$$%%%%%=OOO%%======***%%%%$$$$$$$$$$$$OO%%%$$OOOO.  ......+++++++++++++++++++",
"++++++++++++++++++.......OOOOO$$$$$$OOOO%%*=*=OOO$$$%%%%%==OOO%%%==***%%%%%$$$$$$$%%$$$$$$OO%%$OOOOO   ......+++++++++++++++++++",
"++++++++++++++++++......OOOO$$$$$$$$OO$%%%=====OOO$$%%%%===OOO%%%%%%%%%%%$$$$$$$$$$%%%$$$$OO%$OOOOO   ......++++++++++++++++++++",
"++++++++++++++++++.....OOOO$$$$$$$$$$$%%%%====*OOO$$%%%===*OOO%%$$$%%$$$$$$$$$%$$$$$%%%$$$OOOOOOOO. . ......++++++++++++++++++++",
"++++++++++++++++++.....OOO$$$$$$$$$$$%%%%%%=====OO$=======*OOO$$$$$$$$$==$$$==*%$$$$$%%%$$OOOOOOO  . ......+++++++++++++++++++++",
"++++++++++++++++.......OO$$$$$$$$$$$%%%%%%%======$$=======OOOO$$$$$$$$$%=======*$$$$$$%%$$$$$OO    ........+++++++++++++++++++++",
"++++++++++++++++......OOO$$$$$$$$$$%%%%%%%========$$=====OOOO%%%%%$$$$$$==*====*%$$$$$%%%$$$$$O     ......++++++++++++++++++++++",
"++++++++++++++++......OO$$$$$$$$$$$%%%%%%*====**=%$$====OOO%%%%%%%O$$$$$=======%%$$$$$%%$$$$$$...    ....+++++++++++++++++++++++",
"+++++++++++++.........OO$$$$$$$$$$$%%%%%$$$%$$$$$$$$$$$$$$%%%%%%%%O$$$$$=======%%%$$$$%%$$$$$$O...    ..++++++++++++++++++++++++",
"+++++++++.............OO$$$$$$$$$$%%%%$$$$$$$$$$$$$$$$$$$%%%%%%%%OO$$$$$$==*==%%%%$$$$%%$$$$$$O....    +++++++++++++++++++++++++",
"++++++.................O$$$$$$$$$%%%%$$OOO$$$%%%%%$$$**=%%%%%%%%OOO$$$$$$*=*==%%%%$$$$$%$$$$$$O.....   +++++++++++++++++++++++++",
"+++++++++++++++++++....O$$$$$$$$$%$$$$$OOOO$%%%%%$$$====%%%%%%%OOO$$$$$$$$==*%%%%$$$$$$%$$$$$$OO.....  +++++++++++++++++++++++++",
"+++++++++++++++++++....OO$$$$$$$$$$$$$$OOOO$%%%%%$$$===%%%%%%%%OOO$$$$$O$$=**%%$$$$$$$$%$$$$$$OO.....  +++++++++++++++++++++++++",
"+++++++++++++++++++....OOO$$$$$$$$$$$$OOOO$$%%%%%$$====%%%%%%$OOOOO$$OOO$$$*$$$$$$$$$$%%$$$$$$OO.....  +++++++++++++++++++++++++",
"++++++++++++++++++......OOO$$$$$$$O=OOOOOO$$%%%%$$$=====%%%%$$OOOOOOOOO$$$$$$$$$$$$$$%%%O$$$$OOO.....  +++++++++++++++++++++++++",
"++++++++++++++++++......OOOO$=========OOOO$$$%%%$$$======%%$$$OOOOOOOOO$$$$$$$$$$$$$%%%%OOOOOOOO.....  +++++++++++++++++++++++++",
"+++++++++++++++++......OOOOOOO$$$====%%OOOO$$%%%$$$$**===*$$$$OO=%OOOOO$$$$$$$$===%%%%%$OOOOOOOO.....  +++++++++++++++++++++++++",
"+++++++++++++++++.....OOOOOOO$=====%%%%OOOO$$$%%$$$$$$$$$$$$$=======%OO$$$$$$$$%====%%%OOOOOOOO......  +++++++++++++++++++++++++",
"++++++++++++++++......$OO=====$$$%%%%%OOOO$$$$$$$$$$$$$$$$$$%==========$$$$$$$$%%==%%%%OOOOOOOO.....   +++++++++++++++++++++++++",
"++++++++++++++++.....=====OO$$$$$$%%%%OOO$$$$$$$$$$$$$$$$$$$====%%%%====$$$$$$$%%%==%%OOOOOOOOO.....   +++++++++++++++++++++++++",
"+++++++++++++++......$$OOOOO$$$$$$%%%%OOO$$%%%$$=======$$$$$===%%%%%%=%=%$$$$$$%%%%==OOOOOOOOO......   +++++++++++++++++++++++++",
"+++++++++++++++......$$OOOOO$$$$$$%%%%OOO$$$%%%=========$$OO===%%%%%%==%%$$$$$$%%%%%=OOOOOOOOO......  ++++++++++++++++++++++++++",
"+++++++++++++++......$$OOOOO$$$$$$$%%%%OO$$$%%%=========$$OO==%%%%%%%%=%$$$$$$%%%%OOO==O$$OOOOO....   ++++++++++++++++++++++++++",
"++++++++++++++.......$$OOOOO$$$$$$$$%%%OOO$$$%%%%%%%%===$$OOO==%%%%%%%==$$$$$%OOOOOOOO==$$OOOOO...  . ++++++++++++++++++++++++++",
"++++++++++++++.......$$$OOOOO$$$$$$$$%%OOOO$$%%%%%%%%%==$$OOO%=%%%%%%%%=$$$$%$OOOOOO$$$=$$OOOOO..     ++++++++++++++++++++++++++",
"++++++++++++++.......$$$$$OOO$$$$$$$$$%%OOOO$$%%%%%%%==$$OOOOO%%%%%%$$$==$%%%%$OOOO$$$$$$$OOOO...     ++++++++++++++++++++++++++",
"++++++++++++++.......OOOOOOOO$$$$$$$$$$%%OOOO$$$%%%%%==$OOOOOOOO%%$$$$$$$%%%%O$OOOOO$$$$$$OOOO....       +++++++++++++++++++++++",
"++++++++++++++ ......OOOOOOOOO$$$$$$$$$$%..OOO$.$$$%%=$OOOO%OOOO$$$$$$$%%%%%%OO$OO$O$$$$$$OOO.....          ++++++++++++++++++++",
"++++++++++++++. .....OOOOOOOOOO$$$$$$$$$$........$$$==OOOO%%%%$$$$$%%%%%%%%%%OO$$O$$$$$$$OOO.......   +.      ++++++++++++++++++",
"++++++++++++++. .....OOOOOOOOOOO$$$$$$$$$$......O$$==OOOO%%%%%%%%%%%%%%%%%%%%OO$$O$$$$$$$OOO.......  .++++.     ++++++++++++++++",
"++++++++++++++. ......OOOOOOOOOOO$$$$$$$$$$$...OOO==OOOOO%%%%%%%%%%%%%%%%%%%OOO$$$O$$$$$$OOOO.......  .+++++++  ++++++++++++++++",
"++++++++++++++.  .......OOOOOOOOOO$$$$$$$$$...OOOO=OOOOOO%%%%%%%%%%%%%%%%%%OOOO$$$O$$$$$$$OOO.............++++++++++++++++++++++",
"++++++++++++++    .........OOOOOOOOOO$$$$$...OOOO==OOOOOO%%%%%%%%%%%%%%%%%OOOO$$$$$O$$$$$$$OOO.............+++++++++++++++++++++",
"+++++++++++++++    ........OOOOOOOOOOOOOO..OOOOO==OOOOOOO%%%%%%%%%%%%%%%%%OOO$$$$$$O$$$$$$$OOO...............+++++++++++++++++++",
"+++++++++++++++     .......OOOOOOOOOOOOOOOOOOOO==OOO.OOOOO%%%%%%%%%%%%%%%$OO$$$$$$$$$$$$$$$OOO......++++........++++++++++++++++",
"++++++++++++++++    .......OOOOOOO$OOOOOOOOOOOO=OOO..OOOOOO%%%%%%%%%%%%%$$$$$$$$$$$$$$$$$$$OOOO......+++++++++....++++++++++++++",
"++++++++++++++++      .....OOOOOO$$$OOOOOOOOOOOOOO..OOOOOOOO$$%%%%%%%$$$$$$$$$$$$$$$$$$$$$OOOOO......+++++++++++++++++++++++++++",
"+++++++++++++++++     .....OOOOO$$$$$OOOOOOOOOOOO...OOOOOOOOO$$$$$$$$$$$$$$$$$$$$$$OO$$$$OOOOOO......+++++++++++++++++++++++++++",
"+++++++++++++++++    .......OOOOO$$$$$$$$OOOOOOO....OOOOOOOOOO$$$$$$$$$$$$OO$$$$$$OOOOOOOOOOOOO......++oooo+++++++++++++++++++++",
"++++++++++++++++++    .......OOOOOO$$$$$OOOOOO......OOOOOOOOOOO$$$$$$$$$$$$OOO$$OOOOOOOOOOOOOOO......oooooo+++++++++++++++++++++",
"++++++++++++++++++    .........OOOOOOOOOOOOOO.......OOOO$OOOOOOO$$$$$$$$$$$OOOOOOOOOOOOOOOOOOOO......ooooo++++++++++++++++++++++",
"+++++++++++++++++++    ...........OOOOOOOO..........OOOO$$$OOOOO$$$$$$$$$$$OOOOOOOOOOOOOOOOOOOO......ooooo++++++++++++++++++++++",
"+++++++++++++++++++    ......................   .....OOO$$$OOOOO$$$$$$$$$$OOOOOOOOOOOOOOOOOOOO.......oooo+++++++++++++++++++++++",
"+++++++++++++++++++++   ....................    .....OOOO$$OOOOOO$$$$$$OOOOOOOOO$$OOOOOOOOOOOO.......oo+++++++++++++++++++++++++",
"++++++++++++++++++++++   ..................     .....OOOO$$$OOOOOO$$$$OOOOOOOOOO$$$OOOOOOOOOOO......++++++++++++++++++++++++++++",
"++++++++++++++....++++++  ................     .......OOOO$$OOOOOOOOOOOOOOOOOOOO$$$$OOOOOOOOO.......++++++++++++++++++++++++++++",
"+++++++++++++....+++++++++...............      ........OOOO$$OOOOOOOOOOOOOOOOOO$$$$$OOOOOOOO........++++++++++++++++++++++++++++",
"++++++++++++....++++++++++++...........   +.  ..........OOOOOOOOOOOOOOOOOOOOOOO$$$$OOOOOOOO...... .+++++++++++++++++++++++++++++",
"+++++++++++..+..+++++++++++++++.......   +.   ...........OOOOOOOOOOOOOOOOOOOOO$$OOOOOOOOOO.......  +++++++++++++++++++++++++++++",
"+++++++++..++.++++++++++++++++++++++.   +..  .............OOOOOOOOOOOOOOOOOOOOOOOOOOOOOOO.......   +++++++++++++++++++++++++++++",
"++++++++..++..+++++++++++++++++++++.   +...  ................OOOOOOOOOOOOOOOOOOOOOOOOOOO.......   ++++++++++++++++++++++++++++++",
"+++++++++++.+++++++++++++++++++++++.  ++..    .....................OOOOOOOOOOOOOOOOOOOO.......   +++++++++++++++++++++++++++++++",
"++++++++++..+++++++++++++++++++++++. ++...     .....................OOOOOOOOOOOOOOOOO.........   +++++++++++++++++++++++++++++++",
"+++++++++.++++++++++++++++++++++++..+++...+++    ................+.....OOOOOOOOOOOO.........    ++++++++++++++++++++++++++++++++",
"++++++++..++++++++++++++++++++++++.+++...++++++.  ............++++  .......OOOOOOOO........    +++++++++++++++++++++++++++++++++",
"+++++++..+++++++++++++++++++++++..+++...++++++++++..........++++++   .......OOOOOO.......     +++++++++..+.+++++++++++++++++++++",
"+++++++.+++++++++++++++++++++++...+++..+++++++++++++++++++++++++++    ..................     +++++++++++...+++++++++++++++++++++",
"+++++++++++++++++++++++++++++++..+++..++++++++++++++++++++++++++++     ...............      ++++++++++++++.+++++++++++++++++++++",
"++++++++++++++++++++++++++++++..++++.+++++++++++++++++++++++++++++  +     ......         +++++++++++++++++++++++++++++++++++++++",
"+++++++++++++++++++++++++++++..++++.++++++++++++++++++++++++++++++  ++                 +++++++++++++++++++++++++++++++++++++++++",
"++++++++++++++++++++++++++++..++++.+++++++++++++++++++++++++++++++  +++++          .++++++++++++++++++++++++++++++++++++++++++++",
"++++++++++XXX++++++++++++++..+++++++++++++++++++++++++++++++++++++ +++++++++++++ +++++++++++++++++++++++++++++++++++++++++++++++",
"++++++++++XXX+++XX+++++++++.++++++++++++++++++++++++++++++++++++++.+++++++++++++++++++++++++++++++++++++++++++++++++++++++++++++",
"++++++XXX+XXXX+XXX++++++++++++++.+++++++++++++++++++++++++++++++++++++++++++++++++++++++++++++++++++++++++++++++++++++++++++++++",
"++++++XXXX+XXXXXXX+++++++++++++.+++++++++++++++++++++++++++++.++++++++++++++++++++++++++++++++++++++++++++++++++++++++++++++++++",
"+++++++XXXXXXXXXXX++++++++++++++++++++++++++++++++++++++++++..++++++++++++++++++++++++++++++++++++++++++++++++++++++++++++++++++",
"+++++++XXXXXXXXXXX++++++++++++++++++++++++++++++++++++++++++..++++++++++++++++++++++++++++++++++++++++++++++++++++++++++++++++++",
"++++++++XXXXXXXXXX+++++++++++++++++++++++++++++++++++++++++..+++++++++++++++++++++++++++++++++++++++++++++++++++++++++++++++++++",
"+++++++++XXXXXXXXX+++++++++++++++++++++++++++++++++++++++++.++++++++++++++++++++++++++++++++++++++++++++++++++++++++++++++++++++",
"++++++++++XXXXXXXX+++++++++++++++++++++++++++++++++++++++++.++++++++++++++++++++++++++++++++++++++++++++++++++++++++++++++++++++",
"+++++++++++XXXXXX+++++++++++++++++++++++++++++++++++++++++++++++++++++++++++++++++++++++++++++++++++++++++++++++++++++++++++++++",
"++++++++++++XXXX++++++++++++++++++++++++++++++++++++++++++++++++++++++++++++++++++++++++++++++++++++++++++++++++++++++++++++++++",
"++++++++++++++++++++++++++++++++++++++++++++++++++++++++++++++++++++++++++++++++++++++++++++++++++++++++++++++++++++++++++++++++",
"++++++++++++++++++++++++++++++++++++++++++++++++++++++++++++++++++++++++++++++++++++++++++++++++++++++++++++++++++++++++++++++++",
"++++++++++++++++++++++++++++++++++++++++++++++++++++++++++++++++++++++++++++++++++++++++++++++++++++++++++++++++++++++++++++++++",
"++++++++++++++++++++++++++++++++++++++++++++++++++++++++++++++++++++++++++++++++++++++++++++++++++++++++++++++++++++++++++++++++",
"++++++++++++++++++++++++++++++++++++++++++++++++++++++++++++++++++++++++++++++++++++++++++++++++++++++++++++++++++++++++++++++++",
"++++++++++++++++++++++++++++++++++++++++++++++++++++++++++++++++++++++++++++++++++++++++++++++++++++++++++++++++++++++++++++++++",
"++++++++++++++++++++++++++++++++++++++++++++++++++++++++++++++++++++++++++++++++++++++++++++++++++++++++++++++++++++++++++++++++",
"++++++++++++++++++++++++++++++++++++++++++++++++++++++++++++++++++++++++++++++++++++++++++++++++++++++++++++++++++++++++++++++++"
};
