/* XPM */
static char *result[] = {
/* columns rows colors chars-per-pixel */
"128 128 80 1 ",
"  c black",
". c #000100",
"X c #010100",
"o c #010200",
"O c #020201",
"+ c #000003",
"@ c #020202",
"# c #020401",
"$ c #030601",
"% c #060606",
"& c #070B03",
"* c #060C02",
"= c #090909",
"- c gray5",
"; c #081004",
": c #0E1606",
"> c #111106",
", c #13160F",
"< c #040618",
"1 c #1C2018",
"2 c #000133",
"3 c #2A2A2A",
"4 c #335024",
"5 c #49622D",
"6 c #516C34",
"7 c #000241",
"8 c #000677",
"9 c #565656",
"0 c #555559",
"q c #7F5842",
"w c #5F6A4D",
"e c #626F54",
"r c #6C6C6C",
"t c #CA4422",
"y c #FF7738",
"u c #9D6F48",
"i c #6D8F46",
"p c #789F4F",
"a c #70955E",
"s c #79935D",
"d c #79A050",
"f c #7FA654",
"g c #7FA755",
"h c #7FA853",
"j c #79A059",
"k c #F2B032",
"l c #F0B83D",
"z c #FFD400",
"x c #FFC039",
"c c #81A652",
"v c #80A853",
"b c #80A955",
"n c #81A956",
"m c #82AA58",
"M c #83AB59",
"N c #83AB5B",
"B c #84AC5C",
"V c #AB8B61",
"C c #89AF61",
"Z c #8FB36B",
"A c #E98642",
"S c #FF8A41",
"D c #DCB843",
"F c #A0C471",
"G c #040582",
"H c #000888",
"J c #041584",
"K c #1A2F8E",
"L c #0D2093",
"P c #0F2193",
"I c #122690",
"U c #182897",
"Y c #397CFF",
"T c #61919A",
"R c #4F8AD6",
"E c #EFC48A",
"W c #F0C48A",
"Q c #FDDEAD",
"! c #FFE1B2",
"~ c white",
/* pixels */
"hhhhhhhhhhhhhhhhhhhhhhhhhhhhhhhhhhhhhhhhhhhhhhhhhhhhhhhhhhhhhhhhhhhhhhhhhhhhhhhhhhhhhhhhhhhhhhhhhhhhhhhhhhhhhhhhhhhhhhhhhhhhhhhh",
"hhhhhhhhhhhhhhhhhhhhhhhhhhhhhhhhhhhhhhhhhhhhhhhhhhhhhhhhhhhhhhhhhhhhhhhhhhhhhhhhhhhhhhhhhhhhhhhhhhhhhhhhhhhhhhhhhhhhhhhhhhhhhhhh",
"hhhhhhhhhhhhhhhhhhhhhhhhhhhhhhhhhhhhhhhhhhhhhhhhhhhhhhhhhhhhhhhhhhhhhhhhhhhhhhhhhhhhhhhhhhhhhhhhhhhhhhhhhhhhhhhhhhhhhhhhhhhhhhhh",
"hhhhhhhhhhhhhhhhhhhhhhhhhhhhhhhhhhhhhhhhhhhhhhhhhhhhhhhhhhhhhhhhhhhhhhhhhhhhhhhhhhhhhhhhhhhhhhhhhhhhhhhhhhhhhhhhhhhhhhhhhhhhhhhh",
"hhhhhhhhhhhhhhhhhhhhhhhhhhhhhhhhhhhhhhhhhhhhhhhhhhhhhhhhhhhhhhhhhhhhhhhhhhhhhhhhhhhhhhhhhhhhhhhhhhhhhhhhhhhhhhhhhhhhhhhhhhhhhhhh",
"hhhhhhhhhhhhhhhhhhhhhhhhhhhhhhhhhhhhhhhhhhhhhhhhhhhhhhhhhhhhhhhhhhhhhhhhhhhhhhhhhhhhhhhhhhhhhhhhhhhhhhhhhhhhhhhhhhhhhhhhhhhhhhhh",
"hhhhhhhhhhhhhhhhhhhhhhhhhhhhhhhhhhhhhhhhhhhhhhFFhhhhhhhhhhhhhhhhhhhhhhhhhhhhhhhhhhhhhhhhhhhhhhhhhhhhhhhhhhhhhhhhhhhhhhhhhhhhhhhh",
"hhhhhhhhhhhhhhhhhhhhhhhhhhhhhhhhhhhhhhhhhhhhhhFFhhhhhhhhhhhhhhhhhhhhhhhhhhhhhhhhhhhhhhhhhhhhhhhhhhhhhhhhhhhhhhhhhhhhhhhhhhhhhhhh",
"hhhhhhhhhhhhhhhhhhhhhhhhhhhhhhhhhhhhhhhhhhhhhhFFFFhh        hhhhhhhhhhhhhhhhhhhhhhhhhhhhhhhhhhhhhhhhhhhhhhhhhhhhhhhhhhhhhhhhhhhh",
"hhhhhhhhhhhhhhhhhhhhhhhhhhhhhhhhhhhhhhhhhhhhhhFFFFhh        hhhhhhhhhhhhhhhhhhhhhhhhhhhhhhhhhhhhhhhhhhhhhhhhhhhhhhhhhhhhhhhhhhhh",
"hhhhhhhhhhhhhhhhhhhhhhhhhhhhhhhhhhhhhhhhhhhhhh    rr            hhhhhhhhhhhhhhhhhhhhhhhhhhhhhhhhhhhhhhhhhhhhhhhhhh4444hhhhhhhhhh",
"hhhhhhhhhhhhhhhhhhhhhhhhhhhhhhhhhhhhhhhhhhhhhh    rr            hhhhhhhhhhhhhhhhhhhhhhhhhhhhhhhhhhhhhhhhhhhhhhhhhh4444hhhhhhhhhh",
"hhhhhhhhhhhhhhhhhhhhhhhhhhhhhhhhhhhhhhhhhhhhhhFFFF  rrrrrrrr      hhhhhhhhhhhhbbhhhhhhhhhhhhhhhhhhhhhhhhhhhhhhhh444444hhhhhhhhhh",
"hhhhhhhhhhhhhhhhhhhhhhhhhhhhhhhhhhhhhhhhhhhhhhFFFF  rrrrrrrr      hhhhhhhhhhhhbbhhhhhhhhhhhhhhhhhhhhhhhhhhhhhhhh444444hhhhhhhhhh",
"hhhhhhhhhhhhhhhhhhhhhhhhhhhhhhhhhhhhhhhhhhhhhhhhhhhh  rrrr          hhhhhhhhhhhhhhhhhhhhhhhhhhhhhhhhhhhhhhhh66hh444444hhhhhhhhhh",
"hhhhhhhhhhhhhhhhhhhhhhhhhhhhhhhhhhhhhhhhhhhhhhhhhhhh  rrrr          hhhhhhhhhhhhhhhhhhhhhhhhhhhhhhhhhhhhhhhh66hh444444hhhhhhhhhh",
"hhhhhhhhhhhhhhhhhhhhhhhhhhhhhhhhhhhhhhhhhhhhhhhhhhhhhh  rrrr      rr        hhhhhhhhhhhhhhhhhhhhhhhhhhhhhhhh6644444444hhhhhhhhhh",
"hhhhhhhhhhhhhhhhhhhhhhhhhhhhhhhhhhhhhhhhhhhhhhhhhhhhhh  rrrr      rr        hhhhhhhhhhhhhhhhhhhhhhhhhhhhhhhh6644444444hhhhhhhhhh",
"hhhhhhhhhhhhhhhhhhhhhhhhhhhhhhhhhhhhhhhhhhhhhhhhhh                  rrrr      hhhhhhhhhhhhhhhhhhhhhhhhhhhhhh6666444444hhhhhhhhhh",
"hhhhhhhhhhhhhhhhhhhhhhhhhhhhhhhhhhhhhhhhhhhhhhhhhh                  rrrr      hhhhhhhhhhhhhhhhhhhhhhhhhhhhhh6666444444hhhhhhhhhh",
"hhhhhhhhhhhhhhhhhhhhhhhhhhhhhhhhhhhhhhhhhhhh  rrrrrrrr                        hhhhmmhhhhhhhhhhhhhhhhhhhhhhhhhh666666hhhhhhhhhhhh",
"hhhhhhhhhhhhhhhhhhhhhhhhhhhhhhhhhhhhhhhhhhhh  rrrrrrrr                        hhhhmmhhhhhhhhhhhhhhhhhhhhhhhhhh666666hhhhhhhhhhhh",
"hhhhhhhhhhhhhhhhhh66hhhhhhhhhhhhhhhhhhhhmm  rrrrrr                VVWW33                hhhhhhhhhhhhhhhhhhhhhhhhhhhhhhhhhhhhhhhh",
"hhhhhhhhhhhhhhhhhh66hhhhhhhhhhhhhhhhhhhhmm  rrrrrr                VVWW33                hhhhhhhhhhhhhhhhhhhhhhhhhhhhhhhhhhhhhhhh",
"hhhhFFFFFFhhhhFFFF6666hhhhhhhhhhhhhhhhhh                  WW    uuWWWWWW              hhhhhhhhhhhhhhhhhhhhhhhhhhhhhhhhhhhhhhhhhh",
"hhhhFFFFFFhhhhFFFF6666hhhhhhhhhhhhhhhhhh                  WW    uuWWWWWW              hhhhhhhhhhhhhhhhhhhhhhhhhhhhhhhhhhhhhhhhhh",
"hhhhhhFFFFFFhhFFFF666666hhhhhhhhhhhhhhhhbbhhhhhhhh  rr  uu!!  !!WW    WW  WW        hhhhhhhhhhhhhhhhhhhhhhhhhhhhhhhhhhhhhhhhhhhh",
"hhhhhhFFFFFFhhFFFF666666hhhhhhhhhhhhhhhhbbhhhhhhhh  rr  uu!!  !!WW    WW  WW        hhhhhhhhhhhhhhhhhhhhhhhhhhhhhhhhhhhhhhhhhhhh",
"hhhhhhFFFFFFFFFFFF666666666666hhhhhhhhhhhhhhhhhh  rr        !!!!    ~~WW  !!WW        MMhhhhhhhhhhhhhhhhhhhhhhhhhhhhhhhhhhhhhhhh",
"hhhhhhFFFFFFFFFFFF666666666666hhhhhhhhhhhhhhhhhh  rr        !!!!    ~~WW  !!WW        MMhhhhhhhhhhhhhhhhhhhhhhhhhhhhhhhhhhhhhhhh",
"hhhhhhFFFFFFFFFFFF666666666666hhhhhhhhhhhhhhhh              ~~!!WW  ~~WW!!!!WW          hhhhhhhhhhhhhhhhhhhhhhhhhhhhhhhhhhhhhhhh",
"hhhhhhFFFFFFFFFFFF666666666666hhhhhhhhhhhhhhhh              ~~!!WW  ~~WW!!!!WW          hhhhhhhhhhhhhhhhhhhhhhhhhhhhhhhhhhhhhhhh",
"hhhhhhFFFFFFFFFFFF66666666hhhhhhhhhhhhhhhhhh              qq!!!!!!WWWWWWWWWW        nnhhhhhhhhhhhhhhhhhhhhhhhhhhhhhhhhhhhhhhhhhh",
"hhhhhhFFFFFFFFFFFF66666666hhhhhhhhhhhhhhhhhh              qq!!!!!!WWWWWWWWWW        nnhhhhhhhhhhhhhhhhhhhhhhhhhhhhhhhhhhhhhhhhhh",
"hhhhhhhhFFFFFFFF66hh66hhhhhhhhhhhhhhhhhhhhhhhhhhbbhhhh    !!qq!!WWWWWWuu  11  hhhhhhhhhhhhhhhhhhhhhhhhhhhhhhhhhhhhhhhhhhhhhhhhhh",
"hhhhhhhhFFFFFFFF66hh66hhhhhhhhhhhhhhhhhhhhhhhhhhbbhhhh    !!qq!!WWWWWWuu  11  hhhhhhhhhhhhhhhhhhhhhhhhhhhhhhhhhhhhhhhhhhhhhhhhhh",
"hhhhhhhhhhFFFFhhhhhhhhhhhhhhhhhhhhhhhhhhhhhhhhhhhhhhhhhhmm  !!qqqqWWuu  XXhhhhhhhhhhhhhhhhhhhhhhhhhhhhhhhhhhhhhhhhhhhhhhhhhhhhhh",
"hhhhhhhhhhFFFFhhhhhhhhhhhhhhhhhhhhhhhhhhhhhhhhhhhhhhhhhhmm  !!qqqqWWuu  XXhhhhhhhhhhhhhhhhhhhhhhhhhhhhhhhhhhhhhhhhhhhhhhhhhhhhhh",
"hhhhhhhhhhhhhhhhhhhhhh  hhhhhhhhhhhhhhhhhhhhhhhhhhhhhhhhhh    WWWWuu    hhhhhhhhhhhhhhhhhhhhhhhhhhhhhhhhhhhhhhhhhhhhhhhhhhhhhhhh",
"hhhhhhhhhhhhhhhhhhhhhh  hhhhhhhhhhhhhhhhhhhhhhhhhhhhhhhhhh    WWWWuu    hhhhhhhhhhhhhhhhhhhhhhhhhhhhhhhhhhhhhhhhhhhhhhhhhhhhhhhh",
"hhhhhhhhhhhhhhhhhhhh      hhhhhhhhhhhhhhhhhhhhhhhhhh666666FF>>OO%%  uu  hhhhhhhhhhhhhhhhhhhhhhhhhhhhhhhhhhhhhhhhhhhhhhhhhhhhhhhh",
"hhhhhhhhhhhhhhhhhhhh      hhhhhhhhhhhhhhhhhhhhhhhhhh666666FF>>OO%%  uu  hhhhhhhhhhhhhhhhhhhhhhhhhhhhhhhhhhhhhhhhhhhhhhhhhhhhhhhh",
"hhhhhhhhhhhhhhhhhh    !!  hhhhhhhhhhhhhhhhhhhhhhhhhh6666    QQuuuuuuWW              hhhhhhhhhhhhhhhhhhhhhhhhhhhhhhhhhhhhhhhhhhhh",
"hhhhhhhhhhhhhhhhhh    !!  hhhhhhhhhhhhhhhhhhhhhhhhhh6666    QQuuuuuuWW              hhhhhhhhhhhhhhhhhhhhhhhhhhhhhhhhhhhhhhhhhhhh",
"hhhhhhhhhhhhhhhhhh  !!!!  hhhhhhhhhhhhhhhhhhhh  YY        GGYYYYWWWWWW  GGyyyyyyyy        hhhhhhhhhhhhhhhhhhhhhhhhhhhhhhhhhhhhhh",
"hhhhhhhhhhhhhhhhhh  !!!!  hhhhhhhhhhhhhhhhhhhh  YY        GGYYYYWWWWWW  GGyyyyyyyy        hhhhhhhhhhhhhhhhhhhhhhhhhhhhhhhhhhhhhh",
"hhhhhhhhhhhhhhhhhh    WW  hhhhhhhhhhhhhhhh    YYYYllDDxxxxGGYYYYYYYYLLLLxxxxxxSSSS99--GGGG  hhhhhhhhhhhhhhhhhhhhhhhhhhhhhhhhhhhh",
"hhhhhhhhhhhhhhhhhh    WW  hhhhhhhhhhhhhhhh    YYYYllDDxxxxGGYYYYYYYYLLLLxxxxxxSSSS99--GGGG  hhhhhhhhhhhhhhhhhhhhhhhhhhhhhhhhhhhh",
"hhhhhhhhhhhhhhhhhh  !!    TThhhh          !!YYYY    xxxxxxGGYYYYYYLLLLLLxxxxSSSSSS  YYLLGGGGhhhhhhhhhhhhhhhhhhhhhhhhhhhhhhhhhhhh",
"hhhhhhhhhhhhhhhhhh  !!    TThhhh          !!YYYY    xxxxxxGGYYYYYYLLLLLLxxxxSSSSSS  YYLLGGGGhhhhhhhhhhhhhhhhhhhhhhhhhhhhhhhhhhhh",
"hhhhhhhhhhhhhhhhhh  WW  ..YYYY  !!!!!!!!!!!!YYYYLL  yyyyxxLLLLYYLLLLUUxxxxSSSSyy  YYLLLLLL77  hhhhhhhhhhhhhhhhhhhhhhhhhhhhhhhhhh",
"hhhhhhhhhhhhhhhhhh  WW  ..YYYY  !!!!!!!!!!!!YYYYLL  yyyyxxLLLLYYLLLLUUxxxxSSSSyy  YYLLLLLL77  hhhhhhhhhhhhhhhhhhhhhhhhhhhhhhhhhh",
"hhhhhhhhhhhhhhhhhh  WWWW  YYLL  !!!!!!!!!!WW  LLLL  yyyyxxxxxxLLLLHHxxyyzzzzyyyy  YYLLLLLL    hhhhhhhhhhhhhhhhhhhhhhhhhhhhhhhhhh",
"hhhhhhhhhhhhhhhhhh  WWWW  YYLL  !!!!!!!!!!WW  LLLL  yyyyxxxxxxLLLLHHxxyyzzzzyyyy  YYLLLLLL    hhhhhhhhhhhhhhhhhhhhhhhhhhhhhhhhhh",
"hhhhhhhhhhhhhhhhhh    WWuuLLLL  WWWWWWWWWWuu  LLLLIIxxyyyyxxxxxxLLyyyyzzzz  zztt  YYLLLL88WW  hhhhhhhhhhhhhhhhhhhhhhhhhhhhhhhhhh",
"hhhhhhhhhhhhhhhhhh    WWuuLLLL  WWWWWWWWWWuu  LLLLIIxxyyyyxxxxxxLLyyyyzzzz  zztt  YYLLLL88WW  hhhhhhhhhhhhhhhhhhhhhhhhhhhhhhhhhh",
"hhhhhhhhhhhhhhhhhhhh        PP  uuuuuuuuuuuu  LLLLLLkkyyyyyyyyyyyyyyyyzz    zztt  LLLL<<00WWEE  hhhhhhhhhhhhhhhhhhhhhhhhhhhhhhhh",
"hhhhhhhhhhhhhhhhhhhh        PP  uuuuuuuuuuuu  LLLLLLkkyyyyyyyyyyyyyyyyzz    zztt  LLLL<<00WWEE  hhhhhhhhhhhhhhhhhhhhhhhhhhhhhhhh",
"hhhhhhhhhhhhhhhhhhhhhhhhpp  LLLL            hh        yyyyyyyyyyyySSSSSSttzztttt++LLLLJJ!!WWWW  hhhhhhhhhhhhhhhhhhhhhhhhhhhhhhhh",
"hhhhhhhhhhhhhhhhhhhhhhhhpp  LLLL            hh        yyyyyyyyyyyySSSSSSttzztttt++LLLLJJ!!WWWW  hhhhhhhhhhhhhhhhhhhhhhhhhhhhhhhh",
"hhhhhhhhhhhhhhhhhhhhhhhhhhhhhhhhhh55hhhhhhhhhhhhhh    ttttyyyyyyttttttyytttttt    22  !!!!WWWW  hhhhhhhhhhhhhhhhhhhhhhhhhhhhhhhh",
"hhhhhhhhhhhhhhhhhhhhhhhhhhhhhhhhhh55hhhhhhhhhhhhhh    ttttyyyyyyttttttyytttttt    22  !!!!WWWW  hhhhhhhhhhhhhhhhhhhhhhhhhhhhhhhh",
"hhhhhhhhhhhhhhhhhhhhhhhhhhhhhhhhhhhhhhhhhhhhhhhhhhhhss  ttyyyyyyyytttttttttttt    ww  !!!!WWuu  hhhhhhhhhhhhhhhhhhhhhhhhhhhhhhhh",
"hhhhhhhhhhhhhhhhhhhhhhhhhhhhhhhhhhhhhhhhhhhhhhhhhhhhss  ttyyyyyyyytttttttttttt    ww  !!!!WWuu  hhhhhhhhhhhhhhhhhhhhhhhhhhhhhhhh",
"hhhhhhhhhhhhhhhhhhhhhhhhhhhhhhhhhhhhhhhhhhhhhhhhhhhhgg  ttttttyyyyyytttttttt    hhhh    !!WWuu  hhhhhhhhhhhhhhhhhhhhhhhhhhhhhhhh",
"hhhhhhhhhhhhhhhhhhhhhhhhhhhhhhhhhhhhhhhhhhhhhhhhhhhhgg  ttttttyyyyyytttttttt    hhhh    !!WWuu  hhhhhhhhhhhhhhhhhhhhhhhhhhhhhhhh",
"hhhhhhhhhhhhhhhhhhhhhhhhhhhhhhhhhhhhhhhhhhhhhhhhhhhh##    tttttttttttttttt    hhhhhhhh  !!WWuu  hhhhhhhhhhhhhhhhhhhhhhhhhhhhhhhh",
"hhhhhhhhhhhhhhhhhhhhhhhhhhhhhhhhhhhhhhhhhhhhhhhhhhhh##    tttttttttttttttt    hhhhhhhh  !!WWuu  hhhhhhhhhhhhhhhhhhhhhhhhhhhhhhhh",
"hhhhhhhhhhhhhhhhhhhhhhhhhhhhhhhhhhhhhhhhhhhhhhhhhhhhvv          tttttt        hhhhhhZZ  WWWWuu  hhhhhhhhhhhhhhhhhhhhhhhhhhhhhhhh",
"hhhhhhhhhhhhhhhhhhhhhhhhhhhhhhhhhhhhhhhhhhhhhhhhhhhhvv          tttttt        hhhhhhZZ  WWWWuu  hhhhhhhhhhhhhhhhhhhhhhhhhhhhhhhh",
"hhhhhhhhhhhhhhhhhhhhhhhhhhhhhhhhhhhhhhhhhhhhhhhhhhhhhh  YYYYYYYY        YYLLKK  hhhh  !!WWuu    mmhhhhhhhhhhhhhhhhhhhhhhhhhhhhhh",
"hhhhhhhhhhhhhhhhhhhhhhhhhhhhhhhhhhhhhhhhhhhhhhhhhhhhhh  YYYYYYYY        YYLLKK  hhhh  !!WWuu    mmhhhhhhhhhhhhhhhhhhhhhhhhhhhhhh",
"hhhhhhhhhhhhhhhhhhhhhhhhhhhhhhhhhhhhhhhhhhhhhhhhhhhhff    LLLLLLLLLLLLLLLLLLLL  hh              hhhhhhhhhhhhhhhhhhhhhhhhhhhhhhhh",
"hhhhhhhhhhhhhhhhhhhhhhhhhhhhhhhhhhhhhhhhhhhhhhhhhhhhff    LLLLLLLLLLLLLLLLLLLL  hh              hhhhhhhhhhhhhhhhhhhhhhhhhhhhhhhh",
"hhhhhhhhhhhhhhhhhhhhhhhhhhhhhhhhhhhhhhhhhhhhhhhhhhhhdd@@          LLLLLL        XX  YYYYLLLLKK  hhhhhhhhhhhhhhhhhhhhhhhhhhhhhhhh",
"hhhhhhhhhhhhhhhhhhhhhhhhhhhhhhhhhhhhhhhhhhhhhhhhhhhhdd@@          LLLLLL        XX  YYYYLLLLKK  hhhhhhhhhhhhhhhhhhhhhhhhhhhhhhhh",
"hhhhhhhhhhhhhhhhhhhhhhhhhhhhhhhhhhhhhhhhhhhhhhhhhhhhjjLLxxxxxxyyyy    yyyyyy99  !!!!          hhhhhhhhhhhhhhhhhhhhhhhhhhhhhhhhhh",
"hhhhhhhhhhhhhhhhhhhhhhhhhhhhhhhhhhhhhhhhhhhhhhhhhhhhjjLLxxxxxxyyyy    yyyyyy99  !!!!          hhhhhhhhhhhhhhhhhhhhhhhhhhhhhhhhhh",
"hhhhhhhhhhhhhhhhhhhhhhhhhhhhhhhhhhhhhhhhhhhhhhhhhhhhaaLLxxxxyyyyyyxxxxyyyyyytt  !!WWWWWW  eemmhhhhhhhhhhhhhhhhhhhhhhhhhhhhhhhhhh",
"hhhhhhhhhhhhhhhhhhhhhhhhhhhhhhhhhhhhhhhhhhhhhhhhhhhhaaLLxxxxyyyyyyxxxxyyyyyytt  !!WWWWWW  eemmhhhhhhhhhhhhhhhhhhhhhhhhhhhhhhhhhh",
"hhhhhhhhhhhhhhhhhhhhhhhhhhhhhhhhhhhhhhhhhhhhhhhhhhcc    xxxxyyyy==xxxxyyyyyytt  !!WWWWuu  hhhhhhhhhhhhhhhhhhhhhhhhhhhhhhhhhhhhhh",
"hhhhhhhhhhhhhhhhhhhhhhhhhhhhhhhhhhhhhhhhhhhhhhhhhhcc    xxxxyyyy==xxxxyyyyyytt  !!WWWWuu  hhhhhhhhhhhhhhhhhhhhhhhhhhhhhhhhhhhhhh",
"hhhhhhhhhhhhhhhhhhhhhhhhhhhhhhhhhhhhhhhhhhhhhhhhhhii  xxxxxxyyyy  xxxxxxyyyytt    WWuuuu  hhhhhhhhhhhhhhhhhhhhhhhhhhhhhhhhhhhhhh",
"hhhhhhhhhhhhhhhhhhhhhhhhhhhhhhhhhhhhhhhhhhhhhhhhhhii  xxxxxxyyyy  xxxxxxyyyytt    WWuuuu  hhhhhhhhhhhhhhhhhhhhhhhhhhhhhhhhhhhhhh",
"hhhhhhhhhhhhhhhhhhhhhhhhhhhhhhhhhhhhhhhhhhhhhhhhhh    xxxxxxyyyyyy  xxxxyyyytttt        hhhhhhhhhhhhhhhhhhhhhhhhhhhhhhhhhhhhhhhh",
"hhhhhhhhhhhhhhhhhhhhhhhhhhhhhhhhhhhhhhhhhhhhhhhhhh    xxxxxxyyyyyy  xxxxyyyytttt        hhhhhhhhhhhhhhhhhhhhhhhhhhhhhhhhhhhhhhhh",
"hhhhhhhhhhhhhhhhhhhhhhhhhhhhhhhhhhhhhhhhhhhhhhhhhh  xxxxxxxxyyyyyy  xxxxxxyyyytttt    hhhhhhhhhh6666hhhh6666hhhhhhhhhhhhhhhhhhhh",
"hhhhhhhhhhhhhhhhhhhhhhhhhhhhhhhhhhhhhhhhhhhhhhhhhh  xxxxxxxxyyyyyy  xxxxxxyyyytttt    hhhhhhhhhh6666hhhh6666hhhhhhhhhhhhhhhhhhhh",
"hhhhhhhhhhhhhhhhhhhhhhhhhhhhhhhhhhhhhhhhhhhhhhhhhh  xxxxxxyyyyyytt    xxxxxxyyyytttt    hhhhhhhh6666666666hhhhhhhhhhhhhhhhhhhhhh",
"hhhhhhhhhhhhhhhhhhhhhhhhhhhhhhhhhhhhhhhhhhhhhhhhhh  xxxxxxyyyyyytt    xxxxxxyyyytttt    hhhhhhhh6666666666hhhhhhhhhhhhhhhhhhhhhh",
"hhhhhhhhhhhhhhhhhhhhhhhhhhhhhhhhhhhhhhhhhhhhhhhh    xxxxxxyyyyyytt    xxxxxxyyyyyytttt  hhhhhhhh6666666666hhhhhhhhhhhhhhhhhhhhhh",
"hhhhhhhhhhhhhhhhhhhhhhhhhhhhhhhhhhhhhhhhhhhhhhhh    xxxxxxyyyyyytt    xxxxxxyyyyyytttt  hhhhhhhh6666666666hhhhhhhhhhhhhhhhhhhhhh",
"hhhhhhhhhhhhhhhhhhhhhhhhhhhhhhhhhhhhhhhhhhhhhhhh  xxxxxxxxyyyytttt      xxxxyyyyyytttt    hhhhhhhhhhhhhhhhhhhhhhhhhhhhhhhhhhhhhh",
"hhhhhhhhhhhhhhhhhhhhhhhhhhhhhhhhhhhhhhhhhhhhhhhh  xxxxxxxxyyyytttt      xxxxyyyyyytttt    hhhhhhhhhhhhhhhhhhhhhhhhhhhhhhhhhhhhhh",
"hhhhhhhhhhhhhhhhhhhhhhhhhhhhhhhhhhhhhhhhhhhhhhhh  xxxxxxyyyyyytt  ..CC$$xxxxxxyyyyyytttt    hhhhhhhhhhhhhhhhhhhhhhhhhhhhhhhhhhhh",
"hhhhhhhhhhhhhhhhhhhhhhhhhhhhhhhhhhhhhhhhhhhhhhhh  xxxxxxyyyyyytt  ..CC$$xxxxxxyyyyyytttt    hhhhhhhhhhhhhhhhhhhhhhhhhhhhhhhhhhhh",
"hhhhhhhhhhhhhhhhhhhhhhhhhhhhhhhhhhhhhhhhhhhhhhhh  xxxxxxxxyyyytt  **hh&&xxxxxxxxyyyyyytttt  hhhhhhhhhhhhhhhhhhhhhhhhhhhhhhhhhhhh",
"hhhhhhhhhhhhhhhhhhhhhhhhhhhhhhhhhhhhhhhhhhhhhhhh  xxxxxxxxyyyytt  **hh&&xxxxxxxxyyyyyytttt  hhhhhhhhhhhhhhhhhhhhhhhhhhhhhhhhhhhh",
"hhhhhhhhhhhhhhhhhhhhhhhhhhhhhhhhhhhhhhhhhhhhhhhh    xxxxyyyyyytttt::MMoo  yyxxxxyyyyyytttt  hhhhhhhhhhhhhhhhhhhhhhhhhhhhhhhhhhhh",
"hhhhhhhhhhhhhhhhhhhhhhhhhhhhhhhhhhhhhhhhhhhhhhhh    xxxxyyyyyytttt::MMoo  yyxxxxyyyyyytttt  hhhhhhhhhhhhhhhhhhhhhhhhhhhhhhhhhhhh",
"hhhhhhhhhhhhhhhhhhhhhhhhhhhhhhhhhhhhhhhhhhhhhhhhhh  yyyyyyyyyytttttt;;MM  yyxxxxyyyytttttt    hhhhhhhhhhhhhhhhhhhhhhhhhhhhhhhhhh",
"hhhhhhhhhhhhhhhhhhhhhhhhhhhhhhhhhhhhhhhhhhhhhhhhhh  yyyyyyyyyytttttt;;MM  yyxxxxyyyytttttt    hhhhhhhhhhhhhhhhhhhhhhhhhhhhhhhhhh",
"hhhhhhhhhhhhhhhhhhhhhhhhhhhhhhhhhhhhhhhhhhhhhhhhhh  yyyyyyyyyytttt    hh  AAyyyytttttttttttt  NNhhhhhhhhhhhhhhhhhhhhhhhhhhhhhhhh",
"hhhhhhhhhhhhhhhhhhhhhhhhhhhhhhhhhhhhhhhhhhhhhhhhhh  yyyyyyyyyytttt    hh  AAyyyytttttttttttt  NNhhhhhhhhhhhhhhhhhhhhhhhhhhhhhhhh",
"hhhhhhhhhhhhhhhhhhhhhhhhhhhhhhhhhhhhhhhhhhhhhhhhhh  DDxxxxyytttttt  hhhhhh  tttttttttttttttt  hhhhhhhhhhhhhhhhhhhhhhhhhhhhhhhhhh",
"hhhhhhhhhhhhhhhhhhhhhhhhhhhhhhhhhhhhhhhhhhhhhhhhhh  DDxxxxyytttttt  hhhhhh  tttttttttttttttt  hhhhhhhhhhhhhhhhhhhhhhhhhhhhhhhhhh",
"hhhhhhhhhhhhhhhhhhhhhhhhhhhhhhhhhhhhhhhhhhhhhhhhhhhh  tttttttttt    hhhhhh    tttttttttttt    hhhhhhhhhhhhhhhhhhhhhhhhhhhhhhhhhh",
"hhhhhhhhhhhhhhhhhhhhhhhhhhhhhhhhhhhhhhhhhhhhhhhhhhhh  tttttttttt    hhhhhh    tttttttttttt    hhhhhhhhhhhhhhhhhhhhhhhhhhhhhhhhhh",
"hhhhhhhhhhhhhhhhhhhhhhhhhhhhhhhhhhhhhhhhhhhhhhhhhhhh                hhhhhhhh                hhhhhhhhhhhhhhhhhhhhhhhhhhhhhhhhhhhh",
"hhhhhhhhhhhhhhhhhhhhhhhhhhhhhhhhhhhhhhhhhhhhhhhhhhhh                hhhhhhhh                hhhhhhhhhhhhhhhhhhhhhhhhhhhhhhhhhhhh",
"hhhhhhhhhh4444hh44hhhhhhhhhhhhhhhhhhhhhhhhhhhhhhhhhh  YYYYyyYYLL  hhhhhhhhhhhh  YYYYyyLL    hhhhhhhhhhhhhhhhhhhhhhhhhhhhhhhhhhhh",
"hhhhhhhhhh4444hh44hhhhhhhhhhhhhhhhhhhhhhhhhhhhhhhhhh  YYYYyyYYLL  hhhhhhhhhhhh  YYYYyyLL    hhhhhhhhhhhhhhhhhhhhhhhhhhhhhhhhhhhh",
"hhhhhh4444hh444444hhhhhhhhhhhhhhhhhhhhhhhhhhhhhhhhhh  YYyyttLLLL  hhhhhhhhhhhh  YYYYyyLLLL  hhhhhhhhhhhhhhhhhhhhhhhhhhhhhhhhhhhh",
"hhhhhh4444hh444444hhhhhhhhhhhhhhhhhhhhhhhhhhhhhhhhhh  YYyyttLLLL  hhhhhhhhhhhh  YYYYyyLLLL  hhhhhhhhhhhhhhhhhhhhhhhhhhhhhhhhhhhh",
"hhhhhhhh4444444444hhhhhhhhhhhhhhhhhhhhhhhhhhhhhhhh  RRYYyyYYLLLL  hhhhhhhhhhhh  YYYYYYyyYYKK  hhhhhhhhhhhhhhhhhhhhhhhhhhhhhhhhhh",
"hhhhhhhh4444444444hhhhhhhhhhhhhhhhhhhhhhhhhhhhhhhh  RRYYyyYYLLLL  hhhhhhhhhhhh  YYYYYYyyYYKK  hhhhhhhhhhhhhhhhhhhhhhhhhhhhhhhhhh",
"hhhhhhhhhh44444444hhhhhhhhhhhhhhhhhhhhhhhhhhhhhh  ,,YYyyttYYLLLL  hhhhhhhhhhhh  RRYYYYYYyyLLKK  hhhhhhhhhhhhhhhhhhhhhhhhhhhhhhhh",
"hhhhhhhhhh44444444hhhhhhhhhhhhhhhhhhhhhhhhhhhhhh  ,,YYyyttYYLLLL  hhhhhhhhhhhh  RRYYYYYYyyLLKK  hhhhhhhhhhhhhhhhhhhhhhhhhhhhhhhh",
"hhhhhhhhhhhh444444hhhhhhhhhhhhhhhhhhhhhhhhhhmm,,  YYyyYYYYLLLLKK  hhhhhhhhhhhhhh  KKLLYYYYttLLKK  hhhhhhhhhhhhhhhhhhhhhhhhhhhhhh",
"hhhhhhhhhhhh444444hhhhhhhhhhhhhhhhhhhhhhhhhhmm,,  YYyyYYYYLLLLKK  hhhhhhhhhhhhhh  KKLLYYYYttLLKK  hhhhhhhhhhhhhhhhhhhhhhhhhhhhhh",
"hhhhhhhhhhhhhhhhhhhhhhhhhhhhhhhhhhhhhhhhhhhh    YYyyLLLLLLLLKK  hhhhhhhhhhhhhhhhhh  KKLLLLLLttLL    hhhhhhhhhhhhhhhhhhhhhhhhhhhh",
"hhhhhhhhhhhhhhhhhhhhhhhhhhhhhhhhhhhhhhhhhhhh    YYyyLLLLLLLLKK  hhhhhhhhhhhhhhhhhh  KKLLLLLLttLL    hhhhhhhhhhhhhhhhhhhhhhhhhhhh",
"hhhhhhhhhhhhhhhhhhhhhhhhhhhhhhhhhhhhhhhhhhBB                  hhhhhhhhhhhhhhhhhhhhhh              hhhhhhhhhhhhhhhhhhhhhhhhhhhhhh",
"hhhhhhhhhhhhhhhhhhhhhhhhhhhhhhhhhhhhhhhhhhBB                  hhhhhhhhhhhhhhhhhhhhhh              hhhhhhhhhhhhhhhhhhhhhhhhhhhhhh",
"hhhhhhhhhhhhhhhhhhhhhhhhhhhhhhhhhhhhhhhhhhhhnnnnbbhhbbhhhhhhhhhhhhhhhhhhhhhhhhhhhhhhhhhhhhhhbbhhhhhhhhhhhhhhhhhhhhhhhhhhhhhhhhhh",
"hhhhhhhhhhhhhhhhhhhhhhhhhhhhhhhhhhhhhhhhhhhhnnnnbbhhbbhhhhhhhhhhhhhhhhhhhhhhhhhhhhhhhhhhhhhhbbhhhhhhhhhhhhhhhhhhhhhhhhhhhhhhhhhh",
"hhhhhhhhhhhhhhhhhhhhhhhhhhhhhhhhhhhhhhhhhhhhhhhhhhhhhhhhhhhhhhhhhhhhhhhhhhhhhhhhhhhhhhhhhhhhhhhhhhhhhhhhhhhhhhhhhhhhhhhhhhhhhhhh",
"hhhhhhhhhhhhhhhhhhhhhhhhhhhhhhhhhhhhhhhhhhhhhhhhhhhhhhhhhhhhhhhhhhhhhhhhhhhhhhhhhhhhhhhhhhhhhhhhhhhhhhhhhhhhhhhhhhhhhhhhhhhhhhhh"
};
