/* XPM */
static char *result[] = {
/* columns rows colors chars-per-pixel */
"128 128 49 1 ",
"  c #335024",
". c #516C34",
"X c #779E4E",
"o c #7DA551",
"O c #7CA452",
"+ c #7DA553",
"@ c #7DA656",
"# c #7FA853",
"$ c #7BA658",
"% c #79A55B",
"& c #5E957C",
"* c #6F9E6A",
"= c #639778",
"- c #80A955",
"; c #82AB57",
": c #84AD59",
"> c #8AB25E",
", c #A0C471",
"< c #1571BC",
"1 c #2E79AE",
"2 c #327DA9",
"3 c #2777B2",
"4 c #2175B7",
"5 c #005FDA",
"6 c #005EDB",
"7 c #005DDD",
"8 c #005CDE",
"9 c #026DC4",
"0 c #056CC5",
"q c #006AC8",
"w c #0069CA",
"e c #0068CC",
"r c #0065D0",
"t c #0063D4",
"y c #0062D6",
"u c #0064D4",
"i c #005BE0",
"p c #005AE1",
"a c #005BE1",
"s c #0059E3",
"d c #005AE2",
"f c #005AE3",
"g c #0059E4",
"h c #0058E5",
"j c #579085",
"k c #589185",
"l c #00B1E2",
"z c #8EFFFF",
"x c white",
/* pixels */
"################################################################################################################################",
"################################################################################################################################",
"################################################################################################################################",
"################################################################################################################################",
"################################################################################################################################",
"################################################################################################################################",
"#############################################,,,################################################################################",
"#############################################,,,################################################################################",
"#############################################,,,,###,,##########################################################################",
"#############################################,,,,#,,,,############################################################   ###########",
"#############################################,,,,,,,,,############################################################   ###########",
"#############################################,,,,,,,,############################################################    ###########",
"##############################################,,,,,#############################################################     ###########",
"#######################################-######,,,,##############################################################     ###########",
"#######################################;###################################################################..##      ###########",
"#######################################>###################################################################...      ############",
"###########################################################################################################...        ##########",
"###########################################################################################################....       ##########",
"############################################################################################################....      ##########",
"##########################################:#################################################################......   ###########",
"##############################################################################################################.....#############",
"################################################################################################################################",
"##################..############################################################################################################",
"####,,,,######,,##...###########################################################################################################",
"####,,,,,####,,,,#...###########################################################################################################",
"####,,,,,,###,,,,#....##########################################################################################################",
"#####,,,,,,.#,,,,#.....#########################################################################################################",
"#####,,,,,,,.,,,,#.....###...###################################################################################################",
"######,,,,,,,,,,,#.....#.....###################################################################################################",
"######,,,,,,,,,,,............###########################################X#######################################################",
"#####,,,,,,,,,,,,............###########################################O#######################################################",
"#####,,,,,,,,,,,,...........############################################+#######################################################",
"#####,,,,,,,,,,,,.........#################hhhhh################################################################################",
"#######,,,,,,,,,........###############hhhhhhhhhhhhh#hhhhhhh####################################################################",
"########,,,,,,,,..#..##############hhhhhhhhhhhhhhhhhhhhhhhhhhhhh################################################################",
"#########,,,,###################hhhhhhhhhhhhhhhhhhhhhhhhhhhhhhhhhh##############################################################",
"##########,,,##################hhhhhhhhhhhhhhhhhhhhhhhhhhhhhhhhhhhhhh###########################################################",
"#############################hhhhg6hhhhhhhhhhhhhhllllllhhhhhhhhhhhhhhhhhh#######################################################",
"############################hhhghhhhhhhhllllllllllllllllllhhhhhhhhhhhhhhhhhhhh##################################################",
"#########################$yhhhhhhlllllllllllllllllllllllllllhhhhhhhhhhhhhhhhhhhhhh##############################################",
"########################%dhhhhhhlllllllllllllllllllllllllllllllllllllllhhhhhhhhhhhhhhh##########################################",
"########################7hhhhhhllllllllllllllllllllllllllllllllllllllllllllhhhhhhhhhhhhhhh######################################",
"#######################hhhhhhlllllllllllllllllllllllllllllllllllllllllllllllllhhhhhhhhhhhhhhhh##################################",
"#######################hhhhlllllllllllzzllzzzzzzzzzzzzzzzzzzllllllllllllllllllllllhhhhhhhhhhhhhhhhh#############################",
"######################hhhlllllllllllzzzzzzzzzzzzzzzzzzzzzllllllllllllllllhhhhhhhhhhhhhhhhhhhhhhhhhhhhh##########################",
"#####################hhhlllllllllzzzzzzzzzzzzzzzzzzzlllllllllllllllllllhhhhhhhhhhhhhhhdrhhhhhhhhiu9h#hhhhhh#####################",
"#####################hhllllllllzzzzzzzzzzzzzzzzzzzllllllllllllllllhhhhhhhhhhhhhhhht#########j=*#################################",
"#####################hhlllllllzzzzzzzzzzzzzzzzzzllllllllllllllllhhhhhhhhhhhhhhhh0k&#############################################",
"####################hhlllllllzzzzzzzzzzzzzzzzzzlllllllllllllllhhhhhhhhhhhhhhhhhh1<phhhh#########################################",
"####################hlllllllzzzzzzzzzzzzzzzzzzzzzlllllllllllllhhhhhhhhhhhhhhhhhhhhhhhhhhhhhhhhhhh###############################",
"###################hhllllllzzzzzzzzzzzzzzzzzzzzzzzzzlllllllllllhhhhhhhhhhhhhhhhhhhhhhhhh########################################",
"###################hllllllzzzzzzzzzzzzzzzzzzzzzzzzzzlllzllllllllllhhhhhhhhh#####################################################",
"##################hhlllllzzzzzzzzzzzzzzzzzzzlllllllllllllllllllllllllhhhhhhhhh##################################################",
"##################h8llllzzzzzzzzzzzzzzzzzzzzzllllllllllllllllllllllllllhhhhhhhhhhhhh############################################",
"##################hqllllzzzzzzzzzzzzzzzzzzzzzzzzzllllllllllllllllllhhhhhhhhhhhhhhhhhhhhhh#######################################",
"##################hllllzzzzzzzzzzzzzzzzzzzzzzzzzzzzlllllllllllllllllhhhhhhhhhhhhhhhhhhhh########################################",
"##################dlllzzzzzzzzzzzzzzzzzzzzzzzzzzzzzzzzllllllllllllllllhhhhh##hhhhhhh############################################",
"##################5lllzzzzzzzzzzzzzzzzzzzzzzzzzzzzzzzzzzzlllllllllllllll########################################################",
"##################wllzzzzzzzxxxxxxzzzzzzzzzzzzzzzzzzzzzzzzzzllllllllllll########################################################",
"#################h3lzzzzzzzxxxxxxxxxxzzzzzzzzzzzzzzzzzzzzzzzzlllllllllllll######################################################",
"#################gllzzzzzzzxxxxxxxxxxxxxxxxzzzzzzzzzzzzzzzzzzzzzzzzlllllxxxxxxxxxxx#############################################",
"#################sllzzzzzzxxxxxxxxxxxxxxxxxxxxxzzzzzzzzzzzzzzzzzzzzzzzzzxxxxxxxx################################################",
"#################fllzzzzzzxxxxxxxxxxxxxxxxxxxxxxxxxxxxxxzzzzzzxxxxxxxxxxxxxxxxxxxxx#xxxx########################################",
"#################alzzzzzzzxxxxxxxxxxxxxxxxxxxxxxxxxxxxxxxxxxxxxxxxxxxxxxxxxxxxxxxxxxxxxxxxxxxxxxxxxxxxxxxxx#######xxxxxxx#######",
"#################alzzzzzzzxxxxxxxxxxxxxxxxxxxxxxxxxxxxxxxxxxxxxxxxxxxxxxxxxxxxxxxxxxxxxxxxxxxxxxx###############################",
"#################dlzzzzzzzxxxxxxxxxxxxxxxxxxxxxxxxxxxxxxxxxxxxxxxxxxxxxxxxxxxxxxxxxxxxxxxxx#####################################",
"#################slzzzzzzzxxxxxxxxxxxxxxxxxxxxxxzzzzzzzzzzzzzzzzzxxxxxxxxxxxxxxxxxxxxx####x#####################################",
"#################glzzzzzzzzxxxxxxxxxxxxxxzzzzzzzzzzzzzzzzzzzzzzzzzxxxxxxxxxxxx##################################################",
"#################hlzzzzzzzzzxxxxxxxxxzzzzzzzzzzzzzzzzzzzzzzzzzzzzzzzzlll########################################################",
"#################hllzzzzzzzzzxxxxxzzzzzzzzzzzzzzzzzzzzzzzzzzzzzzzzzzzlllll###l##################################################",
"#################hllzzzzzzzzzzzzzzzzzzzzzzzzzzzzzzzzzzzzzzzzzzzzlllllllllllllllll###############################################",
"#################hlllzzzzzzzzzzzzzzzzzzzzzzzzzzzzzzzzzzzzzzzzzllllllllllllllllllhhh####hhhhhhhhhhhhhh###########################",
"#################hlllzzzzzzzzzzzzzzzzzzzzzzzzzzzzzzzzzzzzzzllllllllllllllllllllhhhhhhhhhhhhh####################################",
"##################llllzzzzzzzzzzzzzzzzzzzzzzzzzzzzzzzzlllllllllllllllllllllllllhhhhhh###########################################",
"##################hllllzzzzzzzzzzzzzzzzzzzzzzzzzzzzzlllllllllllllllllllllllllhhhhhhhhhhhhhhhhhhhhhhhhhhhhhh#####################",
"##################hlllllzzzzzzzzzzzzzzzzzzzzzzzzzzzzzzzzllzlllllllllllllhhhhhhhhhhhhhhhhhhhhhhhhhhhhhhhhhhh#####################",
"##################hhllllzzzzzzzzzzzzzzzzzzzzzzzzzzzzzzzzzzzzllllllllllllllhhlllhhhhhhhhhhhhhhhhhhhhhh###########################",
"##################hhllllllzzzzzzzzzzzzzzzzzzzzzzzzzzzzzzzzzzzzzzzzzzllllllllllllllllllhhhhhhhhhhhhhh############################",
"###################hlllllllzzzzzzzzzzzzzzzzzzzzzzzzzzzzzzzzzzzzzzzzzlllllllllllhhhhhhhhhhhhhh###################################",
"###################hhllllllllzzzzzzzzzzzzzzzzzzzzzzzzzzzzzzzzzzzzlllllllllllhhhhhhhhhhhhh#######################################",
"####################hh4lllllllzzzzzzzzzzzzzzzzzzzzzzzzzzzzzzzzlllllllllllhhhhhhhhhhhhhh#########################################",
"####################hhi2lllllllzzzzzzzzzzzzzzzzzzzzzzzzzzzllllllllllllhhhhhhhhhhhhhhh###########################################",
"######################h83lllllllllzzzzzzzzzzzzzzzzzzzzlllllllllllllllhhhhhhhhhhhhhhhhhhhhhhhh###################################",
"######################hhdellllllllllzzzzzzzzzzzzzzllllllllllllllllllllhhhhhhhhhhhhhhhhhhhhhhhhhhhhhhhhhhh#######################",
"#######################hhhilhlllllllllllzzzzzllllllllllllllllllllllllllllllllhhhhhhhhhhhhhhhhhhhhhhhhhhhhhhhhh##################",
"########################hhhhhhllllllllllllzzzzzllllllllllllllllllllllllllllllllllhhhhhhhhhhhhhhhhhhhhhh#########################",
"#########################hhhhhhlllllllllllllzzzzzzzllllllllllllllllllllllllllllhhhhhhhhhhhhhhhhhh.##############################",
"###########################hhhhhhhlllllllllllllzlllllllllllllllllllllllllllhhhhhhhhhhhhhhhhhhh##########...#####################",
"############################hhhhhhhllllllllllllllllllllllllllllllllllllhhhhhhhhhhhhhhhh############.......######################",
"#############################hhhhhhhllllllllllllllllllllllllllllhhhhhhhhhhhhhhhhhhhh############..........######################",
"###############################hhhhhhhhllllllllllllllllhhhhhhhhhhhhhhhhhhhhhhhhh################.........#######################",
"################################hhhhhhhhhllllllhhhhhhhhhhhhhhhhhhhhhhhhh#########################......#########################",
"#################################hhhhhhhhhhhhhhhhhhhhhhhhhhhhhhhhhh#############################################################",
"###################################hhhhhhhhhhhhhhhhhhhhhhhhhhhh#o###############################################################",
"#######################################hhhhhhshhhhhhhh##########################################################################",
"#########################################hhh#@##################################################################################",
"################################################################################################################################",
"################################################################################################################################",
"################################################################################################################################",
"################################################################################################################################",
"################################################################################################################################",
"################################################################################################################################",
"################################################################################################################################",
"################################################################################################################################",
"################################################################################################################################",
"################################################################################################################################",
"################################################################################################################################",
"################################################################################################################################",
"################################################################################################################################",
"##########   ###################################################################################################################",
"##########   ###  ##############################################################################################################",
"######   #    #   ##############################################################################################################",
"######    #       ##############################################################################################################",
"#######           ##############################################################################################################",
"#######           ##############################################################################################################",
"########          ##############################################################################################################",
"#########         ##############################################################################################################",
"##########        ##############################################################################################################",
"###########      ###############################################################################################################",
"############    ################################################################################################################",
"################################################################################################################################",
"################################################################################################################################",
"################################################################################################################################",
"################################################################################################################################",
"################################################################################################################################",
"################################################################################################################################",
"################################################################################################################################",
"################################################################################################################################"
};
