/* XPM */
static char *_ace78cba8894197fc2fed476312825c737Qw2CfVJqn7cSa[] = {
/* columns rows colors chars-per-pixel */
"64 64 176 2 ",
"  c #B1B1B1",
".  c #082656",
"X  c #072857",
"o  c #0B2856",
"O  c #0E2B59",
"+  c #102657",
"@  c #172F5D",
"#  c #1C2E5D",
"$  c #16305F",
"%  c #1B325E",
"&  c #22315E",
"*  c #1F2F60",
"=  c #1D3262",
"-  c #1D3B65",
";  c #213362",
":  c #243B66",
">  c #2A3B67",
",  c #283769",
"<  c #253C68",
"1  c #2B3E6C",
"2  c #2F3E70",
"3  c #26426B",
"4  c #2B436D",
"5  c #2C4A6F",
"6  c #31446E",
"7  c #2D4671",
"8  c #2E4B73",
"9  c #324671",
"0  c #324A74",
"q  c #3B4D76",
"w  c #344B78",
"e  c #3A4E7B",
"r  c #365179",
"t  c #3B537D",
"y  c #40547D",
"u  c #3F5781",
"i  c #3E5B83",
"p  c #3E6189",
"a  c #415680",
"s  c #435B83",
"d  c #485D85",
"f  c #455F8A",
"g  c #495F88",
"h  c #456187",
"j  c #486086",
"k  c #45638A",
"l  c #4C668C",
"z  c #476B8F",
"x  c #4C698E",
"c  c #51648B",
"v  c #516A8F",
"b  c #5B698A",
"n  c #4D6691",
"m  c #4D6B91",
"M  c #526D92",
"N  c #596F97",
"B  c #557396",
"V  c #5A7397",
"C  c #557399",
"Z  c #5B7499",
"A  c #5E7A9C",
"S  c #617093",
"D  c #61779B",
"F  c #617E9E",
"G  c #5F7BA0",
"H  c #657CA1",
"J  c #697FA4",
"K  c #65819F",
"L  c #6681A2",
"P  c #6981A4",
"I  c #6C8AA7",
"U  c #6D86AA",
"Y  c #6D8BAA",
"T  c #738AA6",
"R  c #7F88A5",
"E  c #728DAC",
"W  c #7A8EAD",
"Q  c #7390AE",
"!  c #7B92AE",
"~  c #768FB0",
"^  c #7692B1",
"/  c #7C96B4",
"(  c #7798B5",
")  c #7C99B6",
"_  c #7F9CBA",
"`  c #8090AB",
"'  c #8097B4",
"]  c #829AB7",
"[  c #8096BA",
"{  c #839EBB",
"}  c #899FBB",
"|  c #939BB2",
" . c #84A0BC",
".. c #8AA3BE",
"X. c #8AA8BE",
"o. c #91A2BE",
"O. c #98A7BE",
"+. c #86A4C1",
"@. c #8BA6C2",
"#. c #86A8C2",
"$. c #8CA9C3",
"%. c #8FABC8",
"&. c #90A7C2",
"*. c #92AAC4",
"=. c #99ADC6",
"-. c #94ADC9",
";. c #98AFCB",
":. c #8EB0C9",
">. c #9AB1C6",
",. c #96B2CC",
"<. c #9DB4CC",
"1. c #9FB8CE",
"2. c #96B5D0",
"3. c #9DB6D0",
"4. c #9FB9D2",
"5. c #A1B6CD",
"6. c #A2BACF",
"7. c #A5B7D1",
"8. c #A4BCD2",
"9. c #A9BED3",
"0. c #A6BFDC",
"q. c #ACBFD8",
"w. c #B0BFD7",
"e. c #A7C0D6",
"r. c #ABC1D6",
"t. c #ADC3D9",
"y. c #B3C6DB",
"u. c #B6CDDF",
"i. c #B3C9DC",
"p. c #B9CBDF",
"a. c #B8CBDC",
"s. c #BACCDD",
"d. c #BACCDF",
"f. c #B9CCDF",
"g. c #BACDDD",
"h. c #B6CCE0",
"j. c #B7CEE1",
"k. c #B5CCE2",
"l. c #B9CCE0",
"z. c #B9CFE2",
"x. c #BDCFE2",
"c. c #BCCEE2",
"v. c #BED0E2",
"b. c #BCD5E2",
"n. c #BED5E6",
"m. c #BDD2E4",
"M. c #BFD7E9",
"N. c #BED4E9",
"B. c #C5D7E6",
"V. c #C1D3E5",
"C. c #C2D8E7",
"Z. c #C3D8E6",
"A. c #C0D3EB",
"S. c #C2D6EA",
"D. c #C6D7E8",
"F. c #C5D7EB",
"G. c #C1D7EC",
"H. c #C2D5E8",
"J. c #CAD7EA",
"K. c #C2D8E8",
"L. c #C1D8EA",
"P. c #C5D8E8",
"I. c #C2D9EC",
"U. c #C5DAEB",
"Y. c #C8DEED",
"T. c #CDDDEE",
"R. c #D0DDEF",
"E. c #CEDEF0",
"W. c #D0DFF1",
"Q. c #CEE0EF",
"!. c #CCE3F3",
"~. c #CDE1F1",
"^. c #D2E2F3",
"/. c #D1E5F8",
"(. c #D6ECFF",
"). c #F2F4F9",
/* pixels */
"                          -... . . . .+.@.} 4 q Z C  ... . . . ... .@.                                  9.;.$.c 9 B B ] X.*.s.).",
"                          @. . . . . . . .] : 4 M m {  . . . . . . . .@.                          >.@. .}  .+.d 1 n k /  . . .6.",
"                          j.u.u.j.l.p.r.] ) : 4 M m p.d.d.d.u.u.u.u.d.d.                          j.l.p.i.@. .s > l h 8.l.u.u.d.",
"                          C.C.K.G.G.B.p.] ) : 4 M z A.B.B.B.K.K.K.K.F.F.                        K.I.F.G.n.$. .s : l s i.U.K.U.F.",
"                      &.&.&.&.&.&.&.n.y.] ) : 4 M m @.*.$.$.$.$.$.$.$.$.$.$.$.*.-.;.-.-.$.$.$.$.&.&.-.l.c.&. .s : l k } *.$.$.$.",
"              .._ ) ) ) ) ) ) ) ] } M.y.] ) : 4 M m / ) ) ) ) ) ) ) ) ) ) ) ) ) ) ) ) ) ) ) ) ) ) ) } p.c.@...s : l k ^ _ ) ) ) ",
"           . . . . . . . . . . .} ..M.y.] ] : 4 M m {  . . . . . . . . . . . . . . . . . . . . . . .X.j.m.$...y : l k _  . . . .",
"          $.@.@.@.@.@.@.@.@.@.@.$.*.!.b.+.} : 4 M m +.$.$.@.@.@.@.@.@.@.@.@.@.@.@.@.@.@.@.@.@.@.@.@.;.I.Y.,.*.s : l l { $.@.@.$.",
"          K F F F F F F F F F F F H E E A D < 4 M m A A F F F F F F F F F F F F F F F F F F F F F F K E / L F r : x x D F F F F ",
"          v x x x x x x x x x x x x s g v l : 4 Z B x l l l l l l l l l l l l l l l l l l l l l l l l f s l v w : M V v x x x x ",
"          a t t t t t t t t t t t t t t t e 1 4 t t t t t t t t t t t t t t t t t t t t t t t t t t t t r r t 9 1 r t t t t t t ",
"          @ . . . . . . . . X O : : X X X o = $ O O X X X X X X = : @ o X X X X o o X X X X X X O : : o X X + @ $ o X o o X X X ",
"          F Z Z Z Z Z Z Z Z Z M 1 7 D Z Z Z Z Z Z Z Z Z Z Z Z Z e 1 s Z Z Z Z Z Z Z Z Z Z Z Z Z v 4 9 M Z Z Z Z Z Z Z Z Z Z Z Z ",
"          ;.@.@.@.@.@.@.@.*.;.] : 8 0.<.@.&.@.@.@.@.@.@.@.@.-.;.l 1 U 8.-...@.@.@.@.@.@.@.@.$.;.{ 0 q -.8.$.@.@.@.@.@.@.@.@.@.*.",
"                        <.-.} E : 7 E ! 6.<.<.<.<.<.<.<.<.<...} j 4 v Y } 5.<.<.<.<.<.<.<.<.>. .E 7 9 L Y -.<.<.5.5.5.5.<.<.5.&.",
"                        U.r.} E - 4 g D (.!.!.!.^.W.~.!.U.G.*.} j 3 r i @./.!.!.!.!.!.!.E.J.h. .E 9 6 s k k.~.~.E.W.!.!.!.Y.U.8.",
"                        m.8.} E : 4 M D t.8.8.9.8.8.8.8.d.d.*.{ j 3 s x / r.8.8.9.8.8.8.r.V.y. .E 9 9 l m <.8.8.8.8.8.8.8.p.m.<.",
"           . . . . ...t.W.i.../ < 7 m V ] ' ' ) ) ) ) / y.c.*.{ h 3 s x I X.} } }  .} } -.^.A.*.^ 7 9 l M Q ) ) ) ) ) ) ^ 9.n.<.",
"        ..Q Q Q Q Q Q ..<.@.E L < 4 M Z @. . . . . . .{ i.c.*.{ h 3 s m G ^ E E Q Q Q Q / ,.&.^ L 6 9 l m )  . . . . . ._ r.V.<.",
"      O.M x x x x n x l k k x h 3 4 M Z @. . . . . . .{ i.c.*.{ h 3 s B M x x x m m x x x k k x h 6 9 l m )  . . . . . ._ r.H.1.",
"      V g k k g g k k k g j k s 1 4 M Z @. . . . . . .{ i.l.&.} j 3 t j j g d d j j j j k f g j s 4 9 l m /  . . . . . ._ r.H.5.",
"    y % $ $ $ $ % = = = = = = ; 4 4 m Z @. . . . . . .{ i.l.&.} j 3 : % = = $ $ = = $ $ = = $ $ - 4 7 l m /  . . . . . ._ r.V.5.",
"    u r r r r r r r r r r r r 0 1 4 m Z @. . . . . . .{ i.l.&.} j 3 w r r r r r r r r r r r r r 0 4 7 v m /  . . . . . ._ r.V.5.",
"    ,.} { { { } } } { } {  .+.E : 4 m Z @. . . . . . .{ y.l.*.} j 3 H $. .{ { { } } } } } } }  .^ 7 7 l m /  . . . . . ._ r.n.<.",
"      &.&.&.&.&.&.&.&.&.&.@.+.^ : 4 m Z @. . . . . . .{ i.l.*.{ j 3 Z  ...&.&.&.&.&.&.@.&.&.&...^ 9 9 l m /  . . . . . ._ r.n.<.",
"    W m.V.V.V.n.m.n.m.m.m.8.} E : 4 m Z @. . . . . . .{ l.V.*.{ h 3 s z ..K.V.V.b.b.b.b.m.m.y. .E 9 9 n x /  . . . . . .) t.B.6.",
"    ` m.V.V.V.V.m.m.m.V.V.9.} E : 4 m Z @. . . . . . .{ y.j.$.{ h 3 u k } G.V.V.m.m.m.V.m.H.y. .Q 9 9 l m /  . . . . . ._ 8.m.<.",
"    ! +.$.@.@.@.@.@...r.G.r...E : 4 m Z @. . . . . . . .X.@.+. .j 3 s x I $.@.@.@.@.@.@.;.F.p.@.Q 9 6 l m _  . . . . . . ...X.@.",
"    T _ { _ _ _ _ _ { 8.N.e. .E : 4 M Z $. .+. . .+.+.+.{ {  . .j 4 s x L { { _ _ _ _ _ @.N.y.+.E 9 9 l m /  . . . .+.+. .{ { { ",
"    L V B C C Z Z C C A G A B M < 7 M M Z V V B B V V V V V B B r 1 s m B C C C C C C C Z H D Z x 6 9 x m B B B B B B B C C B V ",
"    A x x x x x x x x k k k n f 3 4 V M x l l x x x l l l l x l 0 1 s M M x x x x x x x l k l n k 4 9 x M x x x x x x x x x x l ",
"    w 0 0 0 0 0 0 0 0 0 0 0 0 0 4 4 w 0 0 0 0 0 0 0 0 0 0 0 0 0 7 4 4 8 0 0 0 0 0 0 0 0 0 0 0 0 0 3 4 9 0 0 0 w 0 0 0 0 0 0 0 0 ",
"  | 1 > > > > > > > > > > > > 1 4 4 < < < < < < < < : : < < : : 1 4 3 : < < : : < < : : : : < < < 3 1 > : : < < < < < < < : : < ",
"  R 4 1 1 1 1 1 1 1 1 1 1 1 1 1 1 1 1 1 1 1 4 4 1 4 1 1 1 1 1 1 1 1 1 1 1 1 1 1 1 1 1 1 1 1 1 1 1 1 1 1 1 1 4 4 4 4 4 1 1 1 1 1 ",
"  b ; ; ; ; ; ; ; ; ; ; ; ; ; ; ; ; ; ; ; = 4 4 < < = = = = = = = = = = = = = = = = = = = = = = = = = = = = = < 4 : < = = = = = ",
"  / L L L L L K K L L L L L L L L L K L P H : 4 s s J L J J J P J J J P J J P P J J L L J J P P P L L P P P P t < s u G L K J J ",
"  -.@.@.@.@.@.#.#.@.@.@.@.#.#.#.@.#.#.$.,.@.= 4 Z C #.#.#.$.$.$.#.#.#.#.#.#.$.$.#.#.#.#.#.#.#.#.#.#.#.#.#.-.,.j : N m _ #.@.@.@.",
"                                      3.} ] : 4 M m 4.8.8.8.8.8.6.8.8.8.6.8.8.8.6.6.8.8.8.6.8.8.8.8.8.6.8.@. .s > l k ;.        ",
"                                      z.] ] ; 4 M v T.!.Q.Q.!.!.Q.^.W.W.Q.!.W.W.Q.Q.W.W.Q.Q.W.W.!.!.E.J.C.$. .s > x i           ",
"                                      y.] ) ; 4 M M 7.7.8.8.7.7.7.7.6.6.8.8.6.6.8.8.6.6.8.8.6.6.6.6.8.c.c.&. .s > x k -.        ",
"  ) ( / / / / / / ) ) ) ) ) ) ) / ] A.y.] ) ; 4 M m ^ / ) ) / / / / ( ) ) ) ( ( ) ) ^ ( ) ) ( ( ( ( { p.c.&. .s > l l Q ) >.    ",
"9. . . . . . . . . . . . . . . . ...V.y.] ) ; 4 M m {  . . . . . . . . . . . . . . .}  . . . . . . .@.j.c.&. .s > l k _         ",
"<.$.$.$.$.$.$.$.$.$.$.$.$.$.$.$.$.=.^.H.....; 4 M m @.$.$.$.$.$.$.$.$.$.$.$.$.$.$.$.$.$.$.$.$.$.$.$.;.Y.E.,.*.s : l k $.        ",
"^ E E E E E E E E E E E E E E E E ! ;.*.E Y - 4 M x E E E E E E E E E E E E E E E E E E E E E E E E ! *.=.^ Q t < x x =.        ",
"x x x x x x x x x x x x x x x x x n p k x l < 4 Z B x n m m m m n n n n n n n n n n n n n n n n m m x h h x x 0 > M Z           ",
"f h h f f h h k k h h f f f h k f k h h k s 1 4 j k f f f f f f p h f f k k f f s s f f k p f f s s s s s f j 0 < s v           ",
"1 # # # # # # @ @ # # # # # # % 1 > # @ @ $ = = @ # # # # # # @ : : ; @ # # # # # # # # @ @ # # # > : * @ @ @ = = # 1           ",
"1 y y t t t t y y y t t t t t e 1 4 y y y t y y y y y y y y y y 9 2 w y y y y y y y y y y y y y t 4 7 t y y y y y y d           ",
"- ;.-. . . . . . . . . . . .@.^ < 5 ,.$. . . . . . . . . . .X...j 1 L -.+.{  . . . . . . . . .@./ 9 8  .%. . . . . . .          ",
":  .) $.#.#.#.#.#.#.#.#.#.X...~ < 5  .{ $.$.$.$.$.$.$.$.$.#.@...j 1 Z _  .$.#.$.$.#.#.#.#.#.$. .Q 9 w ^ { @.$.$.#.#.$.*.        ",
"< M s n.G.G.G.H.H.H.G.m.m.8.} E < 7 M F Y.H.H.G.G.G.G.G.m.l.$.} d 1 s l } U.G.G.G.G.G.G.H.m.t. .Y 9 9 l M t.M.M.G.G.G.G.        ",
"< x s l.m.x.x.c.c.x.c.m.V.9.} E : 4 x F U.c.c.c.c.c.c.x.V.m.*. .h 3 s l } A.c.c.c.c.c.c.m.V.y...E 9 9 l M 9.m.x.c.c.c.          ",
"< M k +.+.@.@.X.X.X.@.8.B.t.+.W : 4 m Z @..... . . ...} p.d.*. .h 3 s m Y $.@.@.....@.@.-.C.h.@.Q 7 7 x x ) ..........&.        ",
"1 M l _ { _ _ _ _ _ ] 6.m.8.} E : 4 m C  ._ _ _ _ _ _ ] y.l.$.} d 1 s x L { { _ _ _ _ ] @.m.t...E 7 7 x m ^ _ _ _ _  .          ",
"1 M m B C B C C C C B Z Z V V x 3 4 m Z @. . . . . . .{ y.l.*.} d 1 s m M C B C C C C C Z Z Z B x 7 7 x m /  . . . .            ",
"1 M M n x x x x x x n l k k x j 3 4 m Z @. . . . . . .{ y.l.*.} j 4 s M m x x x x x x x l k k x j 7 7 x m /  . . .=.            ",
"4 9 9 9 9 9 9 9 9 4 7 9 9 9 8 7 4 4 m Z @. . . . . . .{ y.l.*.} j 3 9 9 9 9 9 9 7 7 9 9 9 9 9 7 7 7 7 x x /  . .@.              ",
"4 & % % % % % & & % % % & & & ; 4 4 m Z @. . . . . . .{ y.l.*. .j 4 , & & & & & & & & & & & & % = 3 7 x m ) @.                  ",
": E E E Y Y Y Y Y Y Y Y Y E E H < 4 m Z @. . . . . . .{ y.l.$.{ j 4 M W E E E E E E E E E E E E F 7 7 M I                       ",
"; 4.,.+.@.@.@.+.+.@.@.+.+.$.;.[ : 4 m Z X. . . . . . .{ y.l.$.{ j 3 P 2.:.+.@.@.@.@.@.@.@.@.@.%.( e S                           ",
"> H Z r.r.t.t.r.r.q.w.r.r.<.} E : 4 m V X. . . . . . .{ i.l.$.{ j 3 l A  .t.r.r.r.r.r.r.r.q.6. .) |                             ",
"1 j e Y.W.W.W.T.T.R.R.J.U.r.} E : 4 m Z @. . . . . . .} z.n.*.} d 1 t s o.^.T.T.T.T.T.T.T.C.p.$.                                ",
"1 m h ,.<.<.<.,.,.,.<.r.m.8.} E : 4 m Z @. . . . . . .} ,.,.X.} d 1 s n Q <.>.>.,.,.,.,.                                        ",
"1 m k }  . . .{ { { } t.~.j.&./ : 4 M Z ;.$.$.$.$.$.$.$. . .@.@.l 4 s x I +. . . . . .} =.                                      "
};
