/* XPM */
static char *_1c9a0b03c144597f996f2d14c0898b8ghc4IIqwy1nthKQs[] = {
/* columns rows colors chars-per-pixel */
"64 64 154 2 ",
"  c #B1B1B1",
".  c black",
"X  c #010101",
"o  c #020202",
"O  c gray1",
"+  c #070000",
"@  c #070707",
"#  c #0D0202",
"$  c #0A0707",
"%  c #0B0B0B",
"&  c #0E0E0E",
"*  c #130001",
"=  c #120707",
"-  c #111111",
";  c #181818",
":  c #2B0204",
">  c #341B1C",
",  c gray17",
"<  c #2D2D2D",
"1  c gray21",
"2  c #490509",
"3  c #57060C",
"4  c #7B0610",
"5  c #710810",
"6  c #691519",
"7  c #434343",
"8  c #464646",
"9  c #795859",
"0  c gray49",
"q  c #840914",
"w  c #850914",
"e  c #8D0A16",
"r  c #940C18",
"t  c #990D19",
"y  c #A40D1A",
"u  c #A5131E",
"i  c #AD101D",
"p  c #AE282F",
"a  c #C51222",
"s  c #D51425",
"d  c #D11927",
"f  c #E51729",
"g  c #FC1B2F",
"h  c #FE1A2E",
"j  c #FF1B2F",
"k  c #FF1C30",
"l  c #FF1D31",
"z  c #FF1E31",
"x  c #FF1D32",
"c  c #FF1E34",
"v  c #FF1F34",
"b  c #FF2034",
"n  c #FF2135",
"m  c #FF2337",
"M  c #FF273A",
"N  c #FF293B",
"B  c #F82D3A",
"V  c #FF2B3C",
"C  c #FF2D3E",
"Z  c #E93842",
"A  c #FF3140",
"S  c #FF3341",
"D  c #FF3644",
"F  c #FF3845",
"G  c #FF3A47",
"H  c #FF3B48",
"J  c #FF3D49",
"K  c #8E4244",
"L  c #FF434D",
"P  c #FF434E",
"I  c #FF4953",
"U  c #FF4C55",
"Y  c #FF4D56",
"T  c #FF4E58",
"R  c #FF5059",
"E  c #FF545C",
"W  c #FF5E64",
"Q  c #FF5F67",
"!  c #FF6168",
"~  c #FF6970",
"^  c #FF6D73",
"/  c #FF7176",
"(  c #FF7E82",
")  c #8D8D8D",
"_  c #9C9999",
"`  c gray62",
"'  c #9F9F9F",
"]  c #A19C9C",
"[  c #AEAEAE",
"{  c #AFAFAF",
"}  c #B1B1B1",
"|  c #CA9697",
" . c #FF8084",
".. c #FF8185",
"X. c #FF8489",
"o. c #FF878B",
"O. c #FF8A8E",
"+. c #FF8C90",
"@. c #FF9093",
"#. c #FF9295",
"$. c #FF9498",
"%. c #FF9599",
"&. c #FF9B9D",
"*. c #FF9DA0",
"=. c #FFA2A5",
"-. c #FFA5A7",
";. c #FFA6A8",
":. c #FFAFB2",
">. c #FFB1B4",
",. c #FFB3B5",
"<. c #FFB4B6",
"1. c #FFB7B9",
"2. c #FFB8BA",
"3. c #FFBBBD",
"4. c #C3C3C3",
"5. c #C5C5C5",
"6. c gray78",
"7. c #C8C8C8",
"8. c gray79",
"9. c #CACACA",
"0. c #D2D2D2",
"q. c #D8D1D1",
"w. c #DDDDDD",
"e. c gray87",
"r. c #DFDFDF",
"t. c #FFC5C6",
"y. c #FFCBCC",
"u. c #FFCFD0",
"i. c #FFD0D1",
"p. c #FFD4D5",
"a. c #FFD5D6",
"s. c #FFD7D8",
"d. c #FFD8D9",
"f. c #FFDEDF",
"g. c #FFDFE0",
"h. c #ECEBEB",
"j. c #ECECEC",
"k. c #EEEEEE",
"l. c #FFE3E3",
"z. c #FFE7E7",
"x. c #FFEDED",
"c. c #FFEFEF",
"v. c #F3F3F3",
"b. c gray96",
"n. c gray97",
"m. c #FFF3F3",
"M. c #FFF4F4",
"N. c #FFF5F5",
"B. c #FFF6F6",
"V. c #FFF8F8",
"C. c #FFFCFC",
"Z. c #FFFDFD",
"A. c #FFFEFE",
"S. c white",
/* pixels */
"                                                                                                                                ",
"                                                                                                                                ",
"                                                                                                                                ",
"                                                                                                                                ",
"                                                                                                                                ",
"                                                                                                                                ",
"                                                                                                                                ",
"                                                                                                                                ",
"                                                                                                                                ",
"                                                                                                                                ",
"                                                            c c c c c c                                                         ",
"                                                  c c c c c c c c c c c c c c c                                                 ",
"                                              c c c c c c c c c c c c c c c c c c c                                             ",
"                                          c c c c c c c c c c c c c c c c c c c c c c c                                         ",
"                                        c c c c c c c c c c c c c c c c c c c c c c c c c c                                     ",
"                                    c c c c c c c c c c c c c c c c c c c c c c c c c c c c c                                   ",
"                                  c c c c c c c c c c c c c c c c c c c c c c c c c c c c c c c                                 ",
"                                c c c c c c c c c c c c c c c c c c c c c c c c c c c c c c c c c                               ",
"                              c c c c c c c c c c c c c c c c c c c c c c c c c c c c c c c c c c c                             ",
"                              c c c c c c c c c c c c c c c c c c c c c c c c c c c c c c c c c c c c                           ",
"                            c c c c c c c c M D H V c c c c c c c c c c c c c c c c c c c c c c c c c c                         ",
"                          c c c c c c c b L ..>.1.( S c c c c c c c c c b D T Y S b c c c c c c c c c c                         ",
"                          c c c c c c x p 9 ] h.A.m.o.M c c c c c c h f Z &.d.i.@.J b c c c c c c c c c c                       ",
"                        c c c c c c x i # . @ ) b.A.z.R c c c c c x e : > _ v.A.B.+.C c c c c c c c c c c                       ",
"                        c c c c c c h 3 . . . < w.A.A...c c c c c s * . . , 0.A.A.g.R c c c c c c c c c c c                     ",
"                      c c c c c c c h 2 . . . & 9.A.A.-.c c c c c y . . . . } A.A.A...b c c c c c c c c c c                     ",
"                      c c c c c c c x 5 . . . @ 4.A.A.3.b c c c c q . . . . ' A.A.A.2.V c c c c c c c c c c                     ",
"                      c c c c c c c c r . . . % 5.A.A.y.S c c c c 4 . . . . ' A.A.A.f.H c c c c c c c c c c c                   ",
"                      c c c c c c c c u . . . - 9.A.A.p.H c c c c q . . . . ' A.A.A.c.R c c c c c c c c c c c                   ",
"                    c c c c c c c c c d = . . 7 w.A.A.i.H c c c c t . . . . { A.A.A.B.W c c c c c c c c c c c                   ",
"                    c c c c c c c c c x K 1 8 { b.A.A.t.S c c c c a + . . ; 9.A.A.A.B.! c c c c c c c c c c c                   ",
"                    c c c c c c c c c c W q.w.b.A.A.A.>.M c c c c h 6 $ - 0 j.A.A.A.c.E c c c c c c c c c c c                   ",
"                    c c c c c c c c c c I l.A.A.A.A.A.%.b c c c c c B | 5.j.A.A.A.A.p.F c c c c c c c c c c c                   ",
"                    c c c c c c c c c c C =.A.A.A.A.B.~ c c c c c c b #.A.A.A.A.A.A.%.b c c c c c c c c c c c                   ",
"                    c c c c c c c c c c b I <.B.A.V.;.F c c c c c c c Y u.A.A.A.A.s.L c c c c c c c c c c c c                   ",
"                    c c c c c c c c c c c b F ^ O.^ F c c c c c c c c b R :.B.A.z.~ c c c c c c c c c c c c c                   ",
"                    c c c c c c c c c c c c c c c c c c c c c c c c c c b L o.*./ C c c c c c c c c c c c c c                   ",
"                    c c c c c c c c c c c c c c c c c c c c c c c c c c c b C D N c c c c c c c c c c c c c c                   ",
"                    c c c c c c c c c c c c c c c c c c c c c c c c c c c c c c c c c c c c c c c c c c c c c   c c             ",
"                    c c c c c c c c c c c c c c c c c c c c c c c c c c c c c c c c c c c c c c c c c c c c c c c c c           ",
"          c c c c c c c c c c c c c c c c c c c c c c c c c c c c c c c c c c c c c c c c c c c c c c c c c c c c c c           ",
"        c c c c c c c c c c c c c c c c c c c c c c c c c c c c c c c c c c c c c c c c c c c c c c c c c c c c c c c           ",
"        c c c c c c c c c c c c c c c c c c c c c c c c c c c c c c c c c c c c c c c c c c c c c c c c c c c c c c             ",
"        c c c c c c c c c c c c c c c c c c c c c c c c c c c c c c c c c c c c c c c c c c c c c c c c c c c c c               ",
"            c c c c c c c c c c c c c c c c c c c c c c c c c c c c c c c c c c c c c c c c c c c c c c c c                     ",
"                c c c c c c c c c c c c c c c c c c c c c c c c c c c c c c c c c c c c c c c c c c c c                         ",
"                        c c c c c c c c c c c c c c c c c c c c c c c c c c c c c c c c c c c c c c c                           ",
"                              c c c c c c c c c c c c c c c c c c c c c c c c c c c c c c c c c c c                             ",
"                            c c c c c c c c c c c c c c c c c c c c c c c c c c c c c c c c c c c c c                           ",
"                          c c c c c c c c c c c c c c c c c c c c c c c c c c c c c c c c c c c c c c c c c c                   ",
"                        c c c c c c c c c c c c c c c c c c c c c c c c c c c c c c c c c c c c c c c c c c c                   ",
"                        c c c c c c c c c c c c c c c c c c c c c c c c c c c c c c c c c c c c c c c c c c c                   ",
"                          c c c c c c c c c c c c c c c c c c c c c c c c c c c c c c c c c c c c c c c c c                     ",
"                              c c c c         c c c c c c c c c c c c c c c c c c c c c c c c c c c c c c                       ",
"                                            c c c c c c c c c c c c c c c c c c c     c c c c c c c c                           ",
"                                          c c c c c c c c c c c c c c c c c c c c c                                             ",
"                                          c c c c c c c c c             c c c c c c c                                           ",
"                                          c c c c c c c c                 c c c c c c                                           ",
"                                                                            c c c c c                                           ",
"                                                                              c c c c                                           ",
"                                                                                                                                ",
"                                                                                                                                ",
"                                                                                                                                ",
"                                                                                                                                "
};
