/* XPM */
static char *_4e195a37bf9436193fb3338352c506ev1AQdQnA7kRpQ5Gx[] = {
/* columns rows colors chars-per-pixel */
"128 128 79 1 ",
"  c black",
". c #060606",
"X c #101005",
"o c #1C2018",
"O c #060624",
"+ c gray13",
"@ c gray15",
"# c #2A2A2A",
"$ c #2D2D2D",
"% c #364A22",
"& c #335024",
"* c #4A642E",
"= c #4F6A33",
"- c #516C34",
"; c #5A7839",
": c #5D7C3B",
"> c #5F7E3D",
", c #7F5842",
"< c #57754C",
"1 c #6C6C6C",
"2 c #CA4422",
"3 c #FF7738",
"4 c #9D6F48",
"5 c #62813F",
"6 c #658541",
"7 c #668943",
"8 c #688B44",
"9 c #698C45",
"0 c #6C8D48",
"q c #6D9147",
"w c #6F9349",
"e c #72974B",
"r c #739A4C",
"t c #749B4D",
"y c #779E4E",
"u c #789F4F",
"i c #789F50",
"p c #749B5C",
"a c #7AA24F",
"s c #7BA350",
"d c #7BA352",
"f c #7CA452",
"g c #7AA257",
"h c #7EA754",
"j c #7FA853",
"k c #7FA855",
"l c #7F9864",
"z c #FFD400",
"x c #FFC039",
"c c #8A9C4F",
"v c #849F52",
"b c #83A351",
"n c #86A150",
"m c #81A652",
"M c #86A652",
"N c #82A754",
"B c #80A853",
"V c #80A955",
"C c #85AA57",
"Z c #82AA58",
"A c #86AB58",
"S c #85AD5D",
"D c #89AB58",
"F c #AB8B61",
"G c #9BB366",
"H c #B6BF7A",
"J c #FF8A41",
"K c #9FC372",
"L c #A0C471",
"P c #040582",
"I c #000888",
"U c #0D2093",
"Y c #182897",
"T c #397CFF",
"R c #3C7DFF",
"E c #F0C48A",
"W c #F7D7A8",
"Q c #FFE1B2",
"! c white",
/* pixels */
"jjjjjjjjjjjjjjjjjjjjjjjjjjjjjjjjjjjjjjjjjjjjjjjjjj    jjjjjjjjjjjjjjjjjjjjjjjjjjjjjjjjjjjjjjjjjjjjjjjjjjjjjjjjjjjjjjjjjjjjjjjjjj",
"jjjjjjjjjjjjjjjjjjjjjjjjjjjjjjjjjjjjjjjjjjjjjjjjjj    jjjjjjjjjjjjjjjjjjjjjjjjjjjjjjjjjjjjjjjjjjjjjjjjjjjjjjjjjjjjjjjjjjjjjjjjjj",
"jjjjjjjjjjjjjjjjjjjjjjjjjjjjjjjjjjjjjjjjjjjjjjjj      jjjjjjjjjjjjjjjjjjjjjjjjjjjjjj    jjjjjjjjjjjjjjjjjjjjjjjjjjjjjjjjjjjjjjjj",
"jjjjjjjjjjjjjjjjjjjjjjjjjjjjjjjjjjjjjjjjjjjjjjjj      jjjjjjjjjjjjjjjjjjjjjjjjjjjjjj    jjjjjjjjjjjjjjjjjjjjjjjjjjjjjjjjjjjjjjjj",
"jjjjjjjjjjjjjjjjjjjjjjjjjj      jjjjjjjjjjjjjjjj  11    jjjjjjjjjjjjjjjjjjjjjjjjjj  QQQQ    jjjjjjjjjjjjjjjjjjjjjjjjjjjjjjjjjjjj",
"jjjjjjjjjjjjjjjjjjjjjjjjjj      jjjjjjjjjjjjjjjj  11    jjjjjjjjjjjjjjjjjjjjjjjjjj  QQQQ    jjjjjjjjjjjjjjjjjjjjjjjjjjjjjjjjjjjj",
"jjjjjjjjjjjjjjjjjjjjjjjj  QQQQQQ  jjjjjjjjjjjjLL  1111  jjjjjjjjjjjjjjjjjjjjjjjj  QQ    QQ  jjjjjjjjjjjjjjjjjjjjjjjjjjjjjjjjjjjj",
"jjjjjjjjjjjjjjjjjjjjjjjj  QQQQQQ  jjjjjjjjjjjjLL  1111  jjjjjjjjjjjjjjjjjjjjjjjj  QQ    QQ  jjjjjjjjjjjjjjjjjjjjjjjjjjjjjjjjjjjj",
"jjjjjjjjjjjjjjjjjjjjjjjj  QQQQEE  jjjjff    jjKK111111    jjjjjjjjjjjjjjjjjjjjjj  QQ  QQQQ  jjjjjjjjjjjjjjjjjjjjjjjjjjjjjjjjjjjj",
"jjjjjjjjjjjjjjjjjjjjjjjj  QQQQEE  jjjjff    jjKK111111    jjjjjjjjjjjjjjjjjjjjjj  QQ  QQQQ  jjjjjjjjjjjjjjjjjjjjjjjjjjjjjjjjjjjj",
"jjjjjjjjjjjjjjjjjjjjjj      EEEE  jjjjjj    jj  1111      jjjjjjjj  tthhjjjjjjjj    QQQQQQ  jjjjjjjjjjjjjjjjjjjjjj&&&&jjjjjjjjjj",
"jjjjjjjjjjjjjjjjjjjjjj      EEEE  jjjjjj    jj  1111      jjjjjjjj  tthhjjjjjjjj    QQQQQQ  jjjjjjjjjjjjjjjjjjjjjj&&&&jjjjjjjjjj",
"jjjjjjjjjjjjjjjjjjjjjj  QQQQEEEE  jjjjjj        11          jjjjjj    hhjjjjjjjjjj  QQQQ    jjjjjjjjjjjjjjjjjjjj&&&&&&jjjjjjjjjj",
"jjjjjjjjjjjjjjjjjjjjjj  QQQQEEEE  jjjjjj        11          jjjjjj    hhjjjjjjjjjj  QQQQ    jjjjjjjjjjjjjjjjjjjj&&&&&&jjjjjjjjjj",
"jjjjjjjjjjjjjjjjjjjjjj  QQ  TT    jjjjjj  11    11        11          ffssjjjjjj  TTTTUU  jjjjjjjjjjjjjjjjjj--jj&&&&&&jjjjjjjjjj",
"jjjjjjjjjjjjjjjjjjjjjj  QQ  TT    jjjjjj  11    11        11          ffssjjjjjj  TTTTUU  jjjjjjjjjjjjjjjjjj--jj&&&&&&jjjjjjjjjj",
"jjjjjjjjjjjjjjjjjjjjjjjj  TTUUUU  jjjjjj  1111              1111      tt99  jjjj  TTTTUUUUjjjjjjjjjjjjjjjjjj--&&&&&&&&jjjjjjjjjj",
"jjjjjjjjjjjjjjjjjjjjjjjj  TTUUUU  jjjjjj  1111              1111      tt99  jjjj  TTTTUUUUjjjjjjjjjjjjjjjjjj--&&&&&&&&jjjjjjjjjj",
"jjjjjjjjjjjjjjjjjjjjjjjjTTTTUU  rrjj;;hh    1111                      ee    jjjj  TTUUUUUUjjjjjjjjjjjjjjjjjj----&&&&&&jjjjjjjjjj",
"jjjjjjjjjjjjjjjjjjjjjjjjTTTTUU  rrjj;;hh    1111                      ee    jjjj  TTUUUUUUjjjjjjjjjjjjjjjjjj----&&&&&&jjjjjjjjjj",
"jjjjjjjjjjjjjjjjjjjjjjjj  UUUUUUjjuuffhhjj                FFEE##            ff::  QQ      jjjjjjjjjjjjjjjjjjjj------jjjjjjjjjjjj",
"jjjjjjjjjjjjjjjjjjjjjjjj  UUUUUUjjuuffhhjj                FFEE##            ff::  QQ      jjjjjjjjjjjjjjjjjjjj------jjjjjjjjjjjj",
"jjjjjjjjjjjjjjjjjj--jjjj  QQQQEE  ssffjj          EE    44EEEEEE          yyaajj  QQQQQQ  jjjjjjjjjjjjjjjjjjjjjjjjjjjjjjjjjjjjjj",
"jjjjjjjjjjjjjjjjjj--jjjj  QQQQEE  ssffjj          EE    44EEEEEE          yyaajj  QQQQQQ  jjjjjjjjjjjjjjjjjjjjjjjjjjjjjjjjjjjjjj",
"jjjjLLLLLLjjjjLLLL----jj  QQQQEEEE  jjjj        44QQ  QQEE    EE  EE        jjjj  QQQQQQ  jjjjjjjjjjjjjjjjjjjjjjjjjjjjjjjjjjjjjj",
"jjjjLLLLLLjjjjLLLL----jj  QQQQEEEE  jjjj        44QQ  QQEE    EE  EE        jjjj  QQQQQQ  jjjjjjjjjjjjjjjjjjjjjjjjjjjjjjjjjjjjjj",
"jjjjjjLLLLLLjjLLLL------  QQQQEEEE  ssjjff          QQQQ    !!EE  QQEE    yyjj    QQQQ  jjjjjjjjjjjjjjjjjjjjjjjjjjjjjjjjjjjjjjjj",
"jjjjjjLLLLLLjjLLLL------  QQQQEEEE  ssjjff          QQQQ    !!EE  QQEE    yyjj    QQQQ  jjjjjjjjjjjjjjjjjjjjjjjjjjjjjjjjjjjjjjjj",
"jjjjjjLLLLLLLLLLLL--------  QQQQQQEE  ffjj**        !!QQEE  !!EEQQQQEE  %%jjjj  QQQQQQ  jjjjjjjjjjjjjjjjjjjjjjjjjjjjjjjjjjjjjjjj",
"jjjjjjLLLLLLLLLLLL--------  QQQQQQEE  ffjj**        !!QQEE  !!EEQQQQEE  %%jjjj  QQQQQQ  jjjjjjjjjjjjjjjjjjjjjjjjjjjjjjjjjjjjjjjj",
"jjjjjjLLLLLLLLLLLL--------  QQQQEEEEEE  jjjj99    ,,QQQQQQEEEEEEEEEE    eejjjjQQQQQQQQ  jjjjjjjjjjjjjjjjjjjjjjjjjjjjjjjjjjjjjjjj",
"jjjjjjLLLLLLLLLLLL--------  QQQQEEEEEE  jjjj99    ,,QQQQQQEEEEEEEEEE    eejjjjQQQQQQQQ  jjjjjjjjjjjjjjjjjjjjjjjjjjjjjjjjjjjjjjjj",
"jjjjjjLLLLLLLLLLLL--------jj  QQEEEE44  ffjjjj55  QQ,,QQEEEEEE44  oo  jjjjjj  QQQQQQEE  eejjjjjjjjjjjjjjjjjjjjjjjjjjjjjjjjjjjjjj",
"jjjjjjLLLLLLLLLLLL--------jj  QQEEEE44  ffjjjj55  QQ,,QQEEEEEE44  oo  jjjjjj  QQQQQQEE  eejjjjjjjjjjjjjjjjjjjjjjjjjjjjjjjjjjjjjj",
"jjjjjjjjLLLLLLLL--jj--jjjjjj  QQQQEE4444  jjjjjjZZ  QQ,,,,EE44    jjjjjjjjjjQQQQQQQQ  >>jjjjjjjjjjjjjjjjjjjjjjjjjjjjjjjjjjjjjjjj",
"jjjjjjjjLLLLLLLL--jj--jjjjjj  QQQQEE4444  jjjjjjZZ  QQ,,,,EE44    jjjjjjjjjjQQQQQQQQ  >>jjjjjjjjjjjjjjjjjjjjjjjjjjjjjjjjjjjjjjjj",
"jjjjjjjjjjLLLLjjjjjjjjjjjjjjjj  QQEEEE44  jjjjjjjj    EEEE44    jjjjjjjjjj  QQQQQQEE  jjjjjjjjjjjjjjjjjjjjjjjjjjjjjjjjjjjjjjjjjj",
"jjjjjjjjjjLLLLjjjjjjjjjjjjjjjj  QQEEEE44  jjjjjjjj    EEEE44    jjjjjjjjjj  QQQQQQEE  jjjjjjjjjjjjjjjjjjjjjjjjjjjjjjjjjjjjjjjjjj",
"jjjjjjjjjjjjjjjjjjjjjjjjjjjjjj  QQEEEE44  TTTT  jjjjXX  ..  44  jjjjjjjjjj    QQEE44  jjjjjjjjjjjjjjjjjjjjjjjjjjjjjjjjjjjjjjjjjj",
"jjjjjjjjjjjjjjjjjjjjjjjjjjjjjj  QQEEEE44  TTTT  jjjjXX  ..  44  jjjjjjjjjj    QQEE44  jjjjjjjjjjjjjjjjjjjjjjjjjjjjjjjjjjjjjjjjjj",
"jjjjjjjjjjjjjjjjjjjjjjjjjjjjjj    QQEE  TTTTTT      WW444444EE              TT  44  ttjjjjjjjjjjjjjjjjjjjjjjjjjjjjjjjjjjjjjjjjjj",
"jjjjjjjjjjjjjjjjjjjjjjjjjjjjjj    QQEE  TTTTTT      WW444444EE              TT  44  ttjjjjjjjjjjjjjjjjjjjjjjjjjjjjjjjjjjjjjjjjjj",
"jjjjjjjjjjjjjjjjjjjjjjjjjjjjjjjj        TTTTUUxx  PPTTTTEEEEEE  PP33333333TTTT    ==jjjjjjjjjjjjjjjjjjjjjjjjjjjjjjjjjjjjjjjjjjjj",
"jjjjjjjjjjjjjjjjjjjjjjjjjjjjjjjj        TTTTUUxx  PPTTTTEEEEEE  PP33333333TTTT    ==jjjjjjjjjjjjjjjjjjjjjjjjjjjjjjjjjjjjjjjjjjjj",
"jjjjjjjjjjjjjjjjjjjjjjjjjjjjjjjjjj    TTUUUUxxxxxxPPTTTTTTTTUUUUxxxxxxJJJJTTUUUU  99jjjjjjjjjjjjjjjjjjjjjjjjjjjjjjjjjjjjjjjjjjjj",
"jjjjjjjjjjjjjjjjjjjjjjjjjjjjjjjjjj    TTUUUUxxxxxxPPTTTTTTTTUUUUxxxxxxJJJJTTUUUU  99jjjjjjjjjjjjjjjjjjjjjjjjjjjjjjjjjjjjjjjjjjjj",
"jjjjjjjjjjjjjjjjjjjjjjjjjjjjjjjjjj    TTUUUUxxxxxxPPTTTTTTUUUUUUxxxxJJJJJJUUUUUU  yyjjjjjjjjjjjjjjjjjjjjjjjjjjjjjjjjjjjjjjjjjjjj",
"jjjjjjjjjjjjjjjjjjjjjjjjjjjjjjjjjj    TTUUUUxxxxxxPPTTTTTTUUUUUUxxxxJJJJJJUUUUUU  yyjjjjjjjjjjjjjjjjjjjjjjjjjjjjjjjjjjjjjjjjjjjj",
"jjjjjjjjjjjjjjjjjjjjjjjjjjjjjjjjjjww  UUUU  3333xxUUUUTTUUUUYYxxxxJJJJ33  UUUU    jjhhjjjjjjjjjjjjjjjjjjjjjjjjjjjjjjjjjjjjjjjjjj",
"jjjjjjjjjjjjjjjjjjjjjjjjjjjjjjjjjjww  UUUU  3333xxUUUUTTUUUUYYxxxxJJJJ33  UUUU    jjhhjjjjjjjjjjjjjjjjjjjjjjjjjjjjjjjjjjjjjjjjjj",
"jjjjjjjjjjjjjjjjjjjjjjqqjjjjjjjjjjjj    UU  3333xxxxxxUUUUIIxx33zzzz3333        ffjjjjjjjjjjjjjjjjjjjjjjjjjjjjjjjjjjjjjjjjjjjjjj",
"jjjjjjjjjjjjjjjjjjjjjjqqjjjjjjjjjjjj    UU  3333xxxxxxUUUUIIxx33zzzz3333        ffjjjjjjjjjjjjjjjjjjjjjjjjjjjjjjjjjjjjjjjjjjjjjj",
"jjjjjjjjjjjjjjjjjjjjjjffjjjjjjjjjjjjhh      xx3333xxxxxxUU3333zzzz  zz22      hh>>jjjjjjjjjjjjjjjjjjjjjjjjjjjjjjjjjjjjjjjjjjjjjj",
"jjjjjjjjjjjjjjjjjjjjjjffjjjjjjjjjjjjhh      xx3333xxxxxxUU3333zzzz  zz22      hh>>jjjjjjjjjjjjjjjjjjjjjjjjjjjjjjjjjjjjjjjjjjjjjj",
"jjjjjjjjjjjjjjjjjjjjjjjjjjjjjjjjjjjjffkk    xx3333333333333333zz    zz22    ssjjjjjjjjjjjjjjjjjjjjjjjjjjjjjjjjjjjjjjjjjjjjjjjjjj",
"jjjjjjjjjjjjjjjjjjjjjjjjjjjjjjjjjjjjffkk    xx3333333333333333zz    zz22    ssjjjjjjjjjjjjjjjjjjjjjjjjjjjjjjjjjjjjjjjjjjjjjjjjjj",
"jjjjjjjjjjjjjjjjjjjjjjjjjjjjjjjjjjjj77jjgghh  333333333333JJJJJJ22zz2222  77jjjjjjjjjjeejjjjjjjjjjjjjjjjjjjjjjjjjjjjjjjjjjjjjjjj",
"jjjjjjjjjjjjjjjjjjjjjjjjjjjjjjjjjjjj77jjgghh  333333333333JJJJJJ22zz2222  77jjjjjjjjjjeejjjjjjjjjjjjjjjjjjjjjjjjjjjjjjjjjjjjjjjj",
"jjjjjjjjjjjjjjjjjjjjjjjjjjjjjjjjjjjjjjjjjjhh  222233333322222233222222    <<jjjjjjjjjjjjjjjjjjjjjjjjjjjjjjjjjjjjjjjjjjjjjjjjjjjj",
"jjjjjjjjjjjjjjjjjjjjjjjjjjjjjjjjjjjjjjjjjjhh  222233333322222233222222    <<jjjjjjjjjjjjjjjjjjjjjjjjjjjjjjjjjjjjjjjjjjjjjjjjjjjj",
"jjjjjjjjjjjjjjjjjjjjjjjjjjjjjjjjjjjjjjjjjjppOO  2233333333222222222222    hhjjjjVVjjjjhhjjjjjjjjjjjjjjjjjjjjjjjjjjjjjjjjjjjjjjjj",
"jjjjjjjjjjjjjjjjjjjjjjjjjjjjjjjjjjjjjjjjjjppOO  2233333333222222222222    hhjjjjVVjjjjhhjjjjjjjjjjjjjjjjjjjjjjjjjjjjjjjjjjjjjjjj",
"jjjjjjjjjjjjjjjjjjjjjjjjjjjjjjjjjjVVjjffjjBBll  22222233333322222222    jjjj66yyAAjjjjjjjjjjjjjjjjjjjjjjjjjjjjjjjjjjjjjjjjjjjjjj",
"jjjjjjjjjjjjjjjjjjjjjjjjjjjjjjjjjjVVjjffjjBBll  22222233333322222222    jjjj66yyAAjjjjjjjjjjjjjjjjjjjjjjjjjjjjjjjjjjjjjjjjjjjjjj",
"jjjjjjjjjjjjjjjjjjjjjjjjjjjjjjjjjjjjjjffjjjjhh    222222              jjjjjjjjffVVjjhhjjjjjjjjjjjjjjjjjjjjjjjjjjjjjjjjjjjjjjjjjj",
"jjjjjjjjjjjjjjjjjjjjjjjjjjjjjjjjjjjjjjffjjjjhh    222222              jjjjjjjjffVVjjhhjjjjjjjjjjjjjjjjjjjjjjjjjjjjjjjjjjjjjjjjjj",
"jjjjjjjjjjjjjjjjjjjjjjjjjjjjjjjjjjjjjjjjhhjjjj            3333332222  jjjjjjSSaajjBBjjjjjjjjjjjjjjjjjjjjjjjjjjjjjjjjjjjjjjjjjjjj",
"jjjjjjjjjjjjjjjjjjjjjjjjjjjjjjjjjjjjjjjjhhjjjj            3333332222  jjjjjjSSaajjBBjjjjjjjjjjjjjjjjjjjjjjjjjjjjjjjjjjjjjjjjjjjj",
"jjjjjjjjjjjjjjjjjjjjjjjjjjjjjjjjjjjjjjjjhhjjVV  TTTT    xx333333332222  jjjjttVVjjjjjjhhkkjjjjjjjjjjjjjjjjjjjjjjjjjjjjjjjjjjjjjj",
"jjjjjjjjjjjjjjjjjjjjjjjjjjjjjjjjjjjjjjjjhhjjVV  TTTT    xx333333332222  jjjjttVVjjjjjjhhkkjjjjjjjjjjjjjjjjjjjjjjjjjjjjjjjjjjjjjj",
"jjjjjjjjjjjjjjjjjjjjjjjjjjjjjjjjjjjjjjjjsshhvv    UU  xxxxxx3333332222  jjffffffjjhhjjhhjjjjjjjjjjjjjjjjjjjjjjjjjjjjjjjjjjjjjjjj",
"jjjjjjjjjjjjjjjjjjjjjjjjjjjjjjjjjjjjjjjjsshhvv    UU  xxxxxx3333332222  BBffffffjjhhjjhhjjjjjjjjjjjjjjjjjjjjjjjjjjjjjjjjjjjjjjjj",
"jjjjjjjjjjjjjjjjjjjjjjjjjjjjjjjjjjjjyyffjjjj00..      xxxxxxxx33332222  ffsshhkVhhhhjjffjjjjjjjjjjjjjjjjjjjjjjjjjjjjjjjjjjjjjjjj",
"jjjjjjjjjjjjjjjjjjjjjjjjjjjjjjjjjjjjyyffjjjj00..      xxxxxxxx33332222  ffsshhkkhhhhjjffjjjjjjjjjjjjjjjjjjjjjjjjjjjjjjjjjjjjjjjj",
"jjjjjjjjjjjjjjjjjjjjjjjjjjjjjjjjjjssAAffjjjjhh..xxxx  xxxxxxxx33333322  VVVVffffhhffjjjjjjjjjjjjjjjjjjjjjjjjjjjjjjjjjjjjjjjjjjjj",
"jjjjjjjjjjjjjjjjjjjjjjjjjjjjjjjjjjssAAffjjjjhh..xxxx  xxxxxxxx33333322  VVVVffffhhffjjjjjjjjjjjjjjjjjjjjjjjjjjjjjjjjjjjjjjjjjjjj",
"jjjjjjjjjjjjjjjjjjjjjjjjjjjjjjjjjjffyyBBjjjjff..xxxx  xxxxxxxx33333322  LHDDVjjjffhhjjjjjjjjjjjjjjjjjjjjjjjjjjjjjjjjjjjjjjjjjjjj",
"jjjjjjjjjjjjjjjjjjjjjjjjjjjjjjjjjjffyyBBjjjjff..xxxx  xxxxxxxx33333322  HHDDjjjjffhhjjjjjjjjjjjjjjjjjjjjjjjjjjjjjjjjjjjjjjjjjjjj",
"jjjjjjjjjjjjjjjjjjjjjjjjjjjjjjjjjjrrCCjjjjjjff  xxxx  xxxxxxxx33333322  GGBBjjjjjjjjjjjjjjjjjjjjjjjjjjjjjjjjjjjjjjjjjjjjjjjjjjjj",
"jjjjjjjjjjjjjjjjjjjjjjjjjjjjjjjjjjrrCCjjjjjjff  xxxx  xxxxxxxx33333322  GGBBjjjjjjjjjjjjjjjjjjjjjjjjjjjjjjjjjjjjjjjjjjjjjjjjjjjj",
"jjjjjjjjjjjjjjjjjjjjjjjjjjjjjjjjjjjjaaBBhhss..xxxxxx  xxxxxxxx33332222  99jjjjjjffjjjjjjjjjjjjjjjjjjjjjjjjjjjjjjjjjjjjjjjjjjjjjj",
"jjjjjjjjjjjjjjjjjjjjjjjjjjjjjjjjjjjjaaBBhhss..xxxxxx  xxxxxxxx33332222  99jjjjjjffjjjjjjjjjjjjjjjjjjjjjjjjjjjjjjjjjjjjjjjjjjjjjj",
"jjjjjjjjjjjjjjjjjjjjjjjjjjjjjjjjjjjjjj99jj55..xxxxxx  xxxxxxxx33332222    eeffaajjjjjjjjjjjjjjjjjjjjjjjjjjjjjjjjjjjjjjjjjjjjjjjj",
"jjjjjjjjjjjjjjjjjjjjjjjjjjjjjjjjjjjjjj99jj55..xxxxxx  xxxxxxxx33332222    eeffaajjjjjjjjjjjjjjjjjjjjjjjjjjjjjjjjjjjjjjjjjjjjjjjj",
"jjjjjjjjjjjjjjjjjjjjjjjjjjjjjjjjjjjjjjjjjjee..xxxxxx33  xxxxxx3333222222  88ssjjjjjjjjjjjjjjjjjjjjjjjjjjjjjjjjjjjjjjjjjjjjjjjjjj",
"jjjjjjjjjjjjjjjjjjjjjjjjjjjjjjjjjjjjjjjjjjee..xxxxxx33  xxxxxx3333222222  88ssjjjjjjjjjjjjjjjjjjjjjjjjjjjjjjjjjjjjjjjjjjjjjjjjjj",
"jjjjjjjjjjjjjjjjjjjjjjjjjjjjjjjjjjjjjjjjjjuu..xxxx3333  xxxx333333222222  jjjj66jjjjjjjjjjjjjjjj----jjjj----jjjjjjjjjjjjjjjjjjjj",
"jjjjjjjjjjjjjjjjjjjjjjjjjjjjjjjjjjjjjjjjjjuu..xxxx3333  xxxx333333222222  jjjj66jjjjjjjjjjjjjjjj----jjjj----jjjjjjjjjjjjjjjjjjjj",
"jjjjjjjjjjjjjjjjjjjjjjjjjjjjjjjjjjjjjjjjjjff..xxxx3333    333333332222    ccmmffjjjjjjjjjjjjjjjj----------jjjjjjjjjjjjjjjjjjjjjj",
"jjjjjjjjjjjjjjjjjjjjjjjjjjjjjjjjjjjjjjjjjjff..xxxx3333    333333332222    ccmmffjjjjjjjjjjjjjjjj----------jjjjjjjjjjjjjjjjjjjjjj",
"jjjjjjjjjjjjjjjjjjjjjjjjjjjjjjjjjjjjjjjjss....xxxx333322    33222222    jjmmmmffssjjjjjjjjjjjjjj----------jjjjjjjjjjjjjjjjjjjjjj",
"jjjjjjjjjjjjjjjjjjjjjjjjjjjjjjjjjjjjjjjjss....xxxx333322    33222222    jjmmmmffssjjjjjjjjjjjjjj----------jjjjjjjjjjjjjjjjjjjjjj",
"jjjjjjjjjjjjjjjjjjjjjjjjjjjjjjjjjjjjjjjjii..xxxx3333332222    22222222UU  BBmmnnjjyyjjjjjjjjjjjjjjjjjjjjjjjjjjjjjjjjjjjjjjjjjjjj",
"jjjjjjjjjjjjjjjjjjjjjjjjjjjjjjjjjjjjjjjjii..xxxx3333332222    22222222UU  BBmmnnjjyyjjjjjjjjjjjjjjjjjjjjjjjjjjjjjjjjjjjjjjjjjjjj",
"jjjjjjjjjjjjjjjjjjjjjjjjjjjjjjjjjjjjjjjjyy..xxxxxx33332222          UUUU  MMNNjjjjeejjjjjjjjjjjjjjjjjjjjjjjjjjjjjjjjjjjjjjjjjjjj",
"jjjjjjjjjjjjjjjjjjjjjjjjjjjjjjjjjjjjjjjjyy..xxxxxx33332222          UUUU  MMNNjjjjeejjjjjjjjjjjjjjjjjjjjjjjjjjjjjjjjjjjjjjjjjjjj",
"jjjjjjjjjjjjjjjjjjjjjjjjjjjjjjjjjjjjjjjjee..xxxx3333332222  ..TTTTTT33UU  NNjjjjjjffjjjjjjjjjjjjjjjjjjjjjjjjjjjjjjjjjjjjjjjjjjjj",
"jjjjjjjjjjjjjjjjjjjjjjjjjjjjjjjjjjjjjjjjee..xxxx3333332222  ..TTTTTT33UU  NNjjjjjjffjjjjjjjjjjjjjjjjjjjjjjjjjjjjjjjjjjjjjjjjjjjj",
"jjjjjjjjjjjjjjjjjjjjjjjjjjjjjjjjjjjjjjjjjj..3333333333222222..TTTTTT33UU  jjjjjjjjssffjjjjjjjjjjjjjjjjjjjjjjjjjjjjjjjjjjjjjjjjjj",
"jjjjjjjjjjjjjjjjjjjjjjjjjjjjjjjjjjjjjjjjjj..3333333333222222..TTTTTT33UU  jjjjjjjjssffjjjjjjjjjjjjjjjjjjjjjjjjjjjjjjjjjjjjjjjjjj",
"jjjjjjjjjjjjjjjjjjjjjjjjjjjjjjjjjjjjjjjjjj..33333333332222    TTTT33UUUU  jjjjjjmmmmssjjjjjjjjjjjjjjjjjjjjjjjjjjjjjjjjjjjjjjjjjj",
"jjjjjjjjjjjjjjjjjjjjjjjjjjjjjjjjjjjjjjjjjj..33333333332222    TTTT33UUUU  jjjjjjmmmmssjjjjjjjjjjjjjjjjjjjjjjjjjjjjjjjjjjjjjjjjjj",
"jjjjjjjjjjjjjjjjjjjjjjjjjjjjjjjjjjjjjjjjjjss..xxxx33222222    ..TT33UUUU  jjmmjjjjbb66VVjjjjjjjjjjjjjjjjjjjjjjjjjjjjjjjjjjjjjjjj",
"jjjjjjjjjjjjjjjjjjjjjjjjjjjjjjjjjjjjjjjjjjss..xxxx33222222    ..TT33UUUU  jjmmjjjjbb66VVjjjjjjjjjjjjjjjjjjjjjjjjjjjjjjjjjjjjjjjj",
"jjjjjjjjjjjjjjjjjjjjjjjjjjjjjjjjjjjjjjjjjjjjee222222222222  jj....33UU..ttjjhhjjnnssaajjjjjjjjjjjjjjjjjjjjjjjjjjjjjjjjjjjjjjjjjj",
"jjjjjjjjjjjjjjjjjjjjjjjjjjjjjjjjjjjjjjjjjjjjee222222222222  jj....33UU..ttjjhhjjnnssaajjjjjjjjjjjjjjjjjjjjjjjjjjjjjjjjjjjjjjjjjj",
"jjjjjjjjjjjjjjjjjjjjjjjjjjjjjjjjjjjjjjjjjjjjyy..$$++++@@    jj66..UUUU..jjjjjjffssffhhjjjjjjjjjjjjjjjjjjjjjjjjjjjjjjjjjjjjjjjjjj",
"jjjjjjjjjjjjjjjjjjjjjjjjjjjjjjjjjjjjjjjjjjjjyy..$$++++@@    jj66..UUUU..jjjjjjffssffhhjjjjjjjjjjjjjjjjjjjjjjjjjjjjjjjjjjjjjjjjjj",
"jjjjjjjjjjjjjjjjjjjjjjjjjjjjjjjjjjjjjjjjjjjjee  RR33TTUU  jjjjjjyy....jjjjkkBBhhaassjjjjjjjjjjjjjjjjjjjjjjjjjjjjjjjjjjjjjjjjjjjj",
"jjjjjjjjjjjjjjjjjjjjjjjjjjjjjjjjjjjjjjjjjjjjee  RR33TTUU  jjjjjjyy....jjjjkkBBhhaassjjjjjjjjjjjjjjjjjjjjjjjjjjjjjjjjjjjjjjjjjjjj",
"jjjjjjjjjj&&&&jj&&jjjjjjjjjjjjjjjjjjjjjjjjjj..TTTT33TTUU  jjjjjjjjjjjjjjjjkkjjjjhhyyjjjjjjjjjjjjjjjjjjjjjjjjjjjjjjjjjjjjjjjjjjjj",
"jjjjjjjjjj&&&&jj&&jjjjjjjjjjjjjjjjjjjjjjjjjj..TTTT33TTUU  jjjjjjjjjjjjjjjjkkjjjjhhyyjjjjjjjjjjjjjjjjjjjjjjjjjjjjjjjjjjjjjjjjjjjj",
"jjjjjj&&&&jj&&&&&&jjjjjjjjjjjjjjjjjjjjjjjjhh..TTTT33TTUU  jjjjjjjjjjjjhhkkjjkkjjkkffjjjjjjjjjjjjjjjjjjjjjjjjjjjjjjjjjjjjjjjjjjjj",
"jjjjjj&&&&jj&&&&&&jjjjjjjjjjjjjjjjjjjjjjjjhh..TTTT33TTUU  jjjjjjjjjjjjhhkkjjkkjjkkffjjjjjjjjjjjjjjjjjjjjjjjjjjjjjjjjjjjjjjjjjjjj",
"jjjjjjjj&&&&&&&&&&jjjjjjjjjjjjjjjjjjjjjjjjhh..TTTT33TTUU  jjjjjjjjjjjjjjkkjjjjjjjjjj77jjjjjjjjjjjjjjjjjjjjjjjjjjjjjjjjjjjjjjjjjj",
"jjjjjjjj&&&&&&&&&&jjjjjjjjjjjjjjjjjjjjjjjjhh..TTTT33TTUU  jjjjjjjjjjjjjjkkjjjjjjjjjj77jjjjjjjjjjjjjjjjjjjjjjjjjjjjjjjjjjjjjjjjjj",
"jjjjjjjjjj&&&&&&&&jjjjjjjjjjjjjjjjjjjjssjjjjeeTTTT33TTUU  jjjjjjjjjjjjjjhhhhjjjjffhhhhssjjjjjjjjjjjjjjjjjjjjjjjjjjjjjjjjjjjjjjjj",
"jjjjjjjjjj&&&&&&&&jjjjjjjjjjjjjjjjjjjjssjjjjeeTTTT33TTUU  jjjjjjjjjjjjjjhhhhjjjjhfhhhhssjjjjjjjjjjjjjjjjjjjjjjjjjjjjjjjjjjjjjjjj",
"jjjjjjjjjjjj&&&&&&jjjjjjjjjjjjjjjjjjffffjjjjjj  TT33UUUU  jjjjjjjjjjjjjjjjtthhjjhfhhhhhhffjjjjjjjjjjjjjjjjjjjjjjjjjjjjjjjjjjjjjj",
"jjjjjjjjjjjj&&&&&&jjjjjjjjjjjjjjjjjjffffjjjjjj  TT33UUUU  jjjjjjjjjjjjjjjjtthhjjjjhhhhhhffjjjjjjjjjjjjjjjjjjjjjjjjjjjjjjjjjjjjjj",
"jjjjjjjjjjjjjjjjjjjjjjjjjjjjjjjjjjVVjjhhhhhhjjee  UUUU  jjjjjjjjjjjjjjjjjjjjhhffjjggnnggwwssjjjjjjjjjjjjjjjjjjjjjjjjjjjjjjjjjjjj",
"jjjjjjjjjjjjjjjjjjjjjjjjjjjjjjjjjjVVjjhhhhhhjjee  UUUU  jjjjjjjjjjjjjjjjjjjjhhffjjggnnggwwssjjjjjjjjjjjjjjjjjjjjjjjjjjjjjjjjjjjj",
"jjjjjjjjjjjjjjjjjjjjjjjjjjjjjjjjjjjjkkjjkkjjjjhh      jjjjjjjjjjjjjjjjjjjjjjjjjjttuyeeaahhjjjjjjjjjjjjjjjjjjjjjjjjjjjjjjjjjjjjjj",
"jjjjjjjjjjjjjjjjjjjjjjjjjjjjjjjjjjjjkkjjkkjjjjhh      jjjjjjjjjjjjjjjjjjjjjjjjjjttyyeeaahhjjjjjjjjjjjjjjjjjjjjjjjjjjjjjjjjjjjjjj",
"jjjjjjjjjjjjjjjjjjjjjjjjjjjjjjjjjjjjjjjjjjjjjjjjyy    jjjjjjjjjjjjjjjjjjjjjjjjjjjjjjjjjjjjjjjjjjjjjjjjjjjjjjjjjjjjjjjjjjjjjjjjjj",
"jjjjjjjjjjjjjjjjjjjjjjjjjjjjjjjjjjjjjjjjjjjjjjjjyy    jjjjjjjjjjjjjjjjjjjjjjjjjjjjjjjjjjjjjjjjjjjjjjjjjjjjjjjjjjjjjjjjjjjjjjjjjj",
"jjjjjjjjjjjjjjjjjjjjjjjjjjjjjjjjjjjjjjjjjjjjjjjjjjjjjjjjjjjjjjjjjjjjjjjjjjjjjjjjjjjjjjjjjjjjjjjjjjjjjjjjjjjjjjjjjjjjjjjjjjjjjjjj",
"jjjjjjjjjjjjjjjjjjjjjjjjjjjjjjjjjjjjjjjjjjjjjjjjjjjjjjjjjjjjjjjjjjjjjjjjjjjjjjjjjjjjjjjjjjjjjjjjjjjjjjjjjjjjjjjjjjjjjjjjjjjjjjjj"
};
