/* XPM */
static char *_a7d097779cb4567e2eec7d638466848XqGPZh1SRusOZ1ly[] = {
/* columns rows colors chars-per-pixel */
"64 64 59 1 ",
"  c #B1B1B1",
". c black",
"X c #020201",
"o c #000003",
"O c #020202",
"+ c gray2",
"@ c #060606",
"# c #0A0804",
"$ c #000008",
"% c #090909",
"& c gray4",
"* c #0C0C0C",
"= c gray5",
"- c #040618",
"; c #111111",
": c gray7",
"> c #060624",
", c #0F132D",
"< c #000133",
"1 c gray13",
"2 c #232323",
"3 c gray15",
"4 c #282828",
"5 c gray16",
"6 c #2A2A2A",
"7 c #2D2D2D",
"8 c gray19",
"9 c gray23",
"0 c #3C3C3C",
"q c #000241",
"w c #000046",
"e c #000677",
"r c #444444",
"t c gray28",
"y c #504F49",
"u c #505050",
"i c gray32",
"p c #565656",
"a c #555559",
"s c #7F5842",
"d c #6C6C6C",
"f c #7E7E7E",
"g c #CA4422",
"h c #FF7738",
"j c #9D6F48",
"k c #FFD400",
"l c #FFC039",
"z c #AB8B61",
"x c #FF8A41",
"c c #020284",
"v c #000888",
"b c #041584",
"n c #0D2093",
"m c #182897",
"M c #5661B6",
"N c #397CFF",
"B c #F0C48A",
"V c #FFE1B2",
"C c white",
/* pixels */
"                                                                ",
"                                                                ",
"                                                                ",
"                                                                ",
"                      .d..                                      ",
"                   ..ddd....                                    ",
"                     .dddd...                                   ",
"                      .dd.....                                  ",
"                       .dd...d....                              ",
"                     .........dd...                             ",
"                  .dddd............                             ",
"                 .ddd........zB6........                        ",
"                .........B..jBBB.......                         ",
"                     .d.jV.VB..B.B....                          ",
"                    .d....VV..CB.VB....                         ",
"                   .......CVB.CBVVB.....                        ",
"                  .......sVVVBBBBB....                          ",
"                       ..VsVBBBj.:.                             ",
"                         .VssBj..                               ",
"                         ..BBj..                                ",
"                          #.@.j.                                ",
"                        ..VjjjB.......                          ",
"                      ...wNNBBB.vhhhh....                       ",
"                    ..lllvNNNNnnlllxxp=nv.                      ",
"                   .$llllnNNNnnnllxxx.Nnnv.                     ",
"                   N,.hhlnnNnnmllxxh.Nnnnq.                     ",
"                  cNN.hhlllnnvlhkkhh.Nnnn..                     ",
"                  NNn.lhhlllnhhkk.kg.NnneB.                     ",
"                  .Nn.lhhhhhhhhk..kg.nn-aBB.                    ",
"                  .Nnn.hhhhhhxxxgkgg.nnbVBB.                    ",
"                   .nn.gghhhggghggg..<.VVBB.                    ",
"                   .Mn>.ghhhhgggggg..y.VVBj.                    ",
"                   .VBf.ggghhhgggg..  ..VBj.                    ",
"                   .VB...gggggggg..    .VBj.                    ",
"                    6VB.....ggg....    .BBj.                    ",
"                    .VB.NNNN....Nnn.  .VBj..                    ",
"                    ..j..nnnnnnnnnn. .......                    ",
"                  ..NN:......nnn......NNnnn                     ",
"                 .V..nnnlllhh..hhhp.VV....t                     ",
"                 ..B.nnnllhhhllhhhg.VBBB.u                      ",
"                 .B.Bj.tllhh&llhhhg.VBBj.                       ",
"                  .B...lllhh9lllhhg..Bjj.                       ",
"                   . .0lllhhh8llhhgg....                        ",
"                     .llllhhh.lllhhgg..                         ",
"                     .lllhhhg..lllhhgg..                        ",
"                    u.lllhhhg..lllhhhgg.                        ",
"                    =llllhhgg...llhhhgg..                       ",
"                    =lllhhhg.. .lllhhhgg..                      ",
"                    .llllhhg.. .llllhhhgg.                      ",
"                    ..llhhhgg. ..hllhhhgg.                      ",
"                     .hhhhhggg. .hllhhggg..                     ",
"                     .hhhhhgg.. 6hhhgggggg.                     ",
"                     .lllhggg.   .gggggggg.                     ",
"                      .ggggg..   1.gggggg..                     ",
"                      .@7113..    ........                      ",
"                      .NNhNn.      .NNhn..                      ",
"                      .Nhgnn.      .NNhnn.                      ",
"                     .NNhNnn.      .NNNhNn.                     ",
"                    .&NhgNnn.      .NNNNhnn.                    ",
"                   ..NhNNnnn.       .nnNNgnn.                   ",
"                  ..Nhnnnnn.         .nnnngn..                  ",
"                   ...n....           .......                   ",
"                                                                ",
"                                                                "
};
