/* XPM */
static char *result[] = {
/* columns rows colors chars-per-pixel */
"128 128 78 1 ",
"  c black",
". c #010100",
"X c #010101",
"o c #020201",
"O c #000003",
"+ c #020202",
"@ c gray2",
"# c #060606",
"$ c #0D0D05",
"% c #000008",
"& c #090909",
"* c gray5",
"= c #13160F",
"- c #040618",
"; c gray7",
": c #161913",
"> c #181B14",
", c #1C2018",
"< c #060624",
"1 c #0F132D",
"2 c #000133",
"3 c gray13",
"4 c gray15",
"5 c #2A2A2A",
"6 c #2D2D2D",
"7 c #333A2B",
"8 c gray19",
"9 c gray23",
"0 c #335024",
"q c #394131",
"w c #516C34",
"e c #000241",
"r c #000677",
"t c #16197B",
"y c #565656",
"u c #555559",
"i c #7F5842",
"p c #5F6A4D",
"a c #626F54",
"s c #6C6C6C",
"d c #7E7E7E",
"f c #CA4422",
"g c #FF7738",
"h c #9D6F48",
"j c #7FA853",
"k c #FFD400",
"l c #FFC039",
"z c #80A955",
"x c #81A956",
"c c #82AA58",
"v c #83AB59",
"b c #83AB5B",
"n c #84AC5C",
"m c #8AB25E",
"M c #AB8B61",
"N c #8FB36B",
"B c #E98642",
"V c #FF8A41",
"C c #DCB843",
"Z c #A0C471",
"A c #040582",
"S c #000888",
"D c #041584",
"F c #1A2F8E",
"G c #0D2093",
"H c #182897",
"J c #5661B6",
"K c #397CFF",
"L c #4F8AD6",
"P c #4584EE",
"I c #ECC387",
"U c #EFC48A",
"Y c #F0C48A",
"T c #EFD7A2",
"R c #F7DAA7",
"E c #FADCAB",
"W c #FFE1B2",
"Q c white",
/* pixels */
"jjjjjjjjjjjjjjjjjjjjjjjjjjjjjjjjjjjjjjjjjjjjjjjjjjjjjjjjjjjjjjjjjjjjjjjjjjjjjjjjjjjjjjjjjjjjjjjjjjjjjjjjjjjjjjjjjjjjjjjjjjjjjjjj",
"jjjjjjjjjjjjjjjjjjjjjjjjjjjjjjjjjjjjjjjjjjjjjjjjjjjjjjjjjjjjjjjjjjjjjjjjjjjjjjjjjjjjjjjjjjjjjjjjjjjjjjjjjjjjjjjjjjjjjjjjjjjjjjjj",
"jjjjjjjjjjjjjjjjjjjjjjjjjjjjjjjjjjjjjjjjjjjjjjjjjjjjjjjjjjjjjjjjjjjjjjjjjjjjjjjjjjjjjjjjjjjjjjjjjjjjjjjjjjjjjjjjjjjjjjjjjjjjjjjj",
"jjjjjjjjjjjjjjjjjjjjjjjjjjjjjjjjjjjjjjjjjjjjjjjjjjjjjjjjjjjjjjjjjjjjjjjjjjjjjjjjjjjjjjjjjjjjjjjjjjjjjjjjjjjjjjjjjjjjjjjjjjjjjjjj",
"jjjjjjjjjjjjjjjjjjjjjjjjjjjjjjjjjjjjjjjjjjjjjjjjjjjjjjjjjjjjjjjjjjjjjjjjjjjjjjjjjjjjjjjjjjjjjjjjjjjjjjjjjjjjjjjjjjjjjjjjjjjjjjjj",
"jjjjjjjjjjjjjjjjjjjjjjjjjjjjjjjjjjjjjjjjjjjjjjjjjjjjjjjjjjjjjjjjjjjjjjjjjjjjjjjjjjjjjjjjjjjjjjjjjjjjjjjjjjjjjjjjjjjjjjjjjjjjjjjj",
"jjjjjjjjjjjjjjjjjjjjjjjjjjjjjjjjjjjjjjjjjjjjZZZZjjjjjjjjjjjjjjjjjjjjjjjjjjjjjjjjjjjjjjjjjjjjjjjjjjjjjjjjjjjjjjjjjjjjjjjjjjjjjjjj",
"jjjjjjjjjjjjjjjjjjjjjjjjjjjjjjjjjjjjjjjjjjjjZZZZjjjjjjjjjjjjjjjjjjjjjjjjjjjjjjjjjjjjjjjjjjjjjjjjjjjjjjjjjjjjjjjjjjjjjjjjjjjjjjjj",
"jjjjjjjjjjjjjjjjjjjjjjjjjjjjjjjjjjjjjjjjjjjj        ZZjjjjjjjjjjjjjjjjjjjjjjjjjjjjjjjjjjjjjjjjjjjjjjjjjjjjjjjjjjjj00jjjjjjjjjjjj",
"jjjjjjjjjjjjjjjjjjjjjjjjjjjjjjjjjjjjjjjjjjjj        ZZjjjjjjjjjjjjjjjjjjjjjjjjjjjjjjjjjjjjjjjjjjjjjjjjjjjjjjjjjjjj00jjjjjjjjjjjj",
"jjjjjjjjjjjjjjjjjjjjjjjjjjjjjjjjjjjjjj    ss            jjjjjjjjjjjjjjjjjjjjjjjjjjjjjjjjjjjjjjjjjjjjjjjjjjjjjjjj0000jjjjjjjjjjjj",
"jjjjjjjjjjjjjjjjjjjjjjjjjjjjjjjjjjjjjj    ss            jjjjjjjjjjjjjjjjjjjjjjjjjjjjjjjjjjjjjjjjjjjjjjjjjjjjjjjj0000jjjjjjjjjjjj",
"jjjjjjjjjjjjjjjjjjjjjjjjjjjjjjjjjjjjjjzzjj  ssssssss      jjjjjjjjjjjjzzjjjjjjjjjjjjjjjjjjjjjjjjjjjjjjjjjjjjjjjj0000jjjjjjjjjjjj",
"jjjjjjjjjjjjjjjjjjjjjjjjjjjjjjjjjjjjjjzzjj  ssssssss      jjjjjjjjjjjjzzjjjjjjjjjjjjjjjjjjjjjjjjjjjjjjjjjjjjjjjj0000jjjjjjjjjjjj",
"jjjjjjjjjjjjjjjjjjjjjjjjjjjjjjjjjjjjjjmmjjjj  ssss          jjjjjjjjjjjjjjjjjjjjjjjjjjjjjjjjjjjjjjjjjjjjjjwwww000000jjjjjjjjjjjj",
"jjjjjjjjjjjjjjjjjjjjjjjjjjjjjjjjjjjjjjmmjjjj  ssss          jjjjjjjjjjjjjjjjjjjjjjjjjjjjjjjjjjjjjjjjjjjjjjwwww000000jjjjjjjjjjjj",
"jjjjjjjjjjjjjjjjjjjjjjjjjjjjjjjjjjjjjjjjjjjjjj  ssss      ss        jjjjjjjjjjjjjjjjjjjjjjjjjjjjjjjjjjjjjjwwww00000000jjjjjjjjjj",
"jjjjjjjjjjjjjjjjjjjjjjjjjjjjjjjjjjjjjjjjjjjjjj  ssss      ss        jjjjjjjjjjjjjjjjjjjjjjjjjjjjjjjjjjjjjjwwww00000000jjjjjjjjjj",
"jjjjjjjjjjjjjjjjjjjjjjjjjjjjjjjjjjjjjjjjjj                  ssss      jjjjjjjjjjjjjjjjjjjjjjjjjjjjjjjjjjjjjjwwwwww00jjjjjjjjjjjj",
"jjjjjjjjjjjjjjjjjjjjjjjjjjjjjjjjjjjjjjjjjj                  ssss      jjjjjjjjjjjjjjjjjjjjjjjjjjjjjjjjjjjjjjwwwwww00jjjjjjjjjjjj",
"jjjjjjjjjjjjjjjjjjjjjjjjjjjjjjjjjjjj  ssssssss                        jjjjccjjjjjjjjjjjjjjjjjjjjjjjjjjjjjjjjjjjjjjjjjjjjjjjjjjjj",
"jjjjjjjjjjjjjjjjjjjjjjjjjjjjjjjjjjjj  ssssssss                        jjjjccjjjjjjjjjjjjjjjjjjjjjjjjjjjjjjjjjjjjjjjjjjjjjjjjjjjj",
"jjjjZZZZjjjjjjZZjjwwjjjjjjjjjjjjcc  ssssss                MMYY55                jjjjjjjjjjjjjjjjjjjjjjjjjjjjjjjjjjjjjjjjjjjjjjjj",
"jjjjZZZZjjjjjjZZjjwwjjjjjjjjjjjjcc  ssssss                MMYY55                jjjjjjjjjjjjjjjjjjjjjjjjjjjjjjjjjjjjjjjjjjjjjjjj",
"jjjjZZZZZZjjZZZZjjwwwwjjjjjjjjjj                  YY    hhYYYYYY              jjjjjjjjjjjjjjjjjjjjjjjjjjjjjjjjjjjjjjjjjjjjjjjjjj",
"jjjjZZZZZZjjZZZZjjwwwwjjjjjjjjjj                  YY    hhYYYYYY              jjjjjjjjjjjjjjjjjjjjjjjjjjjjjjjjjjjjjjjjjjjjjjjjjj",
"jjjjZZZZZZZZZZZZjjwwwwjjjjwwjjjjzzjjjjjjjj  ss  hhWW  WWYY    YY  YY        jjjjjjjjjjjjjjjjjjjjjjjjjjjjjjjjjjjjjjjjjjjjjjjjjjjj",
"jjjjZZZZZZZZZZZZjjwwwwjjjjwwjjjjzzjjjjjjjj  ss  hhWW  WWYY    YY  YY        jjjjjjjjjjjjjjjjjjjjjjjjjjjjjjjjjjjjjjjjjjjjjjjjjjjj",
"jjjjjjZZZZZZZZZZwwwwwwwwwwwwjjjjjjjjjjjj  ss        WWWW    QQYY  WWYY        vvjjjjjjjjjjjjjjjjjjjjjjjjjjjjjjjjjjjjjjjjjjjjjjjj",
"jjjjjjZZZZZZZZZZwwwwwwwwwwwwjjjjjjjjjjjj  ss        WWWW    QQYY  WWYY        vvjjjjjjjjjjjjjjjjjjjjjjjjjjjjjjjjjjjjjjjjjjjjjjjj",
"jjjjZZZZZZZZZZZZwwwwwwwwwwwwjjjjjjjjjj              QQWWYY  QQYYWWWWYY          jjjjjjjjjjjjjjjjjjjjjjjjjjjjjjjjjjjjjjjjjjjjjjjj",
"jjjjZZZZZZZZZZZZwwwwwwwwwwwwjjjjjjjjjj              QQWWYY  QQYYWWWWYY          jjjjjjjjjjjjjjjjjjjjjjjjjjjjjjjjjjjjjjjjjjjjjjjj",
"jjjjjjZZZZZZZZZZwwwwwwwwjjjjjjjjjjjj              iiWWWWWWYYYYYYYYYY        xxjjjjjjjjjjjjjjjjjjjjjjjjjjjjjjjjjjjjjjjjjjjjjjjjjj",
"jjjjjjZZZZZZZZZZwwwwwwwwjjjjjjjjjjjj              iiWWWWWWYYYYYYYYYY        xxjjjjjjjjjjjjjjjjjjjjjjjjjjjjjjjjjjjjjjjjjjjjjjjjjj",
"jjjjjjjjZZZZjjjjjjjjjjjjjjjjjjjjjjjjjjjjzzjjjj    WWiiWWYYYYYYhh  ,,  jjjjjjjjjjjjjjjjjjjjjjjjjjjjjjjjjjjjjjjjjjjjjjjjjjjjjjjjjj",
"jjjjjjjjZZZZjjjjjjjjjjjjjjjjjjjjjjjjjjjjzzjjjj    WWiiWWYYYYYYhh  ,,  jjjjjjjjjjjjjjjjjjjjjjjjjjjjjjjjjjjjjjjjjjjjjjjjjjjjjjjjjj",
"jjjjjjjjjjjjjjjjjjjjjjjjjjjjjjjjjjjjjjjjjjjjjjjjcc  WWiiiiYYhh  ..jjjjjjjjjjjjjjjjjjjjjjjjjjjjjjjjjjjjjjjjjjjjjjjjjjjjjjjjjjjjjj",
"jjjjjjjjjjjjjjjjjjjjjjjjjjjjjjjjjjjjjjjjjjjjjjjjcc  WWiiiiYYhh  ..jjjjjjjjjjjjjjjjjjjjjjjjjjjjjjjjjjjjjjjjjjjjjjjjjjjjjjjjjjjjjj",
"jjjjjjjjjjjjjjjjjjjjjjjjjjjjjjjjjjjjjjjjjjjjjjjjjj    YYYYhh    jjjjjjjjxxjjjjjjjjjjjjjjjjjjjjjjjjjjjjjjjjjjjjjjjjjjjjjjjjjjjjjj",
"jjjjjjjjjjjjjjjjjjjjjjjjjjjjjjjjjjjjjjjjjjjjjjjjjj    YYYYhh    jjjjjjjjxxjjjjjjjjjjjjjjjjjjjjjjjjjjjjjjjjjjjjjjjjjjjjjjjjjjjjjj",
"jjjjjjjjjjjjjjjjjjjjjjjjjjjjjjjjjjjjjjjjjjjjjjjjjjjj$$oo##  hh  jjjjjjjjjjjjjjjjjjjjjjjjjjjjjjjjjjjjjjjjjjjjjjjjjjjjjjjjjjjjjjjj",
"jjjjjjjjjjjjjjjjjjjjjjjjjjjjjjjjjjjjjjjjjjjjjjjjjjjj$$oo##  hh  jjjjjjjjjjjjjjjjjjjjjjjjjjjjjjjjjjjjjjjjjjjjjjjjjjjjjjjjjjjjjjjj",
"jjjjjjjjjjjjjjjjjjjjjjjjjjjjjjjjjjjjjjjjjjjjjjjj    EEhhhhhhYY              jjjjjjjjjjjjjjjjjjjjjjjjjjjjjjjjjjjjjjjjjjjjjjjjjjjj",
"jjjjjjjjjjjjjjjjjjjjjjjjjjjjjjjjjjjjjjjjjjjjjjjj    EEhhhhhhYY              jjjjjjjjjjjjjjjjjjjjjjjjjjjjjjjjjjjjjjjjjjjjjjjjjjjj",
"jjjjjjjjjjjjjjjjjjjjjjjjjjjjjjjjjjjjjjjjjjjj      AAKKKKYYYYYY  AAgggggggg        jjjjjjjjjjjjjjjjjjjjjjjjjjjjjjjjjjjjjjjjjjjjjj",
"jjjjjjjjjjjjjjjjjjjjjjjjjjjjjjjjjjjjjjjjjjjj      AAKKKKYYYYYY  AAgggggggg        jjjjjjjjjjjjjjjjjjjjjjjjjjjjjjjjjjjjjjjjjjjjjj",
"jjjjjjjjjjjjjjjjjjjjjjjjjjjjjjjjjjjjjjcc    CCllllAAKKKKKKKKGGGGllllllVVVVyy**AAAA  jjjjjjjjjjjjjjjjjjjjjjjjjjjjjjjjjjjjjjjjjjjj",
"jjjjjjjjjjjjjjjjjjjjjjjjjjjjjjjjjjjjjjcc    CCllllAAKKKKKKKKGGGGllllllVVVVyy**AAAA  jjjjjjjjjjjjjjjjjjjjjjjjjjjjjjjjjjjjjjjjjjjj",
"jjjjjjjjjjjjjjjjjjjjjjjjjjjjjjjjjjjjjjAA%%llllllllAAKKKKKKGGGGGGllllVVVVVV  KKGGAAAAjjjjjjjjjjjjjjjjjjjjjjjjjjjjjjjjjjjjjjjjjjjj",
"jjjjjjjjjjjjjjjjjjjjjjjjjjjjjjjjjjjjjjAA%%llllllllAAKKKKKKGGGGGGllllVVVVVV  KKGGAAAAjjjjjjjjjjjjjjjjjjjjjjjjjjjjjjjjjjjjjjjjjjjj",
"jjjjjjjjjjjjjjjjjjjjjjjjjjjjjjjjjjjjAALL11  ggggllGGGGKKGGGGHHllllVVVVgg  KKGGGGGGee  jjjjjjjjjjjjjjjjjjjjjjjjjjjjjjjjjjjjjjjjjj",
"jjjjjjjjjjjjjjjjjjjjjjjjjjjjjjjjjjjjAALL11  ggggllGGGGKKGGGGHHllllVVVVgg  KKGGGGGGee  jjjjjjjjjjjjjjjjjjjjjjjjjjjjjjjjjjjjjjjjjj",
"jjjjjjjjjjjjjjjjjjjjjjjjjjjjjjjjjjjjAAKKKK  ggggllllllGGGGSSllggkkkkgggg  KKGGGGGG    jjjjjjjjjjjjjjjjjjjjjjjjjjjjjjjjjjjjjjjjjj",
"jjjjjjjjjjjjjjjjjjjjjjjjjjjjjjjjjjjjAAKKKK  ggggllllllGGGGSSllggkkkkgggg  KKGGGGGG    jjjjjjjjjjjjjjjjjjjjjjjjjjjjjjjjjjjjjjjjjj",
"jjjjjjjjjjjjjjjjjjjjjjjjjjjjjjjjjjjjttKKAA  llggggllllllGGggggkkkk  kkff  KKGGGGrrYY  jjjjjjjjjjjjjjjjjjjjjjjjjjjjjjjjjjjjjjjjjj",
"jjjjjjjjjjjjjjjjjjjjjjjjjjjjjjjjjjjjttKKAA  llggggllllllGGggggkkkk  kkff  KKGGGGrrYY  jjjjjjjjjjjjjjjjjjjjjjjjjjjjjjjjjjjjjjjjjj",
"jjjjjjjjjjjjjjjjjjjjjjjjjjjjjjjjjjjj  KKAA  llggggggggggggggggkk    kkff  GGGG--uuYYUU  jjjjjjjjjjjjjjjjjjjjjjjjjjjjjjjjjjjjjjjj",
"jjjjjjjjjjjjjjjjjjjjjjjjjjjjjjjjjjjj  KKAA  llggggggggggggggggkk    kkff  GGGG--uuYYUU  jjjjjjjjjjjjjjjjjjjjjjjjjjjjjjjjjjjjjjjj",
"jjjjjjjjjjjjjjjjjjjjjjjjjjjjjjjjjjjj  FFGGGG  ggggggggggggVVVVVVffkkffffOOGGGGDDWWYYYY  jjjjjjjjjjjjjjjjjjjjjjjjjjjjjjjjjjjjjjjj",
"jjjjjjjjjjjjjjjjjjjjjjjjjjjjjjjjjjjj  FFGGGG  ggggggggggggVVVVVVffkkffffOOGGGGDDWWYYYY  jjjjjjjjjjjjjjjjjjjjjjjjjjjjjjjjjjjjjjjj",
"jjjjjjjjjjjjjjjjjjjjjjjjjjjjjjjjjjjjjj  GGGG  ffffggggggffffffggffffff    22  WWWWYYYY  jjjjjjjjjjjjjjjjjjjjjjjjjjjjjjjjjjjjjjjj",
"jjjjjjjjjjjjjjjjjjjjjjjjjjjjjjjjjjjjjj  GGGG  ffffggggggffffffggffffff    22  WWWWYYYY  jjjjjjjjjjjjjjjjjjjjjjjjjjjjjjjjjjjjjjjj",
"jjjjjjjjjjjjjjjjjjjjjjjjjjjjjjjjjjjjjj  JJGG<<  ffggggggggffffffffffff    pp  WWWWYYhh  jjjjjjjjjjjjjjjjjjjjjjjjjjjjjjjjjjjjjjjj",
"jjjjjjjjjjjjjjjjjjjjjjjjjjjjjjjjjjjjjj  JJGG<<  ffggggggggffffffffffff    pp  WWWWYYhh  jjjjjjjjjjjjjjjjjjjjjjjjjjjjjjjjjjjjjjjj",
"jjjjjjjjjjjjjjjjjjjjjjjjjjjjjjjjjjzzjj  WWYYdd  ffffffggggggffffffff    jjjj    WWYYhh  jjjjjjjjjjjjjjjjjjjjjjjjjjjjjjjjjjjjjjjj",
"jjjjjjjjjjjjjjjjjjjjjjjjjjjjjjjjjjzzjj  WWYYdd  ffffffggggggffffffff    jjjj    WWYYhh  jjjjjjjjjjjjjjjjjjjjjjjjjjjjjjjjjjjjjjjj",
"jjjjjjjjjjjjjjjjjjjjjjjjjjjjjjjjjjjjjj  TTYY      ffffffffffffffff    jjjjjjjj  WWYYhh  jjjjjjjjjjjjjjjjjjjjjjjjjjjjjjjjjjjjjjjj",
"jjjjjjjjjjjjjjjjjjjjjjjjjjjjjjjjjjjjjj  TTYY      ffffffffffffffff    jjjjjjjj  WWYYhh  jjjjjjjjjjjjjjjjjjjjjjjjjjjjjjjjjjjjjjjj",
"jjjjjjjjjjjjjjjjjjjjjjjjjjjjjjjjjjjjjjjj  WWYY          ffffff        jjjjjjNN  YYYYhh  jjjjjjjjjjjjjjjjjjjjjjjjjjjjjjjjjjjjjjjj",
"jjjjjjjjjjjjjjjjjjjjjjjjjjjjjjjjjjjjjjjj  WWYY          ffffff        jjjjjjNN  YYYYhh  jjjjjjjjjjjjjjjjjjjjjjjjjjjjjjjjjjjjjjjj",
"jjjjjjjjjjjjjjjjjjjjjjjjjjjjjjjjjjjjjjjj  WWYY  KKKKKKKK        KKGGFF  jjjj  WWYYhh    ccjjjjjjjjjjjjjjjjjjjjjjjjjjjjjjjjjjjjjj",
"jjjjjjjjjjjjjjjjjjjjjjjjjjjjjjjjjjjjjjjj  WWYY  KKKKKKKK        KKGGFF  jjjj  WWYYhh    ccjjjjjjjjjjjjjjjjjjjjjjjjjjjjjjjjjjjjjj",
"jjjjjjjjjjjjjjjjjjjjjjjjjjjjjjjjjjjjjjjj    hh    GGGGGGGGGGGGGGGGGGGG  jj              jjjjjjjjjjjjjjjjjjjjjjjjjjjjjjjjjjjjjjjj",
"jjjjjjjjjjjjjjjjjjjjjjjjjjjjjjjjjjjjjjjj    hh    GGGGGGGGGGGGGGGGGGGG  jj              jjjjjjjjjjjjjjjjjjjjjjjjjjjjjjjjjjjjjjjj",
"jjjjjjjjjjjjjjjjjjjjjjjjjjjjjjjjjjjj    PPKK;;++          GGGGGG        ..  KKKKGGGGFF  jjjjjjjjjjjjjjjjjjjjjjjjjjjjjjjjjjjjjjjj",
"jjjjjjjjjjjjjjjjjjjjjjjjjjjjjjjjjjjj    PPKK;;++          GGGGGG        ..  KKKKGGGGFF  jjjjjjjjjjjjjjjjjjjjjjjjjjjjjjjjjjjjjjjj",
"jjjjjjjjjjjjjjjjjjjjjjjjjjjjjjjjjj  RR    GGGGGGllllllgggg    ggggggyy  WWWW          jjjjjjjjjjjjjjjjjjjjjjjjjjjjjjjjjjjjjjjjjj",
"jjjjjjjjjjjjjjjjjjjjjjjjjjjjjjjjjj  RR    GGGGGGllllllgggg    ggggggyy  WWWW          jjjjjjjjjjjjjjjjjjjjjjjjjjjjjjjjjjjjjjjjjj",
"jjjjjjjjjjjjjjjjjjjjjjjjjjjjjjjjjj    YY  GGGGGGllllggggggllllggggggff  WWYYYYYY  aaccjjjjjjjjjjjjjjjjjjjjjjjjjjjjjjjjjjjjjjjjjj",
"jjjjjjjjjjjjjjjjjjjjjjjjjjjjjjjjjj    YY  GGGGGGllllggggggllllggggggff  WWYYYYYY  aaccjjjjjjjjjjjjjjjjjjjjjjjjjjjjjjjjjjjjjjjjjj",
"jjjjjjjjjjjjjjjjjjjjjjjjjjjjjjjjjj  YY  YYhh    llllgggg&&llllggggggff  WWYYYYhh  jjjjjjjjjjjjjjjjjjjjjjjjjjjjjjjjjjjjjjjjjjjjjj",
"jjjjjjjjjjjjjjjjjjjjjjjjjjjjjjjjjj  YY  YYhh    llllgggg&&llllggggggff  WWYYYYhh  jjjjjjjjjjjjjjjjjjjjjjjjjjjjjjjjjjjjjjjjjjjjjj",
"jjjjjjjjjjjjjjjjjjjjjjjjjjjjjjjjjjzz  II      llllllgggg99llllllggggff    YYhhhh  jjjjjjjjjjjjjjjjjjjjjjjjjjjjjjjjjjjjjjjjjjjjjj",
"jjjjjjjjjjjjjjjjjjjjjjjjjjjjjjjjjjzz  II      llllllgggg99llllllggggff    YYhhhh  jjjjjjjjjjjjjjjjjjjjjjjjjjjjjjjjjjjjjjjjjjjjjj",
"jjjjjjjjjjjjjjjjjjjjjjjjjjjjjjjjjjjjjj  jj    llllllgggggg88llllggggffff        jjjjjjjjjjjjjjwwwwjjjjjjjjjjjjjjjjjjjjjjjjjjjjjj",
"jjjjjjjjjjjjjjjjjjjjjjjjjjjjjjjjjjjjjj  jj    llllllgggggg88llllggggffff        jjjjjjjjjjjjjjwwwwjjjjjjjjjjjjjjjjjjjjjjjjjjjjjj",
"jjjjjjjjjjjjjjjjjjjjjjjjjjjjjjjjjjjjjjjjjj  llllllllgggggg  llllllggggffff    jjjjjjjjjjjjjjjjwwwwjjwwwwwwjjjjjjjjjjjjjjjjjjjjjj",
"jjjjjjjjjjjjjjjjjjjjjjjjjjjjjjjjjjjjjjjjjj  llllllllgggggg  llllllggggffff    jjjjjjjjjjjjjjjjwwwwjjwwwwwwjjjjjjjjjjjjjjjjjjjjjj",
"jjjjjjjjjjjjjjjjjjjjjjjjjjjjjjjjjjjjjjjjjj  llllllggggggff    llllllggggffff    jjjjjjjjjjjjjjjjwwwwwwwwwwjjjjjjjjjjjjjjjjjjjjjj",
"jjjjjjjjjjjjjjjjjjjjjjjjjjjjjjjjjjjjjjjjjj  llllllggggggff    llllllggggffff    jjjjjjjjjjjjjjjjwwwwwwwwwwjjjjjjjjjjjjjjjjjjjjjj",
"jjjjjjjjjjjjjjjjjjjjjjjjjjjjjjjjjjjjjjjj  XXllllllggggggff    llllllggggggffff  jjjjjjjjjjjjjjjjwwwwwwjjjjjjjjjjjjjjjjjjjjjjjjjj",
"jjjjjjjjjjjjjjjjjjjjjjjjjjjjjjjjjjjjjjjj  XXllllllggggggff    llllllggggggffff  jjjjjjjjjjjjjjjjwwwwwwjjjjjjjjjjjjjjjjjjjjjjjjjj",
"jjjjjjjjjjjjjjjjjjjjjjjjjjjjjjjjjjjjjjjj>>llllllllggggffff      llllggggggffff    jjjjjjjjjjjjjjjjjjjjjjjjjjjjjjjjjjjjjjjjjjjjjj",
"jjjjjjjjjjjjjjjjjjjjjjjjjjjjjjjjjjjjjjjj>>llllllllggggffff      llllggggggffff    jjjjjjjjjjjjjjjjjjjjjjjjjjjjjjjjjjjjjjjjjjjjjj",
"jjjjjjjjjjjjjjjjjjjjjjjjjjjjjjjjjjjjjjjj::llllllggggggff    QQ  llllllggggggffff    jjjjjjjjjjjjjjjjjjjjjjjjjjjjjjjjjjjjjjjjjjjj",
"jjjjjjjjjjjjjjjjjjjjjjjjjjjjjjjjjjjjjjjj::llllllggggggff    QQ  llllllggggggffff    jjjjjjjjjjjjjjjjjjjjjjjjjjjjjjjjjjjjjjjjjjjj",
"jjjjjjjjjjjjjjjjjjjjjjjjjjjjjjjjjjjjjjjj  llllllllggggff    QQ  llllllllggggggffff  jjjjjjjjjjjjjjjjjjjjjjjjjjjjjjjjjjjjjjjjjjjj",
"jjjjjjjjjjjjjjjjjjjjjjjjjjjjjjjjjjjjjjjj  llllllllggggff    QQ  llllllllggggggffff  jjjjjjjjjjjjjjjjjjjjjjjjjjjjjjjjjjjjjjjjjjjj",
"jjjjjjjjjjjjjjjjjjjjjjjjjjjjjjjjjjjjjjjj    llllggggggffff  QQ    ggllllggggggffff  jjjjjjjjjjjjjjjjjjjjjjjjjjjjjjjjjjjjjjjjjjjj",
"jjjjjjjjjjjjjjjjjjjjjjjjjjjjjjjjjjjjjjjj    llllggggggffff  QQ    ggllllggggggffff  jjjjjjjjjjjjjjjjjjjjjjjjjjjjjjjjjjjjjjjjjjjj",
"jjjjjjjjjjjjjjjjjjjjjjjjjjjjjjjjjjjjjjjjjj  ggggggggggffffff  vv  ggllllggggffffff    jjjjjjjjjjjjjjjjjjjjjjjjjjjjjjjjjjjjjjjjjj",
"jjjjjjjjjjjjjjjjjjjjjjjjjjjjjjjjjjjjjjjjjj  ggggggggggffffff  vv  ggllllggggffffff    jjjjjjjjjjjjjjjjjjjjjjjjjjjjjjjjjjjjjjjjjj",
"jjjjjjjjjjjjjjjjjjjjjjjjjjjjjjjjjjjjjjjjjj  ggggggggggffff    jjqqBBggggffffffffffff  bbjjjjjjjjjjjjjjjjjjjjjjjjjjjjjjjjjjjjjjjj",
"jjjjjjjjjjjjjjjjjjjjjjjjjjjjjjjjjjjjjjjjjj  ggggggggggffff    jjqqBBggggffffffffffff  bbjjjjjjjjjjjjjjjjjjjjjjjjjjjjjjjjjjjjjjjj",
"jjjjjjjjjjjjjjjjjjjjjjjjjjjjjjjjjjjjjjjjjj  CCllllggffffff  jjjjjj  ffffffffffffffff  jjjjjjjjjjjjjjjjjjjjjjjjjjjjjjjjjjjjjjjjjj",
"jjjjjjjjjjjjjjjjjjjjjjjjjjjjjjjjjjjjjjjjjj  CCllllggffffff  jjjjjj  ffffffffffffffff  jjjjjjjjjjjjjjjjjjjjjjjjjjjjjjjjjjjjjjjjjj",
"jjjjjjjjjjjjjjjjjjjjjjjjjjjjjjjjjjjjjjjjjjjj  ffffffffff    jjjjjj77  ffffffffffff    jjjjjjjjjjjjjjjjjjjjjjjjjjjjjjjjjjjjjjjjjj",
"jjjjjjjjjjjjjjjjjjjjjjjjjjjjjjjjjjjjjjjjjjjj  ffffffffff    jjjjjj77  ffffffffffff    jjjjjjjjjjjjjjjjjjjjjjjjjjjjjjjjjjjjjjjjjj",
"jjjjjjjjjj00jjjjjjjjjjjjjjjjjjjjjjjjjjjjjjjj  @@66333344    jjjjjjjj                jjjjjjjjjjjjjjjjjjjjjjjjjjjjjjjjjjjjjjjjjjjj",
"jjjjjjjjjj00jjjjjjjjjjjjjjjjjjjjjjjjjjjjjjjj  @@66333344    jjjjjjjj                jjjjjjjjjjjjjjjjjjjjjjjjjjjjjjjjjjjjjjjjjjjj",
"jjjjjj00jj00000000jjjjjjjjjjjjjjjjjjjjjjjjjj  KKKKggKKGG  jjjjjjjjjjjj  KKKKggGG    jjjjjjjjjjjjjjjjjjjjjjjjjjjjjjjjjjjjjjjjjjjj",
"jjjjjj00jj00000000jjjjjjjjjjjjjjjjjjjjjjjjjj  KKKKggKKGG  jjjjjjjjjjjj  KKKKggGG    jjjjjjjjjjjjjjjjjjjjjjjjjjjjjjjjjjjjjjjjjjjj",
"jjjjjj000000000000jjjjjjjjjjjjjjjjjjjjjjjjjj  KKggffGGGG  jjjjjjjjjjjj  KKKKggGGGG  jjjjjjjjjjjjjjjjjjjjjjjjjjjjjjjjjjjjjjjjjjjj",
"jjjjjj000000000000jjjjjjjjjjjjjjjjjjjjjjjjjj  KKggffGGGG  jjjjjjjjjjjj  KKKKggGGGG  jjjjjjjjjjjjjjjjjjjjjjjjjjjjjjjjjjjjjjjjjjjj",
"jjjjjjjj0000000000jjjjjjjjjjjjjjjjjjjjjjjj  LLKKggKKGGGG  jjjjjjjjjjjj  KKKKKKggKKFF  jjjjjjjjjjjjjjjjjjjjjjjjjjjjjjjjjjjjjjjjjj",
"jjjjjjjj0000000000jjjjjjjjjjjjjjjjjjjjjjjj  LLKKggKKGGGG  jjjjjjjjjjjj  KKKKKKggKKFF  jjjjjjjjjjjjjjjjjjjjjjjjjjjjjjjjjjjjjjjjjj",
"jjjjjjjjjj00000000jjjjjjjjjjjjjjjjjjjjjj  ==KKggffKKGGGG  jjjjjjjjjjjj  LLKKKKKKggGGFF  jjjjjjjjjjjjjjjjjjjjjjjjjjjjjjjjjjjjjjjj",
"jjjjjjjjjj00000000jjjjjjjjjjjjjjjjjjjjjj  ==KKggffKKGGGG  jjjjjjjjjjjj  LLKKKKKKggGGFF  jjjjjjjjjjjjjjjjjjjjjjjjjjjjjjjjjjjjjjjj",
"jjjjjjjjjjjj0000jjjjjjjjjjjjjjjjjjjjcc==  KKggKKKKGGGGFF  jjjjjjjjjjjjjj  FFGGKKKKffGGFF  jjjjjjjjjjjjjjjjjjjjjjjjjjjjjjjjjjjjjj",
"jjjjjjjjjjjj0000jjjjjjjjjjjjjjjjjjjjcc==  KKggKKKKGGGGFF  jjjjjjjjjjjjjj  FFGGKKKKffGGFF  jjjjjjjjjjjjjjjjjjjjjjjjjjjjjjjjjjjjjj",
"jjjjjjjjjjjjjjjjjjjjjjjjjjjjjjjjjjjj    KKggGGGGGGGGFF  jjjjjjjjjjjjjjjjjj  FFGGGGGGffGG    jjjjjjjjjjjjjjjjjjjjjjjjjjjjjjjjjjjj",
"jjjjjjjjjjjjjjjjjjjjjjjjjjjjjjjjjjjj    KKggGGGGGGGGFF  jjjjjjjjjjjjjjjjjj  FFGGGGGGffGG    jjjjjjjjjjjjjjjjjjjjjjjjjjjjjjjjjjjj",
"jjjjjjjjjjjjjjjjjjjjjjjjjjjjjjjjjjnn                  jjjjjjjjjjjjjjjjjjjjjj              jjjjjjjjjjjjjjjjjjjjjjjjjjjjjjjjjjjjjj",
"jjjjjjjjjjjjjjjjjjjjjjjjjjjjjjjjjjnn                  jjjjjjjjjjjjjjjjjjjjjj              jjjjjjjjjjjjjjjjjjjjjjjjjjjjjjjjjjjjjj",
"jjjjjjjjjjjjjjjjjjjjjjjjjjjjjjjjjjjjxxxxzzjjzzjjjjjjjjjjjjjjjjjjjjjjjjjjjjjjjjjjjjjjzzjjjjjjjjjjjjjjjjjjjjjjjjjjjjjjjjjjjjjjjjjj",
"jjjjjjjjjjjjjjjjjjjjjjjjjjjjjjjjjjjjxxxxzzjjzzjjjjjjjjjjjjjjjjjjjjjjjjjjjjjjjjjjjjjjzzjjjjjjjjjjjjjjjjjjjjjjjjjjjjjjjjjjjjjjjjjj",
"jjjjjjjjjjjjjjjjjjjjjjjjjjjjjjjjjjjjjjjjjjjjjjjjjjjjjjjjjjjjjjjjjjjjjjjjjjjjjjjjjjjjjjjjjjjjjjjjjjjjjjjjjjjjjjjjjjjjjjjjjjjjjjjj",
"jjjjjjjjjjjjjjjjjjjjjjjjjjjjjjjjjjjjjjjjjjjjjjjjjjjjjjjjjjjjjjjjjjjjjjjjjjjjjjjjjjjjjjjjjjjjjjjjjjjjjjjjjjjjjjjjjjjjjjjjjjjjjjjj"
};
